<?xml version="1.0" encoding="utf-8"?>
<!-- Generator: Adobe Illustrator 24.0.3, SVG Export Plug-In . SVG Version: 6.00 Build 0)  -->
<svg version="1.1" id="Layer_1" xmlns="http://www.w3.org/2000/svg" xmlns:xlink="http://www.w3.org/1999/xlink" x="0px" y="0px"
	 viewBox="0 0 125 125" style="enable-background:new 0 0 125 125;" xml:space="preserve">
<style type="text/css">
	.st0{fill:#7C7C7C;}
	.st1{fill:#383838;}
	.st2{fill:#FFFFFF;}
</style>
<g>
	<path class="st0" d="M41.3,65.6c-1.1,2.1-2.4,4.2-3.5,6.2c-0.4,0.7-0.4,1.6-0.1,2.4c0.5,2,1.1,4,1.6,6c0,0.1,0.1,0.2,0.1,0.5
		c-0.6,0-1.1,0-1.8,0c0,0.6,0,1.2,0,1.8c0,1.2,0,2.4,0,3.6c0,1-0.6,1.8-1.6,1.8s-1.8-0.6-1.8-1.8s0-2.1,0-3.1c0-0.8,0-1.5,0-2.2
		c-0.4,0-0.6,0-1,0c0,0.2,0,0.4,0,0.6c0,1.6,0,3.2,0,4.8c0,1.2-1.1,2.1-2.2,1.6c-0.7-0.2-1-0.9-1-1.6c0-1.6,0-3.2,0-4.8
		c0-0.2,0-0.4,0-0.6c-0.6,0-1.1,0-1.9,0c0.2-0.8,0.4-1.5,0.6-2.3c0.4-1.4,0.7-2.6,1.1-4c0.2-1,0.2-2-0.4-3c-1.1-1.9-2.1-3.9-3.2-5.9
		C26.1,65.7,26,65.9,26,66c-0.5,0.5-1.2,0.8-1.9,0.4c-0.6-0.2-1-0.8-1-1.5c0-3.2,0-6.6,0-9.9c0-0.2,0-0.6-0.1-0.9
		c-0.1-0.4-0.4-0.6-0.8-0.6s-0.5,0.2-0.6,0.6c0,0.2,0,0.6,0,0.9c0,10.1,0,20.3,0,30.4c0,1.4-0.8,2.4-1.9,2.5c-1.5,0.4-2.9-0.7-3-2.4
		c0-1.4,0-2.7,0-4c0-4.5,0-9,0-13.4c0-0.1,0-0.2,0-0.5c0-0.4-0.4-0.6-0.8-0.6s-0.6,0.2-0.6,0.6c0,0.1,0,0.2,0,0.5
		c0,5.6,0,11.4,0,17.1c0,0.4,0,0.9-0.1,1.2c-0.4,1.1-1.5,1.8-2.6,1.5c-1.1-0.1-2-1.1-2-2.4c0-0.1,0-0.4,0-0.5c0-10.1,0-20.1,0-30.3
		c0-0.2,0-0.5,0-0.6c-0.1-0.2-0.4-0.5-0.5-0.5c-0.4-0.1-0.6,0.1-0.8,0.4c-0.1,0.2-0.1,0.5-0.1,0.8c0,3.2,0,6.5,0,9.9
		c0,0.8-0.3,1.2-0.8,1.6c-0.1,0.1-0.1,0.2-0.3,0.4C7,73.6,5.6,80.4,4.4,87.2c-0.1,0.8-0.5,1-1.1,0.9c-0.5-0.1-0.8-0.6-0.6-1.2
		c1.2-6.8,2.5-13.5,3.8-20.1c0-0.2-0.1-0.4-0.1-0.6c-0.1-0.4-0.4-0.8-0.4-1.1c0-4.1,0-8.2,0-12.3c0-3,2.6-5.5,5.6-5.5
		c3.1,0,6.4,0,9.5,0c3,0,5.6,2.6,5.6,5.8c0,3.6,0,7.4,0,11c0,0.2,0,0.4,0,0.6c0.1-0.1,0.3-0.1,0.3-0.1c0.8-0.5,1.4-0.4,1.9,0.4
		c0.4,0.6,0.7,1.2,1.1,1.9c0.2,0.4,0.5,0.8,0.7,1.1c0.4,0.6,1,1,1.9,1c1.1,0,2.2,0,3.4,0c0.7,0,1.2-0.2,1.8-0.9
		c0.6-0.9,1.1-1.8,1.6-2.6c0.7-1.1,1.1-1.2,2.2-0.8c1.1-3.9,2.4-7.6,3.5-11.5c0.4-1.1,1-2,1.9-2.6c0.6-0.5,1.4-0.7,2.2-0.7
		c2.8,0,5.6,0,8.4,0c1.1,0,2.1,0.4,2.9,1.2c0.6,0.7,1.1,1.5,1.4,2.4c1.1,3.5,2.1,7,3.2,10.5c0.1,0.4,0.1,0.9,0.1,1.2
		c0,0.8-0.5,1.4-1.1,1.5c-0.7,0.2-1.4,0-1.9-0.6c-0.2-0.4-0.4-0.8-0.5-1.1C60.8,62,59.9,59,59,56.1c-0.1-0.4-0.1-0.9-0.7-0.7
		c-0.4,0.1-0.5,0.5-0.3,1.1c1.5,5.5,3,11,4.5,16.5c0.1,0.2,0.1,0.5,0.2,0.7c-1.2,0-2.4,0-3.5,0c-1,0-0.9-0.1-0.9,0.9
		c0,3.9,0,7.6,0,11.5c0,0.9-0.4,1.5-1.1,2c-0.8,0.4-1.5,0.4-2.1,0c-0.7-0.5-1-1.2-1-2.1c0-3.9,0-7.6,0-11.5c0-0.1,0-0.2,0-0.4
		c0-0.2-0.1-0.4-0.4-0.4c-0.9-0.1-0.9,0-0.9,0.8c0,3.9,0,7.7,0,11.6c0,1.2-0.8,2.3-1.9,2.3c-1.2,0.1-2.2-0.9-2.4-2.1
		c0-0.6,0-1.2,0-1.9c0-3.2,0-6.5,0-9.6c0-1.1,0.1-1-1-1c-1,0-1.9,0-2.9,0c-0.3,0-0.4,0-0.6,0c0.2-0.9,0.5-1.8,0.7-2.6
		c1.4-4.9,2.6-9.6,4-14.5C49,56.4,49,56.1,49,56c0-0.2-0.2-0.5-0.4-0.6c-0.4-0.1-0.6,0.1-0.6,0.4c-0.2,0.6-0.4,1.4-0.6,2
		c-0.7,2.4-1.4,4.8-2.1,7.1c-0.1,0.2-0.1,0.6-0.2,0.9c-0.6,1.1-1.9,1.4-2.8,0.4C41.4,65.7,41.3,65.7,41.3,65.6z"/>
	<path class="st0" d="M106.5,70.2c0-5.1,0-10.1,0-15.2c0-0.2,0-0.5-0.1-0.7c-0.1-0.4-0.2-0.6-0.6-0.5c-0.4,0-0.6,0.2-0.8,0.6
		c0,0.2,0,0.4,0,0.6c0,3.4,0,6.8,0,10c0,1.2-1.1,2-2.2,1.6c-0.6-0.2-1-0.8-1-1.4c0-4.2,0-8.5,0-12.7c0-2.5,2.3-4.9,4.8-5.1
		c0.4-0.1,0.9-0.1,1.4-0.1c2.9,0,5.8,0,8.6,0c2.9,0,5.1,1.9,5.7,4.6c0.1,0.4,0.1,0.7,0.1,1.2c0,4,0,7.9,0,11.9
		c0,1.5-1.2,2.4-2.5,1.8c-0.6-0.4-0.9-1-0.9-1.8c0-3.4,0-6.8,0-10.1c0-0.6-0.2-0.9-0.6-1c-0.4-0.1-0.6,0.1-0.8,0.5
		c-0.1,0.2-0.1,0.6-0.1,0.9c0,10.1,0,20.2,0,30.5c0,1.4-0.8,2.4-2,2.5c-1.4,0.2-2.7-0.9-2.7-2.4c0-5.9,0-11.6,0-17.5
		c0-0.2,0-0.5-0.1-0.7c-0.1-0.2-0.4-0.5-0.6-0.5c-0.2-0.1-0.6,0.1-0.6,0.5c0,0.2-0.1,0.5-0.1,0.7c0,5.8,0,11.5,0,17.3
		c0,1.4-0.7,2.2-2.1,2.5c-1.4,0.2-2.8-0.9-2.8-2.4c0-5,0-10,0-15C106.5,70.5,106.5,70.4,106.5,70.2z"/>
	<path class="st0" d="M86.9,73.4c-1.4,0-2.6,0-3.9,0c-0.5,0-0.6,0.1-0.6,0.6c0,4,0,7.9,0,11.9c0,1.2-0.9,2.3-2.1,2.3
		s-2.1-0.9-2.1-2.1c0-2.4,0-4.8,0-7.1c0-1.5,0-3,0-4.6c0-0.8,0-0.8-0.8-0.8c-0.1,0-0.2,0-0.5,0c0,0.2,0,0.4,0,0.6c0,4,0,7.9,0,11.9
		c0,1.1-0.8,1.9-1.8,2.1c-1,0.1-2-0.5-2.4-1.5c-0.1-0.2-0.1-0.6-0.1-1c0-3.9,0-7.6,0-11.5c0-0.6,0-0.6-0.8-0.6c-1.2,0-2.5,0-3.8,0
		c0.1-0.2,0.1-0.4,0.1-0.6c1.5-5.5,3-11,4.5-16.6c0.1-0.2,0.1-0.5,0.1-0.7c0-0.1-0.2-0.4-0.4-0.4c-0.1,0-0.4,0.1-0.6,0.2
		c0,0.1,0,0.4,0,0.5c-0.9,2.9-1.8,5.9-2.6,8.8c-0.1,0.2-0.2,0.6-0.4,0.9c-0.5,0.9-1.1,1.1-2,0.9c-0.8-0.2-1.2-0.7-1.2-1.6
		c0-0.4,0.1-0.8,0.1-1.1c1.1-3.6,2.1-7.3,3.4-10.7c0.5-1.6,1.6-3,3.5-3.4c0.2,0,0.5,0,0.6,0c2.7,0,5.5,0,8.2,0
		c1.4,0,2.4,0.5,3.1,1.5c0.5,0.6,0.9,1.4,1.2,2.3c1.1,3.4,2.1,6.9,3.2,10.4c0.1,0.4,0.2,0.9,0.2,1.4c-0.1,1-0.5,1.4-1.4,1.6
		c-0.8,0.1-1.5-0.2-1.8-1c-0.4-1-0.6-1.9-0.9-2.9c-0.6-2.3-1.4-4.5-2-6.8c0-0.1-0.1-0.2-0.1-0.4c-0.1-0.1-0.4-0.2-0.5-0.2
		c-0.1,0-0.4,0.2-0.4,0.4c-0.1,0.2,0,0.5,0.1,0.7c1.5,5.5,3,11.1,4.6,16.6C86.9,73,86.9,73.1,86.9,73.4z"/>
	<path class="st0" d="M99.6,72.1c0,0.2-0.1,0.4-0.1,0.6c0,4.5,0,9,0,13.5c0,1.4-1.2,2.1-2.4,1.6c-0.8-0.2-1-0.9-1-1.6
		c0-1.8,0-3.5,0-5.4c0-0.4,0.1-0.9-0.5-1c-0.4-0.1-0.6,0.2-0.6,1c0,1.8,0,3.6,0,5.4c0,0.7-0.6,1.5-1.4,1.6c-0.9,0.1-1.6-0.4-1.9-1.1
		c-0.1-0.4-0.1-0.8-0.1-1.1c0-4.4,0-8.6,0-13c0-0.2,0-0.4,0-0.6c-0.1,0-0.1,0-0.1-0.1c-0.1,0.1-0.2,0.4-0.2,0.5
		c-0.6,1.8-1.1,3.5-1.6,5.2c-0.2,0.6-0.6,0.9-1.1,0.9c-0.6,0-1.1-0.6-1-1.2c0-0.1,0-0.2,0.1-0.4c1-2.5,2-5.1,3.1-7.6
		c0.5-1.2,1.5-1.8,2.9-1.8c1.8,0.1,3.5,0,5.4,0.1c1.4,0,2,0.9,2.5,2c0.9,2.1,1.6,4.2,2.5,6.2c0.1,0.4,0.4,0.9,0.1,1.2
		c-0.2,0.5-0.6,0.8-1.1,0.9c-0.4,0-0.6-0.1-0.8-0.5c-0.6-1.8-1.2-3.4-1.9-5.1c-0.1-0.2-0.1-0.4-0.2-0.5C99.8,72,99.8,72.1,99.6,72.1
		z"/>
	<path class="st0" d="M112,36.6c2.4,0,4.4,1.9,4.4,4.4c0,2.4-1.9,4.4-4.4,4.4c-2.4,0-4.2-1.9-4.2-4.4
		C107.6,38.6,109.6,36.6,112,36.6z"/>
	<path class="st0" d="M15.8,36.6c2.4,0,4.4,1.9,4.4,4.3c0,2.4-1.9,4.4-4.4,4.4c-2.4,0-4.2-1.9-4.2-4.4
		C11.5,38.5,13.4,36.6,15.8,36.6z"/>
	<path class="st0" d="M81.6,43.2c0,2.2-1.8,4.1-4.1,4.1c-2.2,0-4.1-1.9-4.1-4.1s1.9-4.1,4.1-4.1C79.9,39.2,81.6,41,81.6,43.2z"/>
	<path class="st0" d="M57,43.2c0,2.2-1.8,4.1-4.1,4.1c-2.2,0-4.1-1.8-4.1-4.1c0-2.2,1.8-4.1,4.1-4.1C55.1,39.1,57,41,57,43.2z"/>
	<path class="st0" d="M99,63c0,1.9-1.5,3.4-3.4,3.4s-3.4-1.5-3.4-3.4s1.5-3.5,3.4-3.5S99,61,99,63z"/>
	<path class="st0" d="M37,63c0,1.9-1.5,3.4-3.4,3.4c-1.9,0-3.4-1.5-3.4-3.4s1.5-3.4,3.4-3.4C35.5,59.5,37,61,37,63z"/>
</g>
<g>
	<path class="st1" d="M61.8,81.2c-2.1,0-3.8-1.7-3.8-3.8V58.8c-0.2,0-0.4,0.1-0.6,0.1c-0.8,0-1.5-0.2-2.2-0.7c-1-0.7-1.6-1.8-1.6-3
		v-4.1c0-1.4,0.7-2.6,1.9-3.3c0.6-0.3,1.2-0.6,1.8-1c0.5-0.2,1-0.5,1.5-0.8c0.2-0.1,0.4-0.3,0.7-0.5c0.4-0.3,0.8-0.5,1.2-0.8
		c0.1,0,0.2-0.1,0.3-0.1c0.5-0.3,1.4-0.8,2.6-0.8h3.4c2.6,0,4.4,1.8,4.4,4.4v28.5c0,0.3,0,0.7-0.1,1c-0.1,2-1.8,3.5-3.7,3.5H61.8z"
		/>
	<path class="st2" d="M66.9,47.6c0.5,0,0.6,0.1,0.6,0.6c0,7,0,14.1,0,21.1c0,2.5,0,4.9,0,7.4c-0.1,0.2-0.1,0.4-0.1,0.8
		c-1.9,0-3.8,0-5.6,0c0-8,0-15.9,0-23.9c-1.5,0.5-2.9,1-4.4,1.5c0-1.4,0-2.8,0-4.1c1.1-0.6,2.2-1.1,3.4-1.8c0.6-0.4,1.2-0.9,1.9-1.2
		c0.2-0.1,0.6-0.4,0.9-0.4C64.7,47.6,65.8,47.6,66.9,47.6 M66.9,40.1h-3.4c-2.1,0-3.7,0.8-4.3,1.2l0.1,0c-0.2,0.1-0.3,0.2-0.5,0.3
		c-0.5,0.3-1,0.6-1.4,0.9c-0.1,0.1-0.3,0.2-0.4,0.3c-0.4,0.2-0.8,0.4-1.3,0.6c-0.6,0.3-1.3,0.6-2,1c-2.4,1.3-3.9,3.8-3.9,6.6v4.1
		c0,2.4,1.2,4.7,3.1,6.1c0.4,0.3,0.8,0.5,1.3,0.7v15.6c0,4.1,3.4,7.5,7.5,7.5h5.6c3.9,0,7-2.9,7.5-6.7c0.1-0.5,0.2-1.1,0.2-1.6v-7.4
		V48.2C75.1,43.6,71.6,40.1,66.9,40.1L66.9,40.1z"/>
</g>
</svg>
