<?xml version="1.0" encoding="utf-8"?>
<!-- Generator: Adobe Illustrator 24.0.3, SVG Export Plug-In . SVG Version: 6.00 Build 0)  -->
<svg version="1.1" id="Layer_1" xmlns="http://www.w3.org/2000/svg" xmlns:xlink="http://www.w3.org/1999/xlink" x="0px" y="0px"
	 viewBox="0 0 125 125" style="enable-background:new 0 0 125 125;" xml:space="preserve">
<style type="text/css">
	.st0{fill:#7C7C7C;}
	.st1{fill:#383838;}
	.st2{fill:#FFFFFF;}
</style>
<g>
	<path class="st0" d="M62.4,48.6c4.6,0,9.4,0,14,0c0.6,0,0.7,0,0.7,0.8c0,2.6,0,5.2,0,7.9c0,0.6,0,0.7-0.7,0.7c-9.4,0-18.6,0-28,0
		c-0.8,0-0.8,0-0.8-0.7c0-2.6,0-5.4,0-8c0-0.5,0.1-0.6,0.6-0.6C53,48.6,57.6,48.6,62.4,48.6z"/>
	<path class="st0" d="M62.4,76.5c-4.6,0-9.3,0-14,0c-0.8,0-0.8,0-0.8-0.8c0-2.6,0-5.4,0-8c0-0.5,0.1-0.6,0.6-0.6c9.4,0,18.8,0,28,0
		c0.6,0,0.8,0,0.8,0.7c0,2.6,0,5.2,0,7.9c0,0.8,0,0.8-0.8,0.8C71.6,76.5,67,76.5,62.4,76.5z"/>
	<path class="st0" d="M35.6,48.4c0.1,0.4,0.1,0.6,0.1,0.9c0,4.8,0,9.5,0,14.4c0,4.1,0,8.2,0,12.4c0,0.1,0,0.4,0,0.5
		c-0.1,0.1-0.2,0.1-0.4,0.1c-0.1,0-0.2-0.1-0.2-0.2C30.8,72,26.4,67.6,22,63.2c-0.5-0.5-0.5-0.6,0-1c4.4-4.4,8.8-8.8,13.3-13.2
		C35.1,48.6,35.4,48.5,35.6,48.4z"/>
	<path class="st0" d="M62.4,89.1c4.5,0,8.9,0,13.4,0c0.2,0,0.4,0.1,0.6,0.1c-0.1,0.1-0.1,0.4-0.2,0.5c-4.4,4.4-8.8,8.8-13.2,13.2
		c-0.5,0.5-0.5,0.5-1,0c-4.4-4.4-8.8-8.8-13.3-13.2c-0.1-0.1-0.1-0.1-0.2-0.2c-0.1-0.2-0.1-0.4,0.1-0.4c0.1,0,0.3,0,0.5,0
		C53.5,89.1,57.9,89.1,62.4,89.1z"/>
	<path class="st0" d="M62.4,35.9c-4.5,0-9,0-13.5,0c-0.2,0-0.4-0.1-0.6-0.1c0.1-0.1,0.1-0.4,0.2-0.5c4.4-4.4,8.8-8.8,13.3-13.3
		c0.5-0.5,0.5-0.5,1,0c4.4,4.4,8.7,8.8,13.1,13.1c0.1,0.1,0.2,0.2,0.2,0.2c0,0.1-0.1,0.4-0.1,0.4c-0.1,0.1-0.2,0-0.4,0
		C71.3,35.9,66.9,35.9,62.4,35.9z"/>
	<path class="st0" d="M89.1,48.4c0.2,0.2,0.5,0.4,0.6,0.5c4.4,4.4,8.8,8.8,13.2,13.2c0.5,0.5,0.5,0.5,0,1c-4.5,4.2-9,8.8-13.4,13.1
		c-0.1,0.1-0.4,0.2-0.5,0.2c0-0.2-0.1-0.4-0.1-0.6c0-9,0-18,0-26.9C89,48.9,89,48.6,89.1,48.4z"/>
</g>
<g>
	<g>
		<path class="st1" d="M68.9,81.7c-1.3,0-2.6-0.2-3.9-0.6c0,0-0.1,0-0.1,0c-3.7-1.2-6.2-4-7.2-8c-0.2-0.9-0.3-1.8-0.4-2.5
			c0-0.3,0-0.5-0.1-0.8c0-0.2,0-0.3,0-0.5V55.6c0-1.8,0.4-3.4,0.8-4.7c1.3-4.4,5-7.3,9.7-7.5c0.4,0,0.8-0.1,1.3-0.1
			c1.3,0,2.6,0.2,4,0.6c0.1,0,0.1,0,0.2,0c3.9,1.3,6.5,4.3,7.3,8.5c0.2,0.9,0.3,2,0.3,3.2v14.6c0,1.9-0.5,3.8-1.4,5.5
			c-1.2,2.4-3.8,5.4-9.1,5.9C69.7,81.7,69.3,81.7,68.9,81.7z"/>
		<path class="st2" d="M68.9,47.1c1,0,2,0.1,3,0.4c2.8,0.9,4.2,2.9,4.8,5.6c0.1,0.8,0.2,1.6,0.2,2.5c0,2.2,0,4.6,0,6.9
			c0,2.6,0,5.1,0,7.8c0,1.2-0.4,2.6-1,3.8c-1.2,2.5-3.4,3.6-6.1,3.9c-0.3,0-0.6,0-0.9,0c-0.9,0-1.9-0.1-2.8-0.4
			c-2.6-0.9-4.1-2.8-4.8-5.4c-0.2-0.9-0.2-1.9-0.4-2.9c0-4.5,0-9.1,0-13.6c0-1.2,0.2-2.4,0.6-3.6c0.9-3,3.2-4.8,6.4-4.9
			C68.3,47.1,68.6,47.1,68.9,47.1 M68.9,72.9c0.9,0,1.5-0.5,1.8-1.2s0.4-1.6,0.4-2.4c0-4.5,0-8.9,0-13.4c0-0.9-0.1-1.8-0.4-2.5
			c-0.2-0.9-0.9-1.2-1.9-1.2s-1.5,0.4-1.8,1.2c-0.1,0.6-0.2,1.2-0.4,1.9c0.1,2.4,0.1,4.8,0.1,7.1c0,2.2-0.1,4.5,0,6.6
			c0,0.9,0.1,1.8,0.4,2.6S68.1,72.9,68.9,72.9 M68.9,39.6c-0.5,0-1,0-1.5,0.1c-6.3,0.3-11.3,4.2-13.1,10.2c-0.4,1.5-0.9,3.4-0.9,5.8
			v13.6c0,0.3,0,0.6,0.1,0.9c0,0.2,0,0.4,0.1,0.7c0.1,0.8,0.2,1.9,0.5,3.2c1.3,5.2,4.7,9,9.6,10.6c0.1,0,0.1,0,0.2,0.1
			c1.6,0.5,3.3,0.7,5,0.7c0.5,0,1.1,0,1.6-0.1c5.4-0.5,9.7-3.3,12.1-7.8c1.2-2.2,1.9-4.8,1.9-7.2v-7.8v-6.9c0-1.4-0.2-2.7-0.4-3.7
			c0,0,0-0.1,0-0.1c-1-5.6-4.6-9.8-9.9-11.4c-0.1,0-0.2-0.1-0.3-0.1C72.2,39.8,70.6,39.6,68.9,39.6L68.9,39.6z"/>
	</g>
	<g>
		<path class="st1" d="M52.4,81c-2.1,0-3.8-1.7-3.8-3.8V58.6c-0.2,0-0.3,0-0.5,0c-0.8,0-1.5-0.2-2.2-0.7c-0.6-0.4-1-0.9-1.3-1.5
			c-0.3-0.5-0.5-1.2-0.5-1.8V51c0-1.7,1.1-2.7,1.5-3.2c0.2-0.2,0.5-0.4,0.8-0.6c0.5-0.3,1-0.6,1.6-0.9c0.9-0.5,1.8-1,2.7-1.6
			c0.5-0.4,1.7-1.2,3.5-1.2c0.2,0,0.4,0,0.6,0h3.2c2.1,0,3.8,1.7,3.8,3.8v29.8c0,2-1.5,3.6-3.5,3.7C56.3,81,54.3,81,52.4,81z"/>
		<path class="st2" d="M54.2,47.3c0.1,0,0.2,0,0.3,0c1.1,0,2.2,0,3.5,0c0,10,0,19.9,0,29.8c-1.9,0.1-3.8,0.1-5.6,0.1
			c0-8,0-15.9,0-23.9c-1.5,0.5-2.9,1-4.2,1.5c0-0.1-0.1-0.2-0.1-0.2c0-1.2,0-2.4,0-3.6c0-0.1,0.2-0.4,0.4-0.5c1.5-0.9,3-1.6,4.5-2.6
			C53.3,47.6,53.8,47.3,54.2,47.3 M54.2,39.8c-2,0-3.8,0.6-5.6,1.9c-0.7,0.5-1.5,0.9-2.4,1.4c-0.5,0.3-1.1,0.6-1.6,0.9
			c-0.6,0.3-1.1,0.7-1.5,1.2c-1.7,1.7-2.6,3.7-2.6,5.8v3.6c0,1.2,0.3,2.4,0.9,3.5c0.5,1.2,1.4,2.2,2.5,2.9c0.3,0.2,0.7,0.4,1.1,0.6
			v15.6c0,4.1,3.4,7.5,7.5,7.5c2,0,4,0,6.1-0.1c3.9-0.3,7-3.5,7-7.5V47.4c0-4.1-3.4-7.5-7.5-7.5H55C54.8,39.9,54.5,39.8,54.2,39.8
			L54.2,39.8z"/>
	</g>
	<path class="st1" d="M76.9,62.5c0,2.6,0,5.1,0,7.8c0,1.2-0.4,2.6-1,3.8c-1.2,2.5-3.4,3.6-6.1,3.9c-1.2,0.1-2.5,0-3.8-0.4
		c-2.6-0.9-4.1-2.8-4.8-5.4c-0.2-0.9-0.2-1.9-0.4-2.9c0-4.5,0-9.1,0-13.6c0-1.2,0.3-2.4,0.6-3.6c0.9-3,3.2-4.8,6.4-4.9
		c1.4-0.1,2.6,0,4,0.4c2.8,0.9,4.2,2.9,4.8,5.6c0.1,0.8,0.2,1.6,0.2,2.5C76.9,57.9,76.9,60.2,76.9,62.5L76.9,62.5z M66.8,62.4
		L66.8,62.4c0,2.2-0.1,4.5,0,6.6c0,0.9,0.1,1.8,0.4,2.6s0.9,1.2,1.7,1.2c0.9,0,1.5-0.5,1.8-1.2c0.3-0.8,0.4-1.6,0.4-2.4
		c0-4.5,0-8.9,0-13.4c0-0.9-0.1-1.8-0.4-2.5c-0.2-0.9-0.9-1.2-1.9-1.2c-1,0-1.5,0.4-1.8,1.2c-0.1,0.6-0.2,1.2-0.4,1.9
		C66.8,57.6,66.8,60,66.8,62.4z"/>
</g>
</svg>
