<?xml version="1.0" encoding="utf-8"?>
<!-- Generator: Adobe Illustrator 24.0.3, SVG Export Plug-In . SVG Version: 6.00 Build 0)  -->
<svg version="1.1" id="Layer_1" xmlns="http://www.w3.org/2000/svg" xmlns:xlink="http://www.w3.org/1999/xlink" x="0px" y="0px"
	 viewBox="0 0 125 125" style="enable-background:new 0 0 125 125;" xml:space="preserve">
<style type="text/css">
	.st0{fill:#7C7C7C;}
	.st1{fill:#383838;}
	.st2{fill:#FFFFFF;}
</style>
<g>
	<path class="st0" d="M61.2,62.5c0,12.9,0,25.7,0,38.6c0,0.2,0.1,0.5,0,0.6c-0.1,0.2-0.2,0.4-0.5,0.5c-0.1,0.1-0.2,0-0.4,0
		c-7.4,0-14.8,0-22.1,0c-0.9,0-1-0.1-1-1c0-25.9,0-51.8,0-77.6c0-0.9,0.1-1,1-1c7.4,0,14.8,0,22.1,0c0.9,0,0.9,0,0.9,0.9
		C61.2,36.7,61.2,49.5,61.2,62.5z M57.3,90.4c0-0.9,0-1.8,0-2.6c0-0.5-0.1-0.6-0.6-0.6c-1.6,0-3.1,0-4.7,0c-0.4,0-0.6,0.1-0.6,0.6
		c0,1.8,0,3.6,0,5.4c0,0.4,0.2,0.6,0.6,0.6c1.6,0,3.2,0,4.7,0c0.4,0,0.6-0.2,0.6-0.6C57.3,92.2,57.3,91.3,57.3,90.4z M47.1,90.4
		c0-0.9,0-1.8,0-2.7c0-0.4-0.1-0.6-0.6-0.6c-1.6,0-3.2,0-4.8,0c-0.4,0-0.6,0.2-0.6,0.6c0,1.8,0,3.5,0,5.4c0,0.4,0.3,0.6,0.6,0.6
		c1.6,0,3.2,0,4.8,0c0.4,0,0.6-0.2,0.6-0.6C47.1,92.3,47.1,91.4,47.1,90.4z M47.1,63.5c0-0.9,0-1.8,0-2.6c0-0.6-0.1-0.8-0.7-0.8
		c-1.5,0-3,0-4.6,0c-0.5,0-0.7,0.2-0.7,0.8c0,1.8,0,3.5,0,5.2c0,0.5,0.1,0.6,0.6,0.6c1.6,0,3.1,0,4.8,0c0.4,0,0.6-0.1,0.6-0.6
		C47.1,65.3,47.1,64.4,47.1,63.5z M57.3,63.5c0-0.9,0-1.8,0-2.6c0-0.5-0.1-0.8-0.6-0.8c-1.6,0-3.1,0-4.7,0c-0.5,0-0.6,0.2-0.6,0.6
		c0,1.8,0,3.5,0,5.2c0,0.4,0.1,0.6,0.6,0.6c1.6,0,3.1,0,4.7,0c0.4,0,0.6-0.1,0.6-0.6C57.3,65.3,57.3,64.4,57.3,63.5z M47.1,50
		c0-0.9,0-1.8,0-2.6c0-0.4-0.1-0.6-0.6-0.6c-1.6,0-3.1,0-4.8,0c-0.5,0-0.6,0.2-0.6,0.6c0,1.8,0,3.5,0,5.2c0,0.5,0.3,0.7,0.8,0.7
		c1.5,0,3.1,0,4.8,0c0.5,0,0.6-0.2,0.6-0.6C47.1,51.8,47.1,50.9,47.1,50z M57.3,50c0-0.9,0-1.8,0-2.7c0-0.4-0.1-0.6-0.6-0.6
		c-1.6,0-3.1,0-4.7,0c-0.4,0-0.6,0.2-0.6,0.6c0,1.8,0,3.6,0,5.4c0,0.4,0.2,0.6,0.6,0.6c1.6,0,3.1,0,4.7,0c0.4,0,0.6-0.1,0.6-0.6
		C57.3,51.8,57.3,50.9,57.3,50z M47.1,76.9c0-0.9,0-1.8,0-2.6c0-0.4-0.1-0.6-0.6-0.6c-1.6,0-3.2,0-4.8,0c-0.5,0-0.6,0.2-0.6,0.6
		c0,1.8,0,3.5,0,5.2c0,0.4,0.1,0.6,0.6,0.6c1.6,0,3.2,0,4.8,0c0.4,0,0.6-0.1,0.6-0.6C47.1,78.8,47.1,77.9,47.1,76.9z M47.1,36.5
		c0-0.9,0-1.8,0-2.6c0-0.5-0.1-0.7-0.6-0.7c-1.6,0-3.1,0-4.8,0c-0.5,0-0.6,0.1-0.6,0.6c0,1.8,0,3.5,0,5.2c0,0.4,0.1,0.6,0.6,0.6
		c1.6,0,3.2,0,4.8,0c0.5,0,0.6-0.2,0.6-0.6C47.1,38.3,47.1,37.4,47.1,36.5z M57.3,36.7c0-0.9,0-1.8,0-2.6c0-0.5-0.1-0.6-0.6-0.6
		c-1.6,0-3.1,0-4.7,0c-0.4,0-0.6,0.1-0.6,0.6c0,1.8,0,3.6,0,5.4c0,0.4,0.1,0.6,0.6,0.6c1.6,0,3.2,0,4.9,0c0.4,0,0.6-0.1,0.6-0.6
		C57.3,38.4,57.3,37.4,57.3,36.7z M57.3,76.9c0-0.9,0-1.8,0-2.6c0-0.4-0.1-0.6-0.6-0.6c-1.6,0-3.2,0-4.7,0c-0.5,0-0.6,0.2-0.6,0.6
		c0,1.8,0,3.5,0,5.2c0,0.4,0.1,0.6,0.6,0.6c1.6,0,3.2,0,4.7,0c0.4,0,0.6-0.1,0.6-0.6C57.3,78.8,57.3,77.9,57.3,76.9z"/>
	<path class="st0" d="M88.4,69.8c0,10.5,0,21,0,31.5c0,0.9-0.1,1-0.9,1c-7.4,0-14.8,0-22.1,0c-0.8,0-0.9-0.1-0.9-0.9
		c0-11.5,0-22.9,0-34.4c0-0.4,0.1-0.8,0.4-1.1c5.4-6.8,10.6-13.5,16-20.3c2-2.6,4.1-5.2,6.1-7.9c0.1-0.1,0.2-0.4,0.4-0.5
		c0.1-0.1,0.4-0.2,0.6-0.2c0.1,0,0.2,0.2,0.4,0.5c0.1,0.1,0,0.4,0,0.6C88.4,48.8,88.4,59.3,88.4,69.8z M75.4,64.5L75.4,64.5
		c0-1.5,0-3,0-4.5c0-0.4-0.1-0.8-0.5-0.9c-0.4-0.1-0.6,0.1-0.9,0.4c-2,2.6-4.1,5.1-6.2,7.7c-0.4,0.5-0.6,1.1-0.5,1.8
		c0,0.7,0.2,1,1,1c2,0,4,0,6,0c1,0,1.1-0.1,1.1-1.2C75.4,67.4,75.4,66,75.4,64.5z M81.8,62.2c1.1,0,2.1,0,3.1,0
		c0.6,0,0.9-0.2,0.9-0.9c0-1.2,0-2.5,0-3.9c0-0.5-0.2-0.9-0.8-0.9c-2.2,0-4.4,0-6.5,0c-0.6,0-0.8,0.2-0.8,0.9c0,1.2,0,2.6,0,3.9
		c0,0.6,0.2,0.9,0.9,0.9C79.7,62.2,80.8,62.2,81.8,62.2z M71.3,80.4c-1.1,0-2.1,0-3.2,0c-0.6,0-0.7,0.2-0.7,0.8c0,1.4,0,2.6,0,4
		c0,0.6,0.2,0.8,0.9,0.8c2.1,0,4.2,0,6.5,0c0.6,0,0.7-0.2,0.7-0.8c0-1.2,0-2.6,0-3.9c0-0.6-0.1-0.8-0.9-0.8
		C73.6,80.4,72.4,80.4,71.3,80.4z M81.8,70c1.1,0,2.1,0,3.2,0c0.6,0,0.9-0.2,0.9-0.9c0-1.2,0-2.5,0-3.8c0-0.6-0.2-0.8-0.9-0.8
		c-2.1,0-4.4,0-6.5,0c-0.6,0-0.8,0.1-0.8,0.8c0,1.2,0,2.5,0,3.9c0,0.6,0.2,0.9,0.9,0.9C79.7,70,80.8,70,81.8,70z M81.8,80.4
		c-1.1,0-2.1,0-3.2,0c-0.6,0-0.8,0.2-0.8,0.8c0,1.2,0,2.6,0,3.9c0,0.6,0.2,0.9,0.8,0.9c2.1,0,4.2,0,6.5,0c0.6,0,0.9-0.2,0.9-0.9
		c0-1.2,0-2.6,0-3.9c0-0.6-0.2-0.8-0.8-0.8C83.9,80.4,82.9,80.4,81.8,80.4z M71.4,93.8c1.1,0,2.1,0,3.1,0c0.6,0,0.9-0.2,0.9-0.9
		c0-1.2,0-2.5,0-3.8c0-0.8-0.1-0.9-0.9-0.9c-2.1,0-4.2,0-6.4,0c-0.6,0-0.9,0.2-0.9,0.9c0,1.2,0,2.5,0,3.8c0,0.6,0.2,0.9,0.9,0.9
		C69.2,93.8,70.3,93.8,71.4,93.8z M81.8,72.4c-1.1,0-2.1,0-3.2,0c-0.6,0-0.9,0.1-0.9,0.9c0,1.2,0,2.5,0,3.8c0,0.6,0.2,0.9,0.9,0.9
		c2.1,0,4.2,0,6.4,0c0.6,0,0.9-0.2,0.9-0.9c0-1.2,0-2.5,0-3.8c0-0.6-0.2-0.9-0.9-0.9C83.9,72.4,82.9,72.4,81.8,72.4z M81.8,88.3
		c-1.1,0-2.1,0-3.2,0c-0.6,0-0.9,0.2-0.9,0.7c0,1.2,0,2.6,0,3.9c0,0.6,0.2,0.8,0.9,0.8c2.1,0,4.2,0,6.4,0c0.6,0,0.9-0.2,0.9-0.9
		c0-1.2,0-2.5,0-3.8c0-0.6-0.2-0.9-0.9-0.9C83.9,88.3,82.9,88.3,81.8,88.3z M71.4,72.4c-1.1,0-2.3,0-3.2,0c-0.6,0-0.8,0.2-0.8,0.8
		c0,1.2,0,2.6,0,3.9c0,0.6,0.2,0.9,0.9,0.9c2.1,0,4.2,0,6.5,0c0.6,0,0.8-0.2,0.8-0.9c0-1.2,0-2.6,0-3.9c0-0.6-0.1-0.8-0.8-0.8
		C73.6,72.4,72.4,72.4,71.4,72.4z M85.9,49.9L85.9,49.9c0-1.1,0-2.3,0-3.4c0-0.4-0.1-0.8-0.5-0.9c-0.2,0-0.6,0.1-0.9,0.4
		c-1.9,2.3-3.8,4.5-5.5,6.9c-0.1,0.2-0.2,0.6-0.1,0.9c0.1,0.4,0.5,0.4,0.8,0.4c1.8,0,3.4,0,5.1,0c0.9,0,1.1-0.2,1.1-1.1
		C85.9,51.9,85.9,50.9,85.9,49.9z"/>
	<path class="st0" d="M91.3,90c0-3.9,0-7.6,0-11.5c0-0.8,0.1-0.9,0.9-0.9c7.6,0,15.1,0,22.8,0c0.8,0,0.9,0.1,0.9,0.9
		c0,7.6,0,15.2,0,22.9c0,0.7-0.1,0.9-0.9,0.9c-7.6,0-15.1,0-22.7,0c-0.8,0-0.9-0.1-0.9-0.9C91.3,97.8,91.3,93.9,91.3,90z
		 M109.1,80.4c-1.1,0-2.3,0-3.2,0c-0.8,0-0.9,0.2-0.9,1c0,1.2,0,2.4,0,3.6c0,0.6,0.2,0.9,0.9,1c2.3,0,4.4,0,6.5,0
		c0.6,0,0.9-0.2,0.9-0.9c0-1.2,0-2.5,0-3.8c0-0.8-0.2-0.9-0.9-0.9C111.2,80.4,110.2,80.4,109.1,80.4z M98.3,80.4L98.3,80.4
		c-1.1,0-2.3,0-3.2,0c-0.6,0-0.9,0.2-0.9,0.9c0,1.2,0,2.5,0,3.8c0,0.6,0.2,0.9,0.9,0.9c2.3,0,4.4,0,6.6,0c0.6,0,0.9-0.2,0.9-0.9
		c0-1.2,0-2.5,0-3.8c0-0.8-0.2-1-1-1C100.4,80.4,99.4,80.4,98.3,80.4z M98.3,93.8c1.1,0,2.2,0,3.2,0c0.6,0,0.9-0.2,0.9-0.9
		c0-1.2,0-2.5,0-3.8c0-0.6-0.2-0.9-0.9-0.9c-2.1,0-4.4,0-6.5,0c-0.6,0-0.9,0.2-0.9,0.9c0,1.2,0,2.5,0,3.8c0,0.6,0.2,0.9,0.9,0.9
		C96.2,93.8,97.3,93.8,98.3,93.8z M109.1,93.8c1.1,0,2.2,0,3.4,0c0.6,0,0.9-0.2,0.9-0.9c0-1.2,0-2.5,0-3.8c0-0.6-0.2-0.9-0.9-0.9
		c-2.2,0-4.4,0-6.6,0c-0.6,0-0.9,0.2-0.9,0.9c0,1.2,0,2.5,0,3.8c0,0.6,0.2,0.9,0.9,0.9C106.9,93.8,107.9,93.8,109.1,93.8z"/>
	<path class="st0" d="M21.4,82.7c3.9,0,7.6,0,11.5,0c0.8,0,0.9,0.1,0.9,0.9c0,6,0,11.9,0,17.9c0,0.7-0.1,0.9-0.9,0.9
		c-2.2,0-4.5,0-6.8,0c-0.5,0-0.6-0.1-0.6-0.6c0-3.5,0-7,0-10.6c0-0.9-0.1-1.1-1.1-1.1c-2.1,0-4.2,0-6.2,0c-0.8,0-1,0.2-1,1
		c0,3.5,0,7.1,0,10.6c0,0.5-0.1,0.6-0.6,0.6c-2.2,0-4.4,0-6.5,0c-0.8,0-0.9-0.1-0.9-0.9c0-6,0-11.9,0-17.9c0-0.7,0.1-0.9,0.9-0.9
		C13.7,82.7,17.6,82.7,21.4,82.7z"/>
	<path class="st0" d="M21.6,80.4c-3.8,0-7.5,0-11.2,0c-0.1,0-0.2,0-0.4,0c-0.3-0.1-0.5-0.1-0.6-0.4c-0.1-0.1,0-0.5,0.1-0.6
		c1.1-1.5,2.2-3,3.4-4.4c2.6-3.5,5.4-7,8-10.5c0.6-0.7,0.8-0.7,1.4,0c3.9,5,7.6,9.9,11.5,14.9c0.1,0.2,0.2,0.6,0.1,0.7
		c-0.1,0.2-0.5,0.4-0.7,0.4C29.2,80.4,25.3,80.4,21.6,80.4z"/>
	<path class="st0" d="M103.6,75.7c-3.8,0-7.6,0-11.4,0c-0.9,0-0.9,0-0.9-0.9c0-1.2,0-2.6,0-3.9c0-0.7,0.1-0.7,0.8-0.7
		c5.6,0,11.1,0,16.8,0c2,0,4,0,6.1,0c0.6,0,0.7,0.1,0.7,0.7c0,1.4,0,2.8,0,4c0,0.6-0.1,0.8-0.7,0.8
		C111.2,75.7,107.3,75.7,103.6,75.7z"/>
</g>
<g>
	<g>
		<path class="st1" d="M68.6,81.2c-2.6,0-4.4-1.8-4.4-4.4V58.7c-0.1,0-0.2,0-0.4,0c-0.8,0-1.5-0.2-2.2-0.7c-1-0.7-1.6-1.8-1.6-3.1
			v-3.6c0-1.8,0.9-3.2,2.4-4c0.1,0,0.1-0.1,0.2-0.1c1.3-0.6,2.8-1.3,3.8-2.2c1.2-1.1,2.6-1.1,3.2-1.1H73c2.6,0,4.4,1.8,4.4,4.4v28.6
			c0,2.5-1.8,4.2-4.2,4.2H68.6z"/>
		<path class="st2" d="M73,47.7c0.5,0,0.6,0.1,0.6,0.6c0,8.6,0,17.1,0,25.8c0,0.9,0,1.9,0,2.9c0,0.4-0.1,0.5-0.5,0.5
			c-1.5,0-3,0-4.5,0c-0.5,0-0.6-0.1-0.6-0.6c0-7.5,0-14.9,0-22.4c0.1-0.4,0.1-0.6,0.1-1c-1.5,0.5-2.9,1-4.2,1.5c0-0.6,0-1.1,0-1.6
			c0-0.6,0-1.4,0-2c0-0.4,0.1-0.5,0.4-0.6c1.8-0.8,3.5-1.6,4.9-2.9c0.1-0.1,0.4-0.1,0.6-0.1C70.9,47.7,72,47.7,73,47.7 M73,40.2
			h-3.2c-2.3,0-4.2,0.7-5.7,2.1c-0.7,0.6-2.2,1.3-2.7,1.5c-0.1,0.1-0.3,0.1-0.4,0.2c-2.8,1.4-4.5,4.2-4.5,7.3v2v1.6
			c0,2.4,1.2,4.7,3.2,6.1c0.3,0.2,0.6,0.4,0.9,0.6v15.2c0,4.6,3.5,8.1,8.1,8.1h4.5c4.5,0,8-3.5,8-8v-2.9V48.3
			C81.1,43.7,77.6,40.2,73,40.2L73,40.2z"/>
	</g>
	<g>
		<path class="st1" d="M60.9,81c-0.2,0-0.4,0-0.6,0h-4c-2.6,0-4.4-1.8-4.4-4.4V58.7c-0.2,0-0.3,0-0.5,0c-0.8,0-1.5-0.2-2.2-0.7
			c-1-0.7-1.6-1.8-1.6-3.1c0-0.4,0-0.7,0-1.1c0-0.3,0-0.6,0-0.7c0-0.1,0-0.2,0-0.2c-0.3-2.9,1-5.1,3.7-6.2c1-0.5,2-1.2,3.1-1.9
			c0.8-0.6,1.9-1,2.9-1h3.4c2.5,0,4.3,1.8,4.3,4.2v28.6C65,79.5,63,81,60.9,81z"/>
		<path class="st2" d="M60.8,47.6c0.4,0,0.5,0.1,0.5,0.5c0,9.5,0,19.1,0,28.6c0,0.4-0.1,0.5-0.3,0.5c-0.1,0-0.2,0-0.3,0
			c-1.4,0-2.9,0-4.4,0c-0.5,0-0.6-0.1-0.6-0.6c0-7.5,0-15,0-22.5c0-0.1,0-0.2,0-0.6c-1.5,0.5-2.9,1-4.2,1.5c0-0.9,0.1-1.6,0-2.4
			c-0.1-1.2,0.2-1.9,1.5-2.4c1.4-0.6,2.6-1.5,3.9-2.4c0.1-0.1,0.4-0.2,0.6-0.2C58.5,47.6,59.6,47.6,60.8,47.6 M60.8,40.1h-3.4
			c-1.9,0-3.7,0.6-5.2,1.8c-0.9,0.6-1.7,1.2-2.4,1.5c-4.2,1.8-6.4,5.5-5.9,10c0,0,0,0.1,0,0.1c0,0.1,0,0.2,0,0.2c0,0.4,0,0.8,0,1.3
			c0,2.4,1.2,4.7,3.2,6.1c0.3,0.2,0.7,0.4,1.1,0.6v14.9c0,4.6,3.5,8.1,8.1,8.1h3.8c0.3,0,0.6,0,0.9,0c4.4,0,7.8-3.5,7.8-8V48.1
			C68.8,43.6,65.2,40.1,60.8,40.1L60.8,40.1z"/>
	</g>
	<path class="st1" d="M68.1,53.4c-1.5,0.5-2.9,1-4.2,1.5c0-0.6,0-1.1,0-1.6c0-0.6,0-1.4,0-2c0-0.4,0.1-0.5,0.4-0.6
		c1.8-0.8,3.5-1.6,4.9-2.9c0.1-0.1,0.4-0.1,0.6-0.1c1.1,0,2.2,0,3.2,0c0.5,0,0.6,0.1,0.6,0.6c0,8.6,0,17.1,0,25.8c0,0.9,0,1.9,0,2.9
		c0,0.4-0.1,0.5-0.5,0.5c-1.5,0-3,0-4.5,0c-0.5,0-0.6-0.1-0.6-0.6c0-7.5,0-14.9,0-22.4C68.1,54.1,68.1,53.8,68.1,53.4z"/>
</g>
</svg>
