<?xml version="1.0" encoding="utf-8"?>
<!-- Generator: Adobe Illustrator 24.0.3, SVG Export Plug-In . SVG Version: 6.00 Build 0)  -->
<svg version="1.1" id="Layer_1" xmlns="http://www.w3.org/2000/svg" xmlns:xlink="http://www.w3.org/1999/xlink" x="0px" y="0px"
	 viewBox="0 0 125 125" style="enable-background:new 0 0 125 125;" xml:space="preserve">
<style type="text/css">
	.st0{fill:#7C7C7C;}
	.st1{fill:#383838;}
	.st2{fill:#FFFFFF;}
</style>
<path class="st0" d="M45.8,77.5c-0.6-0.6-1.2-1.1-1.8-1.6c-0.5-0.4-1-0.9-1.4-1.2c-0.2-0.2-0.4-0.5-0.2-0.8c0-0.1,0.2-0.4,0.5-0.4
	c3.9-1.1,7.8-2.3,11.8-3.2c0.8-0.2,1.5-0.4,2.2-0.6c0.9-0.2,1.1,0,1,0.9c-0.2,1.4-0.4,2.8-0.6,4c-0.5,2.9-0.9,5.8-1.4,8.6
	c-0.1,0.6-0.2,1.2-0.2,1.8c-0.1,0.6-0.4,0.8-0.9,0.2c-1-0.9-1.9-1.8-2.9-2.6c-0.3-0.2-0.5-0.2-0.9,0c-2.9,2.1-6,3.6-9.6,4.1
	c-8.6,1.4-16.2-0.8-22.2-7.4c-2.9-3.1-4.8-6.9-5.3-11.2c-0.2-2.1-0.4-4.2-0.4-6.4c0.1-4.6,1-9,3.4-13c3-5.1,7.5-8.2,13.1-9.9
	c1.9-0.5,3.9-0.9,5.9-1c8-0.4,14.5,2.6,19.9,8.3c3.9,4.1,6.9,8.9,9.5,13.9c1.5,2.9,2.9,5.9,4.8,8.5c2.4,3.5,5.1,6.5,8.9,8.6
	c2.8,1.5,5.5,2.8,8.6,3.1c6.8,0.8,13.9-2.4,16.2-10.4c0.8-2.8,1.1-5.5,0.9-8.4c-0.1-2.7-0.6-5.5-1.9-8c-2-4.2-5.4-6.6-9.8-7.9
	c-2.2-0.6-4.5-1-6.8-0.7c-2.6,0.4-5.1,1.1-7.5,2.6c-3,1.9-5.4,4.4-7.6,7.1c-0.4,0.5-0.7,1-1.1,1.5s-0.8,0.5-1.1-0.1
	c-1-1.8-2-3.6-3.1-5.4c-0.1-0.2-0.1-0.6,0-0.9c3.2-4.1,7-7.6,11.9-9.8c2.4-1,4.9-1.8,7.4-2.1c4.4-0.5,8.6,0.3,12.6,1.9
	c7.2,3,11.5,8.5,13.1,16.1c0.4,1.8,0.5,3.6,0.6,5.5c0.2,4.4-0.2,8.6-2,12.8c-3,7.1-8.4,11.5-16,13c-4.5,0.9-8.9,0.2-13.1-1.2
	c-4.5-1.6-8.4-4.1-11.8-7.6c-2.6-2.6-4.9-5.6-6.6-8.9c-1.5-2.6-2.9-5.4-4.4-8.1c-2-3.6-4.4-7.1-7.1-10.1c-3-3.2-6.6-5.2-11-6
	c-2.4-0.4-4.6-0.2-6.9,0.4c-3.4,0.7-6.2,2.4-8.5,5c-1.7,2.1-2.8,4.6-3.2,7.4c-0.4,2-0.5,4.1-0.4,6.4c0.1,3.6,1.1,7,3.5,9.9
	c2.3,2.8,5.1,4.5,8.5,5.2c4.5,1,8.9,0.8,12.9-1.8C45.4,77.8,45.5,77.6,45.8,77.5z"/>
<g>
	<g>
		<path class="st1" d="M61.7,81.1c-2.5,0-4.2-1.8-4.2-4.2v-3.1c0-0.9,0.3-2.1,1-3c2-2.9,3.9-6,5.8-9c0-0.1,0.1-0.1,0.1-0.2h-2.7
			c-2.8,0-4.2-2.1-4.2-4.1c0-2.5,0.1-5.3,1.5-8.1c1.7-3.4,4.6-5.3,8.7-5.7c0.7,0,1.3-0.1,1.8-0.1c1.2,0,2.9,0.1,4.8,0.8
			c3.3,1.4,5.5,4,6.3,7.7c0.8,4-0.1,7.9-2.5,11.7c0,0,0,0.1-0.1,0.1c-1.2,1.7-2.4,3.5-3.7,5.4h1.5c2.6,0,4.4,1.8,4.4,4.4v3.1
			c0,2.5-1.8,4.2-4.2,4.2H61.7z"/>
		<path class="st2" d="M69.4,47.4c1.2,0,2.3,0.1,3.4,0.5c2.2,0.9,3.5,2.6,4,5c0.6,3.2-0.2,6.1-2,8.9c-2.4,3.5-4.8,7.1-7.1,10.6
			c-0.1,0.2-0.1,0.5-0.3,0.7c0.4,0,0.5,0,0.8,0c2.5,0,5,0,7.5,0c0.5,0,0.6,0.1,0.6,0.6c0,1.1,0,2.1,0,3.1c0,0.4-0.1,0.5-0.5,0.5
			c-4.7,0-9.5,0-14.1,0c-0.4,0-0.5-0.1-0.5-0.5c0-1,0-2,0-3.1c0-0.2,0.1-0.6,0.3-0.8c2.8-4.2,5.5-8.5,8.2-12.7
			c0.9-1.4,1.6-2.6,1.8-4.2c0.1-0.9,0-1.8-0.1-2.5c-0.2-1-0.9-1.5-1.7-1.5c-0.1,0-0.2,0-0.3,0c-1,0-1.8,0.5-2.1,1.2
			c-0.5,1-0.6,2.2-0.6,3.4c0,1.2,0,1.2-1.2,1.2c-1.2,0-2.5,0-3.8,0c-0.3,0-0.5,0-0.5-0.4c0-2.2,0.1-4.4,1.1-6.4
			c1.2-2.4,3.1-3.4,5.6-3.6C68.4,47.5,68.9,47.4,69.4,47.4 M69.4,39.9c-0.6,0-1.2,0-1.9,0.1c-0.1,0-0.1,0-0.2,0
			c-6.8,0.5-10.1,4.5-11.7,7.7c-1.7,3.3-1.9,6.7-1.9,9.8c0,3.2,1.7,5.8,4.3,7.1c-0.9,1.4-1.8,2.7-2.6,4c-1.1,1.5-1.7,3.3-1.7,5.2
			v3.1c0,4.6,3.4,8,8,8h14.1c4.6,0,8-3.4,8-8v-3.1c0-2.9-1.3-5.3-3.5-6.7c0.2-0.3,0.4-0.6,0.6-0.9c0-0.1,0.1-0.1,0.1-0.2
			c3-4.6,4-9.4,3.1-14.3c0,0,0-0.1,0-0.1c-1-4.9-4-8.6-8.5-10.4c0,0,0,0-0.1,0C73.2,40.1,70.9,39.9,69.4,39.9L69.4,39.9z"/>
	</g>
	<g>
		<path class="st1" d="M57.6,81.3c-0.2,0-0.5,0-0.7-0.1H53c-2.6,0-4.4-1.8-4.4-4.3v-18c-0.2,0-0.4,0.1-0.6,0.1
			c-0.8,0-1.5-0.2-2.2-0.7c-1-0.7-1.6-1.8-1.6-3.1v-3.5c0-2.7,1.8-3.7,2.4-4.1c0.1,0,0.1-0.1,0.2-0.1l0.6-0.3
			c1.2-0.6,2.2-1.2,3.2-1.9c1.1-0.8,2.3-1.3,3.5-1.3c0.2,0,0.4,0,0.5,0h2.6c2.6,0,4.4,1.8,4.4,4.4v28.5
			C61.7,79.8,59.6,81.3,57.6,81.3z"/>
		<path class="st2" d="M54.2,47.8c0.1,0,0.2,0,0.3,0c0.9,0,1.9,0,2.8,0c0.5,0,0.6,0.1,0.6,0.6c0,6.1,0,12.4,0,18.5c0,3.4,0,6.6,0,10
			c0,0.4-0.1,0.7-0.3,0.7c-0.1,0-0.2,0-0.3-0.1c-1.4,0-2.9,0-4.3,0c-0.5,0-0.6-0.1-0.6-0.6c0-7.5,0-15,0-22.5
			c-0.1,0-0.1-0.3-0.1-0.7c-1.5,0.5-2.9,1-4.3,1.5c0-0.5,0-0.9,0-1.4c0-0.8,0-1.4,0-2.1c0-0.5,0.1-0.6,0.6-0.9
			c1.5-0.8,2.9-1.5,4.3-2.5C53.3,48,53.7,47.8,54.2,47.8 M54.2,40.3c-1.4,0-3.6,0.4-5.8,2c-0.8,0.5-1.6,1-2.7,1.6l-0.6,0.3
			c-0.1,0.1-0.2,0.1-0.3,0.2c-3.5,2.1-4.2,5.1-4.2,7.3v2.1v1.4c0,2.4,1.2,4.7,3.2,6.1c0.4,0.3,0.8,0.5,1.2,0.7v14.9
			c0,4.6,3.5,8.1,8.1,8.1h3.6c0.3,0,0.7,0.1,1,0.1c5.1,0,7.8-4.2,7.8-8.2v-10V48.4c0-4.6-3.5-8.1-8.1-8.1h-2.4
			C54.7,40.3,54.4,40.3,54.2,40.3L54.2,40.3z"/>
	</g>
	<g>
		<path class="st1" d="M67.4,73.2c0.4,0,0.5,0,0.8,0c2.5,0,5,0,7.5,0c0.5,0,0.6,0.1,0.6,0.6c0,1.1,0,2.1,0,3.1
			c0,0.4-0.1,0.5-0.5,0.5c-4.7,0-9.5,0-14.1,0c-0.4,0-0.5-0.1-0.5-0.5c0-1,0-2,0-3.1c0-0.2,0.1-0.6,0.3-0.8
			c2.8-4.2,5.5-8.5,8.2-12.7c0.9-1.4,1.6-2.6,1.8-4.2c0.1-0.9,0-1.8-0.1-2.5c-0.2-1-0.9-1.5-1.7-1.5c-1.1-0.1-2,0.4-2.4,1.2
			c-0.5,1-0.6,2.2-0.6,3.4s0,1.2-1.2,1.2c-1.2,0-2.5,0-3.8,0c-0.3,0-0.5,0-0.5-0.4c0-2.2,0.1-4.4,1.1-6.4c1.2-2.4,3.1-3.4,5.6-3.6
			c1.8-0.1,3.4-0.1,4.9,0.5c2.2,0.9,3.5,2.6,4,5c0.6,3.2-0.2,6.1-2,8.9c-2.4,3.5-4.8,7.1-7.1,10.6C67.6,72.7,67.6,73,67.4,73.2z"/>
	</g>
</g>
</svg>
