<?xml version="1.0" encoding="utf-8"?>
<!-- Generator: Adobe Illustrator 24.0.3, SVG Export Plug-In . SVG Version: 6.00 Build 0)  -->
<svg version="1.1" id="Layer_1" xmlns="http://www.w3.org/2000/svg" xmlns:xlink="http://www.w3.org/1999/xlink" x="0px" y="0px"
	 viewBox="0 0 125 125" style="enable-background:new 0 0 125 125;" xml:space="preserve">
<style type="text/css">
	.st0{fill:#7C7C7C;}
	.st1{fill:#383838;}
	.st2{fill:#FFFFFF;}
</style>
<g>
	<path class="st0" d="M10.1,62.5c10.4-14.5,29.4-26.9,53.2-26.7c24,0.2,42.2,13.4,51.6,26.8C90.1,97.4,36.4,98.8,10.1,62.5z
		 M55.9,61.3c0.1,0,0.1,0,0.2,0c0.1,0.1,0.2,0.2,0.5,0.3c0.6,0.7,1.2,1.3,1.8,2c0.3,0.3,0.8,0.8,1.3,0.7c0.9-0.1,1.7-0.6,2.2-1.3
		c0.3-0.5,0.3-0.9-0.1-1.3c-0.2-0.3-0.6-0.6-0.8-0.8c-0.8-0.8-1.6-1.6-2.4-2.4c-0.1-0.1-0.1-0.5-0.1-0.6c0.2,0,0.5,0,0.6,0.1
		c0.1,0,0.1,0.1,0.2,0.1c0.9,0.6,1.7,1,2.6,1.6c0.5,0.2,0.8,0.7,0.9,1.2c0.2,1.1,0.8,1.7,1.9,2c0.1,0,0.2,0.1,0.3,0.1
		c1.3,0.3,2.7,0.9,3.7,2c0.2,0.3,0.6,0.3,0.9,0c0.6-0.8,1.2-1.7,0.9-2.8c-0.1-0.3,0-0.7,0.3-0.9c0.8-0.5,1.6-0.2,1.9,0.7
		c0.3,1,0.8,1.9,1.1,2.9c0.7,1.7,2,2.5,3.5,3.4c0.1,0.1,0.4,0,0.6-0.1c0.1-0.1,0.1-0.3,0.1-0.6c-0.2-0.5-0.5-1-0.7-1.3
		c-0.7-1-0.6-2,0.1-3c0.2-0.3,0.6-0.6,0.9-0.7c0.7-0.2,1.3-0.6,2-0.9c0.7-0.3,0.7-0.7,0.3-1.3c-0.3-0.6-0.5-1-0.3-1.6
		c0-0.5,0.3-0.6,0.7-0.3c0.2,0.1,0.3,0.3,0.6,0.6c0.7,0.8,1.9,0.8,2.4-0.1c0.2-0.5,0.3-1.1,0.2-1.6c-1-4.2-3.2-7.8-6.3-10.7
		c-4.8-4.4-10.5-6.3-17-5.7c-3.3,0.3-6.3,1.4-9.1,3c-0.1,0.1-0.2,0.1-0.3,0.2c0.3,0.1,0.6,0.1,0.8,0c1.4-0.1,2.6-0.2,3.9-0.2
		c0.6,0,1.1,0.1,1.6,0.3c0.6,0.2,0.7,0.6,0.6,1.1c-0.1,0.6,0,1,0.5,1.5c0.3,0.3,0.8,0.6,1.1,0.9c0.3,0.3,0.3,0.6-0.1,0.8
		c-0.9,0.6-1.7,1-2.6,1.5c-0.2,0.1-0.6,0.2-0.9,0.3c-0.2,0-0.3-0.1-0.6-0.2c0.1-0.1,0.1-0.3,0.2-0.5c0.3-0.2,0.7-0.5,1-0.7
		c0.3-0.2,0.7-0.3,1-0.6c0.3-0.2,0.3-0.5-0.1-0.6c-0.5-0.1-0.9-0.2-1.4-0.1c-1.7,0.5-3.4,0.7-5.2,0.8c-1,0.1-1.9,0.5-2.6,1.1
		c-0.7,0.6-0.7,1.1,0.1,1.6c0.8,0.3,1.6,0.7,2.5,0.9c0.6,0.2,1-0.1,1.5-0.5c0.2-0.2,0.6-0.6,0.8-0.8c0.6-0.6,1.1-0.6,1.6,0.1
		c-0.2,0.2-0.6,0.3-0.8,0.6c-0.2,0.2-0.6,0.5-0.8,0.7c-0.7,0.8-1.3,0.9-2.2,0.6c-1.3-0.5-2.6-0.5-3.8,0.3c-0.3,0.2-0.8,0.5-1.1,0.7
		c-0.3,0.2-0.7,0.3-0.5,0.9c0.1,0.3,0,0.7-0.3,0.8c-0.2,0.1-0.7,0.2-0.9,0.1c-0.6-0.2-1.1-0.2-1.7-0.1c-1,0.2-1.1,0.8-1,1.7
		c0.2,0.7,0.7,0.9,1.2,0.6c0.3-0.1,0.7-0.3,1-0.3c1.1-0.2,2.1-0.5,3-1.2c0.2-0.2,0.7-0.2,0.9,0c0.2,0.2,0.3,0.5,0.6,0.7
		c0.3,0.6,0.6,1,0.9,1.6c0.1,0.2,0.3,0.2,0.5,0.5c0.1,0,0.1-0.1,0.2-0.1c-0.1-0.3-0.1-0.6-0.2-0.9c-0.1-0.3-0.1-0.6-0.2-0.9
		c0.1,0,0.1-0.1,0.2-0.1c0.3,0.3,0.6,0.7,0.9,1c0.2,0.3,0.5,0.5,0.8,0.2c0.5-0.2,0.9-0.2,1.1,0.1c0.2,0.3,0.2,0.9,0,1.2
		c-0.7,0.7-1.3,1-2.2,0.8c-0.8-0.2-1.7-0.6-2.5-0.8c-1.4-0.5-2.7-0.8-4-1.1c-0.7-0.1-1.2,0.1-1.7,0.6c-0.3,0.3-0.7,0.9-0.9,1.3
		c-0.1,0.2-0.2,0.3-0.3,0.6c-0.3,3.5,0.2,6.9,1.5,10c0.2,0.6,0.9,0.9,1.6,0.6c0.5-0.2,1-0.6,1.5-0.8c0.6-0.3,0.8-0.2,1.2,0.2
		c0.1,0.1,0.2,0.2,0.3,0.3c0.5,0.2,0.8,0.7,0.8,1.2s0.1,0.6,0.7,0.3c0.5-0.1,0.7,0,0.8,0.4c0.1,0.5,0.1,0.8,0.2,1.2
		c0.1,0.4,0.2,0.9,0.8,0.9c0,0.3,0,0.6,0,0.8c0.1,0.9,0.2,1.8,0.5,2.6c0.1,0.3,0.3,0.7,0.8,0.7c1.1,0,2.2-0.3,3-1.2
		c0.7-0.7,1-1.6,1.2-2.6c0.1-0.6,0.3-1.1,0.9-1.3c0.1,0,0.2-0.1,0.2-0.2c0.2-1,0.8-1.8,0.6-2.8c-0.2-1.2,0.3-2.1,1.2-2.8
		c0.1-0.1,0.2-0.2,0.3-0.3c0.7-0.7,0.9-1.6-0.2-2.1c-0.2-0.1-0.3-0.2-0.5-0.2c-1.3-0.8-2-1.9-2.4-3.4C55.8,61.9,55.9,61.6,55.9,61.3
		z M75.4,77.1c0,0.2,0,0.2,0,0.3c0,0.2,0.1,0.5,0.1,0.7c0.2-0.1,0.3-0.1,0.6-0.2c0.2,0,0.6-0.1,0.8-0.1c0.2,0,0.5,0.1,0.6,0.2
		c0.2,0.1,0.5,0.1,0.7-0.1c1.8-1.9,3.3-4.1,4.4-6.5c0.5-0.9,0.3-1.7-0.1-2.6c-0.3-0.7-0.5-0.8-1.1-0.3c-1,0.8-2.2,1.1-3.5,1.5
		c-1,0.2-2.1,0.6-3.2,0.8c-1.7,0.6-2.9,2.7-2.5,4.4c0.2,0.7,0.4,1.3,0.7,2.1c0.2,0.9,0.6,1,1.2,0.6C74.7,77.6,75,77.4,75.4,77.1z
		 M75.8,80.2c0-0.1,0-0.1,0-0.2c-1.3-0.7-2.7-0.7-3.9,0.1c-0.7,0.3-1.3,0.9-1.9,1.5c-0.3,0.3-0.8,0.5-1.2,0.2
		c-1.3-0.5-2.6-0.9-3.9-1.2c-1.8-0.6-3.6-0.9-5.5-0.3c-1.2,0.3-2.4,1-3,2.2c-0.3,0.7-0.1,1.1,0.7,1.3c2.6,0.7,5.3,0.9,7.9,0.7
		c3.3-0.3,6.2-1.2,9-2.9C74.3,81.1,75.1,80.7,75.8,80.2z M82.4,59.9c0.1,0.3,0.2,0.6,0.3,0.7c0.2,0.3,0.2,0.7-0.1,1
		c-0.2,0.3-0.5,0.7-0.5,1.1c-0.3,1.7,0.5,3,1.5,4.3c0.1,0.1,0.1,0.1,0.3,0.1c0.3-1.9,0.7-3.8,0.3-5.7c0-0.3-0.3-0.8-0.6-1
		C83.4,60,83,59.9,82.4,59.9z M42.1,54.5c0,0.1,0.1,0.1,0.1,0.2c0.2,0,0.3,0,0.6,0c0.2-0.1,0.6-0.2,0.8-0.5c1-0.9,1.9-2,3.1-2.6l0,0
		c0.3-0.3,0.3-0.6-0.1-0.8c-0.7-0.5-2.4-0.2-2.8,0.6C43.3,52.2,42.8,53.3,42.1,54.5z M57.5,73C57.5,73,57.7,73,57.5,73
		c0.1,0.2,0.1,0.3,0.1,0.6c0,0.1,0.1,0.2,0.2,0.4c0.1-0.1,0.3-0.2,0.3-0.3c0.2-0.3,0.3-0.7,0.5-1.1c0.3-1,0.8-2,1.1-3
		c0.1-0.2,0.1-0.3,0.1-0.6c0-0.6-0.3-0.8-0.8-0.6c-0.6,0.2-1,0.7-1.1,1.2C57.9,70.8,57.8,71.9,57.5,73z M45.9,49.7
		c0.5-0.2,1-0.5,1.5-0.7c0.7-0.3,0.8-0.9,0.9-1.6c0-0.3-0.1-0.7-0.5-0.7c-0.6-0.1-1.1,0-1.5,0.5c-0.5,0.6-0.8,1-1.2,1.6
		c-0.2,0.2-0.1,0.5,0.1,0.7C45.4,49.6,45.6,49.6,45.9,49.7z M79.7,68.4c0.2-0.1,0.7-0.2,0.8-0.6c0.1-0.1-0.2-0.6-0.3-0.8
		c-0.1-0.1-0.3-0.2-0.5-0.3c-0.6-0.2-0.9-0.1-1.2,0.2c-0.3,0.3-0.2,0.7,0.1,0.9C78.9,68.1,79.3,68.2,79.7,68.4z M67.7,66.3
		c0.2-0.1,0.6-0.3,0.9-0.5c-0.1-0.3-0.3-0.6-0.5-0.8c-0.1-0.1-0.2-0.2-0.3-0.2c-0.6-0.2-1-0.2-1.3,0.3c-0.2,0.3-0.2,0.7,0.1,0.8
		S67.2,66.2,67.7,66.3z M78.6,66.1c0.6,0,0.9-0.2,0.7-0.6c-0.3-0.5-0.7-0.8-1-1.1c-0.3-0.2-0.7,0.1-0.7,0.4
		C77.5,65.6,77.9,66.1,78.6,66.1z"/>
</g>
<g>
	<g>
		<path class="st1" d="M69.2,81.6c-1,0-2-0.1-2.9-0.2c-0.1,0-0.1,0-0.2,0c-3.6-0.6-6.4-2.9-7.8-6.5c0,0,0-0.1,0-0.1
			c-0.9-2.4-1-4.8-1-6.9c0-2.1,1.7-3.8,3.8-3.8h2.3c0,0,0-3.5,0-3.5H61c-2.1,0-3.8-1.7-3.8-3.8v-1.6c0-0.1,0-0.3,0-0.4
			c0-0.2,0-0.5,0.1-0.7c0.1-1,0.2-2,0.6-3.2c1.1-3.7,3.9-6.2,7.6-7.2c0.1,0,0.1,0,0.2,0c1.1-0.2,2.2-0.3,3.3-0.3
			c1.4,0,2.7,0.2,3.9,0.5c4.2,1.3,6.8,4.3,7.5,8.7c0.4,2.3,0.3,4.3-0.4,6.2c-0.3,1-0.7,1.9-1.2,2.7c0.7,1,1.1,2.2,1.4,3.5
			c0.7,3.3,0.4,6.6-0.7,9.5c-1.5,4.1-4.9,6.6-9.2,6.8C70.1,81.6,69.7,81.6,69.2,81.6z M73.5,65.3L73.5,65.3z"/>
		<path class="st2" d="M69.1,47.2c1,0,2,0.1,2.9,0.4c2.9,0.9,4.4,2.9,4.9,5.8c0.2,1.5,0.2,3-0.2,4.5c-0.5,1.8-1.4,3.1-3.1,3.8
			c-0.1,0-0.1,0.1-0.1,0.1c0.1,0,0.1,0.1,0.2,0.1c1.8,0.8,2.8,2.2,3.1,4.1c0.5,2.5,0.4,5.1-0.5,7.5c-1,2.8-3.1,4.2-6,4.4
			c-0.3,0-0.7,0.1-1,0.1c-0.8,0-1.7-0.1-2.5-0.2c-2.4-0.4-4-1.9-4.9-4.1c-0.6-1.8-0.8-3.6-0.8-5.6c0.4,0,0.9,0,1.2,0
			c1.2,0,2.5,0,3.9,0c0.5,0,0.5,0.1,0.6,0.6c0.1,1,0.1,2.1,0.4,3.1c0.3,1,1.2,1.6,2.1,1.6c0.3,0,0.7-0.1,1-0.2c0.9-0.4,1-1.1,1.1-2
			c0.2-1.5,0.2-2.9-0.1-4.4c-0.4-1.8-1.2-2.5-3-2.6c-0.6,0-0.9,0-1.2,0c0-1.4,0-2.8,0-4.1c0.4,0,0.8,0,1.1,0c1.6,0,2.5-0.8,2.9-2.4
			c0.2-1.4,0.4-2.8,0-4.1c-0.3-1.2-1.1-1.8-2.1-1.8c-0.3,0-0.6,0.1-0.9,0.2c-1,0.4-1.2,1.2-1.4,2.1s-0.1,1.8-0.1,2.5
			c0,0.2,0,0.5-0.4,0.5c-1.8,0-3.4,0-5.2,0c0-0.6,0-1.1,0-1.6c0.1-1.1,0.1-2.1,0.5-3.1c0.8-2.5,2.5-4.1,5-4.8
			C67.3,47.2,68.2,47.2,69.1,47.2 M69.1,39.7c-1.3,0-2.7,0.1-4.1,0.4c-0.1,0-0.2,0-0.3,0.1c-5,1.3-8.7,4.8-10.3,9.6
			c-0.6,1.6-0.7,3-0.8,4.1c0,0.2,0,0.4-0.1,0.6c0,0.3,0,0.6,0,0.8v1.6c0,2.2,1,4.2,2.5,5.6c-1.4,1.4-2.3,3.3-2.3,5.4
			c0,2.4,0.1,5.2,1.2,8.1c0,0.1,0,0.1,0.1,0.2c1.9,4.8,5.8,8,10.7,8.8c0.1,0,0.2,0,0.3,0c1,0.1,2.1,0.2,3.3,0.2c0.6,0,1.1,0,1.6-0.1
			c5.8-0.3,10.5-3.8,12.5-9.3c1.3-3.6,1.6-7.6,0.8-11.5c-0.2-1-0.5-1.9-0.9-2.8c0.2-0.5,0.4-1,0.6-1.6c0.8-2.5,1-5.1,0.5-7.9
			c0,0,0,0,0-0.1c-1-5.8-4.6-10-10.1-11.6c0,0-0.1,0-0.1,0C72.5,39.9,70.8,39.7,69.1,39.7L69.1,39.7z"/>
	</g>
	<g>
		<path class="st1" d="M57.7,81.2C55.9,81,54.2,81,52.2,81c-2.1,0-3.8-1.7-3.8-3.8V58.6c-0.2,0-0.3,0-0.5,0c-0.8,0-1.5-0.2-2.2-0.7
			c-1-0.7-1.6-1.8-1.6-3v-3.6c0-1.8,0.9-3.2,2.4-4c0.1,0,0.1-0.1,0.2-0.1c1.3-0.6,2.8-1.3,4-2.3c0.6-0.5,1.5-1,2.8-1H58
			c2.1,0,3.8,1.7,3.8,3.8v29.7c0,1-0.4,2-1.2,2.7c-0.7,0.7-1.6,1-2.6,1C57.9,81.2,57.8,81.2,57.7,81.2z"/>
		<path class="st2" d="M58,47.7c0,9.9,0,19.8,0,29.8c-2-0.1-3.8-0.1-5.8-0.1c0-8,0-15.9,0-23.9c-1.4,0.5-2.8,1-4.2,1.5
			c0-0.2,0-0.5,0-0.8c0-1,0-2,0-2.9c0-0.4,0.1-0.5,0.4-0.6c1.8-0.8,3.5-1.6,5-2.9c0.1-0.1,0.2-0.1,0.4-0.1
			C55.1,47.7,56.5,47.7,58,47.7 M58,40.2h-4.2c-2.5,0-4.2,1-5.2,1.9c-0.9,0.7-2.1,1.3-3.1,1.7c-0.1,0.1-0.3,0.1-0.4,0.2
			c-2.8,1.4-4.5,4.2-4.5,7.3v2.9v0.8c0,2.4,1.2,4.7,3.1,6.1c0.4,0.3,0.7,0.5,1.1,0.7v15.6c0,4.1,3.4,7.5,7.5,7.5c2,0,3.5,0,5.3,0.1
			c0.2,0,0.3,0,0.5,0c1.9,0,3.7-0.7,5.1-2c1.5-1.4,2.4-3.4,2.4-5.5V47.7C65.5,43.5,62.1,40.2,58,40.2L58,40.2z"/>
	</g>
	<path class="st1" d="M67.1,64c0-1.4,0-2.8,0-4.1c0.4,0,0.8,0,1.1,0c1.6,0,2.5-0.8,2.9-2.4c0.2-1.4,0.4-2.8,0-4.1
		c-0.4-1.5-1.6-2.1-3-1.6c-1,0.4-1.2,1.2-1.4,2.1s-0.1,1.8-0.1,2.5c0,0.2,0,0.5-0.4,0.5c-1.8,0-3.4,0-5.2,0c0-0.6,0-1.1,0-1.6
		c0.1-1.1,0.1-2.1,0.5-3.1c0.8-2.5,2.5-4.1,5-4.8c1.9-0.4,3.8-0.4,5.5,0.1c2.9,0.9,4.4,2.9,4.9,5.8c0.2,1.5,0.2,3-0.2,4.5
		c-0.5,1.8-1.4,3.1-3.1,3.8c-0.1,0-0.1,0.1-0.1,0.1c0.1,0,0.1,0.1,0.2,0.1c1.8,0.8,2.8,2.2,3.1,4.1c0.5,2.5,0.4,5.1-0.5,7.5
		c-1,2.8-3.1,4.2-6,4.4c-1.1,0.1-2.4,0-3.5-0.1c-2.4-0.4-4-1.9-4.9-4.1c-0.6-1.8-0.8-3.6-0.8-5.6c0.4,0,0.9,0,1.2,0
		c1.2,0,2.5,0,3.9,0c0.5,0,0.5,0.1,0.6,0.6c0.1,1,0.1,2.1,0.4,3.1c0.4,1.4,1.9,2,3.1,1.4c0.9-0.4,1-1.1,1.1-2
		c0.2-1.5,0.2-2.9-0.1-4.4c-0.4-1.8-1.2-2.5-3-2.6C67.7,64,67.5,64,67.1,64z"/>
</g>
</svg>
