<?xml version="1.0" encoding="utf-8"?>
<!-- Generator: Adobe Illustrator 24.0.3, SVG Export Plug-In . SVG Version: 6.00 Build 0)  -->
<svg version="1.1" id="Layer_1" xmlns="http://www.w3.org/2000/svg" xmlns:xlink="http://www.w3.org/1999/xlink" x="0px" y="0px"
	 viewBox="0 0 125 125" style="enable-background:new 0 0 125 125;" xml:space="preserve">
<style type="text/css">
	.st0{fill:#7C7C7C;}
	.st1{fill:#383838;}
	.st2{fill:#FFFFFF;}
</style>
<g>
	<path class="st0" d="M40,84.5c-0.2,0.4-0.5,0.9-0.7,1.1c-2.6,4.3-5.9,7.9-10.3,10.2c-2.5,1.4-5.3,2.2-8.1,2.5
		c-0.1,0-0.5-0.1-0.5-0.2c-0.1-0.2,0-0.5,0.1-0.6c2.1-3.6,3.9-7.4,4.9-11.5c0.5-1.9,0.7-3.8,0.9-5.8c0.2-3.9-0.6-7.5-1.9-11.1
		c-1-2.9-2.4-5.8-3.9-8.4c-0.1-0.2-0.2-0.5-0.1-0.6c0.1-0.1,0.5-0.2,0.6-0.2c2.2,0.1,4.4,0.7,6.4,1.8c4.9,2.3,8.6,5.9,11.5,10.4
		c0.4,0.6,0.7,1.2,1.1,1.9c0.3-0.1,0.4-0.2,0.6-0.4c5.6-4.4,11.6-8.1,18.4-10.9c3.1-1.2,6.4-2.3,9.7-2.6c4.5-0.6,8.9-0.1,13.1,1.2
		c5.8,1.9,10.6,5,15.1,8.9c2.9,2.5,5.5,5.2,7.7,8.2c0.5,0.6,0.5,0.6,0,1.2C99.9,85.9,94.1,91,87,94.7c-3.4,1.8-6.9,2.9-10.6,3.4
		c-4.5,0.6-8.9,0.1-13.2-1.1c-6.4-1.9-12.1-5-17.6-8.8c-1.6-1.1-3.2-2.4-4.9-3.5C40.5,84.8,40.2,84.7,40,84.5z M82.2,70.9
		c-3,0-5.4,2.4-5.4,5.2c0,3,2.4,5.4,5.4,5.4c2.9,0,5.2-2.4,5.2-5.4C87.6,73.2,85.2,70.9,82.2,70.9z"/>
	<path class="st0" d="M104.5,44.5c0,0.4,0,0.8,0,1.2c0.1,0.6-0.2,1-0.6,1.2c-1.6,1.4-3.5,2.4-5.6,2.7c-2.5,0.5-5,0.1-7.3-0.9
		c-1.9-0.9-3.5-2-5-3.4c-0.7-0.6-0.7-0.6-1.5,0c-1.9,1.6-3.9,3-6.4,3.8c-3.5,1-6.8,0.6-10.1-0.7c-1.9-0.8-3.8-1.9-5.4-3.2
		c-0.4-0.4-0.6-0.2-1,0c-2.8,2.3-5.9,3.9-9.5,4.4c-4.3,0.6-8-0.6-11.2-3.2c-0.4-0.2-0.8-0.6-1.1-1c-0.5-0.5-0.7-0.5-1.2,0
		c-1.8,1.8-3.8,3-6.1,3.9c-4.6,1.6-8.6,0.6-12.2-2.5c-0.1-0.1-0.2-0.4-0.2-0.6c0-1,0-2.1,0-3.1c0-0.6,0.2-0.7,0.9-0.5
		c2.9,1.4,5.9,2,9,1.8c3-0.2,5.7-1.4,8.1-3.4c0.4-0.4,0.9-0.7,1.2-1.1c0.3-0.2,0.5-0.2,0.9,0c2.5,2,5.4,3.4,8.6,4
		c4.8,1,8.9-0.3,12.6-3.4c1.1-1,0.9-1,2,0c2.3,2,4.9,3.2,7.9,3.6c2.9,0.4,5.6-0.2,8.4-1.4c1.8-0.8,3.4-1.6,4.9-2.9
		c0.4-0.2,0.6-0.1,0.9,0.1c1.5,1.4,3.1,2.5,4.9,3.2c4.1,1.8,8.2,1.4,12.4-0.3c0.4-0.1,0.8-0.4,1.2-0.5c0.5-0.1,0.8,0,0.8,0.4
		C104.5,43.4,104.5,44,104.5,44.5L104.5,44.5z"/>
	<path class="st0" d="M104.5,31.5c0,0.2,0,0.6,0,0.9c0.1,0.8-0.2,1.4-0.9,1.8c-1.9,1.4-4,2.5-6.4,2.8c-2.3,0.2-4.5-0.3-6.5-1.1
		c-1.9-0.9-3.5-2-5-3.5c-0.5-0.5-0.6-0.5-1.1,0c-2,1.9-4.4,3.4-7.1,4c-3.5,0.7-7,0.2-10.2-1.2c-1.6-0.8-3.1-1.6-4.5-2.8
		c-0.4-0.4-0.7-0.4-1.1,0c-2.5,2-5.1,3.4-8.2,4.1c-4.5,1-8.6-0.1-12.2-3c-0.4-0.4-0.9-0.8-1.2-1c-0.5-0.5-0.8-0.5-1.2,0
		c-2,1.9-4.3,3.4-7,4.1c-3.6,1-6.9,0.4-10-1.8c-1.8-1.1-1.8-1.2-1.8-3.2c0-0.5,0-1,0-1.5c0-0.6,0.3-0.9,0.9-0.6
		c2.2,1.1,4.6,1.8,7.3,1.9c4.2,0.1,8-1.4,11.1-4.4c0.4-0.4,0.6-0.4,1.1-0.1c2.8,2,5.6,3.4,9,4c4.5,0.8,8.4-0.4,11.9-3.4
		c0.1-0.1,0.4-0.2,0.5-0.4c0.6-0.6,0.6-0.6,1.4,0c2.2,2,4.9,3.4,7.9,3.9c2.6,0.4,5.1,0,7.5-0.9c2.1-0.7,4.1-1.9,5.9-3.2
		c0.4-0.2,0.6-0.2,1,0c2.3,2,4.8,3.5,7.8,4.1c3.5,0.7,6.9,0.1,10-1.2c0.2-0.1,0.5-0.3,0.8-0.4c0.4-0.2,0.7,0,0.7,0.5
		C104.5,30.4,104.5,31,104.5,31.5z"/>
</g>
<g>
	<g>
		<path class="st1" d="M69.8,81.2c-2.6,0-4.4-1.8-4.4-4.4v-2.6h-4.6c-1.9,0-3-0.9-3.5-1.6c-0.4-0.5-1.1-1.7-0.8-3.3c0-0.3,0-0.6,0-1
			c0-1,0-2.1,0.3-3.5c0.3-1.3,0.8-2.4,1.2-3.3c0.2-0.3,0.3-0.6,0.5-1c1.9-4.4,3.8-9,5.6-13.4c0.5-1.4,1.8-3.1,4.6-3.1h4.9
			c2.5,0,4.3,1.7,4.4,4.3C78,51,78,54,78,56.8v5.8c1.8,0.5,3,2,3,4v3.4c0,2-1.2,3.5-3,4v2.9c0,2.6-1.8,4.4-4.4,4.4H69.8z"/>
		<path class="st2" d="M73.5,47.8c0.5,0,0.6,0.1,0.6,0.6c0.1,2.6,0.1,5.5,0.1,8.4s0,5.8,0,8.6c0,0.5,0.1,0.8,0.6,0.8
			c0.6,0,1.2,0,1.9,0c0.4,0,0.5,0.1,0.5,0.4c0,1.1,0,2.2,0,3.4c0,0.4-0.1,0.4-0.4,0.4c-0.6,0-1.2,0-1.9,0s-0.8,0-0.8,0.8
			c0,1.9,0,3.9,0,5.8c0,0.5-0.1,0.6-0.6,0.6c-1.2,0-2.5,0-3.9,0c-0.5,0-0.6-0.1-0.6-0.6c0-1.9,0-3.9,0-5.8c0-0.6,0-0.6-0.8-0.6
			c-2.5,0-5.1,0-7.6,0c-0.5,0-0.8-0.1-0.6-0.6c0.1-1.4-0.1-2.8,0.2-4.1c0.2-1.4,1-2.5,1.5-3.8c1.9-4.4,3.8-8.9,5.6-13.4
			c0.2-0.6,0.5-0.8,1.1-0.8C70.2,47.8,71.9,47.8,73.5,47.8 M64.5,66.1c1.4,0,2.8,0,4,0c0.5,0,0.6-0.1,0.6-0.6c0-3.8,0-7.6,0-11.4
			c0.1-0.1,0-0.4,0-0.5H69C67.5,57.7,66,61.8,64.5,66.1 M73.5,40.3h-4.9c-3.7,0-6.7,2-8.1,5.4c-1.8,4.4-3.7,8.9-5.6,13.3
			c0,0.1,0,0.1-0.1,0.2c-0.1,0.2-0.2,0.5-0.3,0.7c-0.5,1-1.1,2.4-1.5,4.1c-0.4,1.7-0.4,3.3-0.4,4.3c0,0.2,0,0.5,0,0.6
			c-0.3,2.1,0.3,4.2,1.6,5.9c0.9,1.1,2.9,3.1,6.5,3.1h0.9c0.5,4.1,3.8,7,8.1,7h3.9c4.6,0,8.1-3.5,8.1-8.1v-0.6c1.8-1.4,3-3.7,3-6.3
			v-3.4c0-2.5-1.2-4.8-3-6.2v-3.6c0-2.9,0-5.8-0.1-8.6C81.5,43.7,78,40.3,73.5,40.3L73.5,40.3z"/>
	</g>
	<g>
		<path class="st1" d="M52.8,81.1c-2.8,0-4.5-1.7-4.5-4.5V58.7c-0.2,0-0.3,0-0.5,0c-0.8,0-1.5-0.2-2.2-0.7c-1-0.7-1.6-1.8-1.6-3.1
			v-3.5c0-1.6,0.8-3.1,2.2-4c0.1-0.1,0.2-0.1,0.3-0.2c0.4-0.2,0.8-0.4,1.2-0.7c0.8-0.4,1.6-0.9,2.3-1.3c1.7-1.3,3.4-1.5,4.6-1.5H57
			c2.5,0,4.2,1.8,4.2,4.2v28.5c0,2.8-1.7,4.5-4.5,4.5H52.8z"/>
		<path class="st2" d="M57,47.6c0.4,0,0.5,0.1,0.5,0.5c0,0.9,0,1.9,0,2.8c0,8.6,0,17.1,0,25.8c0,0.8,0,0.8-0.8,0.8c-1.4,0-2.8,0-4,0
			c-0.8,0-0.8,0-0.8-0.8c0-7.5,0-14.9,0-22.4c0-0.1,0-0.4,0-0.8c-1.5,0.5-2.9,1-4.2,1.5c0-0.2,0-0.4,0-0.6c0-1,0-2,0-2.9
			c0-0.4,0.1-0.6,0.5-0.9c1.4-0.8,2.8-1.4,4-2.2c0.8-0.6,1.5-0.8,2.4-0.8C55.4,47.6,56.2,47.6,57,47.6 M57,40.1h-2.4
			c-1,0-3.9,0-6.8,2.2c-0.5,0.3-1.1,0.6-1.8,1c-0.4,0.2-0.9,0.5-1.3,0.7c-0.2,0.1-0.4,0.2-0.6,0.3c-2.4,1.6-3.8,4.2-3.8,7.1v2.9v0.6
			c0,2.4,1.2,4.7,3.2,6.1c0.3,0.2,0.7,0.4,1.1,0.6v14.9c0,4.9,3.4,8.2,8.2,8.2h4c4.9,0,8.2-3.4,8.2-8.2V50.8v-2.8
			C65,43.6,61.5,40.1,57,40.1L57,40.1z"/>
	</g>
	<g>
		<path class="st1" d="M74.2,56.8c0,2.9,0,5.8,0,8.6c0,0.5,0.1,0.8,0.6,0.8c0.6,0,1.2,0,1.9,0c0.4,0,0.5,0.1,0.5,0.4
			c0,1.1,0,2.2,0,3.4c0,0.4-0.1,0.4-0.4,0.4c-0.6,0-1.2,0-1.9,0s-0.8,0-0.8,0.8c0,1.9,0,3.9,0,5.8c0,0.5-0.1,0.6-0.6,0.6
			c-1.2,0-2.5,0-3.9,0c-0.5,0-0.6-0.1-0.6-0.6c0-1.9,0-3.9,0-5.8c0-0.6,0-0.6-0.8-0.6c-2.5,0-5.1,0-7.6,0c-0.5,0-0.8-0.1-0.6-0.6
			l0,0c0.1-1.4-0.1-2.8,0.2-4.1c0.2-1.4,1-2.5,1.5-3.8c1.9-4.4,3.8-8.9,5.6-13.4c0.2-0.6,0.5-0.8,1.1-0.8c1.6,0,3.2,0,4.9,0
			c0.5,0,0.6,0.1,0.6,0.6C74.2,51.1,74.2,53.9,74.2,56.8z M69.1,53.6H69c-1.5,4.1-3,8.2-4.5,12.5c1.4,0,2.8,0,4,0
			c0.5,0,0.6-0.1,0.6-0.6c0-3.8,0-7.6,0-11.4C69.2,53.9,69.1,53.7,69.1,53.6z"/>
	</g>
</g>
</svg>
