<?xml version="1.0" encoding="utf-8"?>
<!-- Generator: Adobe Illustrator 24.0.3, SVG Export Plug-In . SVG Version: 6.00 Build 0)  -->
<svg version="1.1" id="Layer_1" xmlns="http://www.w3.org/2000/svg" xmlns:xlink="http://www.w3.org/1999/xlink" x="0px" y="0px"
	 viewBox="0 0 125 125" style="enable-background:new 0 0 125 125;" xml:space="preserve">
<style type="text/css">
	.st0{fill:#7C7C7C;}
	.st1{fill:#383838;}
	.st2{fill:#FFFFFF;}
</style>
<g>
	<path class="st0" d="M30.7,50.5c-0.6-0.5-1.2-0.9-1.8-1.5c-2.2-2.4-3-5.2-1.9-8.2c1-3.1,3.4-5,6.5-5.5c0.5-0.1,1,0,1.5-0.1
		c0.1,0,0.4-0.3,0.4-0.4c0.4-4.6,3.9-8.6,8.8-9.8c6-1.4,12.2,2.8,13.4,8.8c0.4,2.2,0.1,4.4-0.7,6.5c0,0.1-0.1,0.3-0.1,0.4v0.1
		c0.1,0,0.4,0.1,0.5,0.1c5,1.5,8.1,4.9,9,10c1.2,7.1-3.7,13.2-10.1,14.3c-1,0.1-2,0.1-3,0.2c-1.9,0-3.8,0-5.5,0
		c-3.6,0-7.1,0-10.7-0.1c-4.1-0.1-7.5-3.1-8.1-7.1c-0.5-2.6,0.1-5.1,1.9-7.3c0.1-0.1,0.1-0.2,0.2-0.4C30.7,50.6,30.7,50.5,30.7,50.5
		z"/>
	<path class="st0" d="M62.4,91c-12.5,0-25,0-37.5,0c-1,0-1,0-1-1c0-1.2,0-2.4,0-3.6c0-0.6,0.1-0.7,0.8-0.7c0.1,0,0.3,0,0.3,0
		c25,0,50,0,75,0c0.9,0,0.9,0,0.9,0.9c0,1.2,0,2.4,0,3.6c0,0.8,0,0.8-0.8,0.8c-4.8,0-9.6,0-14.4,0C78.1,91,70.2,91,62.4,91z"/>
	<path class="st0" d="M62.6,95c12.5,0,25.1,0,37.6,0c0.9,0,0.9,0,0.9,0.9c0,1.2,0,2.5,0,3.8c0,0.4-0.1,0.6-0.6,0.6
		c-0.1,0-0.2,0-0.2,0c-25,0-50.1,0-75.1,0c-1,0-1,0-1-1c0-1.1,0-2.4,0-3.5c0-0.7,0-0.7,0.8-0.7C37.3,95,49.9,95,62.6,95z"/>
	<path class="st0" d="M79.6,53.4c2.2,0.1,4.2,0.9,6,2.1c0.5,0.4,0.8,0.4,1.2,0c2-1.4,4.3-2.3,6.8-2c2.1,0.1,3.9,1.1,5.4,2.6
		c0.2,0.2,0.2,0.9,0,1.1c-0.4,0.2-0.6,0.2-1,0c-1.2-0.7-2.5-0.7-3.9-0.7c-2.9,0.2-5.2,1.4-7.4,3.4c-0.4,0.4-0.9,0.4-1.4-0.1
		c-1.2-1.1-2.5-2-4.1-2.5c-1.9-0.6-3.8-1-5.6-0.5c-0.4,0.1-0.9,0.2-1.2,0.5c-0.4,0.2-0.7,0.4-1.1,0c-0.2-0.4-0.2-0.9,0.1-1.2
		c1-1,2.2-1.8,3.6-2.1C77.9,53.6,78.7,53.5,79.6,53.4z"/>
	<path class="st0" d="M50.1,74.6c0,1.8,0,3.6,0,5.4c0,0.6-0.1,0.6-0.7,0.6c-1.2,0-2.5,0-3.8,0c-0.5,0-0.6-0.1-0.6-0.6
		c0-3.6,0-7.3,0-10.9c0-0.5,0.1-0.6,0.6-0.6c1.2,0,2.5,0,3.9,0c0.5,0,0.6,0.2,0.6,0.8C50.1,71.1,50.1,72.9,50.1,74.6z"/>
	<path class="st0" d="M70.9,34.3c1.6,0.1,3.1,0.5,4.5,1.4c0.4,0.3,0.6,0.3,0.9,0c1.2-1,2.6-1.8,4.2-2c2.3-0.2,4.1,0.4,5.9,1.9
		c0.4,0.2,0.4,0.7,0.1,1.1c-0.2,0.4-0.6,0.3-0.9,0.1c-0.9-0.5-1.9-0.5-2.9-0.4c-2.4,0.2-4.2,1.2-5.9,3c-0.6,0.6-0.9,0.6-1.5,0.1
		c-1.8-1.4-3.8-2.1-5.9-2.2c-1.1,0-2.3,0.1-3.1,0.8c-0.1,0.1-0.6,0.1-0.6,0c-0.1-0.2-0.2-0.6-0.2-0.9c0-0.1,0.1-0.3,0.2-0.4
		C67.1,35.1,68.8,34.3,70.9,34.3z"/>
	<path class="st0" d="M92.7,29.8c-1.2,0-2.4,0.2-3.4,0.7c-0.7,0.4-1,0.2-1.5-0.4c-1.1-1.8-2.5-2.9-4.5-3.2c-0.5-0.1-0.9-0.1-1.4,0
		c-0.4,0-0.7,0.1-0.9-0.4c-0.1-0.4,0-0.9,0.4-1c2-1,4-1,5.9,0.3c0.6,0.4,1.1,0.9,1.6,1.5c0.2,0.4,0.5,0.4,1,0.3
		c1.9-0.6,3.9-0.6,5.5,0.7c0.8,0.5,1.2,1.2,1.8,2c0.2,0.4,0.1,0.9-0.1,1.1c-0.4,0.2-0.6,0.1-1-0.3c-0.6-0.6-1.5-0.9-2.4-1.1
		C93.3,29.9,92.9,29.8,92.7,29.8z"/>
</g>
<g>
	<g>
		<path class="st1" d="M68,81.3c-1.1,0-2.1-0.2-3.2-0.5c-3.1-0.8-5.5-3.1-6.5-6.4c0,0,0-0.1,0-0.1c-0.4-1.4-0.8-3.3-0.6-5.4
			c0-1,0.4-2,1-2.7c-0.5-0.7-0.8-1.6-0.8-2.5c0-1.3,0-2.6,0.1-3.8c0-1.2,0.1-2.4,0.1-3.7c0-0.6,0-1.3,0.1-1.9c0-0.5,0.1-1,0.1-1.5
			c0-0.9,0-1.7,0.1-2.6c0-0.8,0.1-1.6,0.1-2.4c0-2,1.3-4.1,4.2-4.1h12.8c2.5,0,4.2,1.8,4.2,4.2v3.6c0,2-1.1,3.6-2.8,4.1
			c1,0.9,1.8,2,2.4,3.2c0.9,1.8,1.1,3.5,1.3,5.1l0.1,0.7c0,0.1,0,0.2,0,0.4c0.2,2.7,0,5.3-0.6,7.7c-0.6,3.4-2.6,6.1-5.6,7.4
			C72.2,81.3,69.9,81.3,68,81.3z"/>
		<path class="st2" d="M75.3,47.4c0.4,0,0.5,0.1,0.5,0.5c0,1.2,0,2.4,0,3.6c0,0.5-0.1,0.6-0.6,0.6c-2.5,0-5,0-7.5,0
			c-0.9,0-0.9,0-0.9,0.9c-0.1,1.8-0.2,3.5-0.2,5.4c-0.2,0-0.2,0.1-0.2,0.2c0.6-0.2,1.1-0.6,1.8-0.9c0.8-0.3,1.7-0.5,2.6-0.5
			c0.5,0,0.9,0,1.4,0.1c1.8,0.4,3,1.5,3.8,3.1c0.8,1.5,0.9,3.1,1.1,4.8c0.1,2.2,0,4.5-0.5,6.8c-0.4,2.1-1.5,3.9-3.5,4.8
			c-1.5,0.8-3.2,0.8-4.9,0.8c-0.8,0-1.4-0.1-2.1-0.4c-2-0.5-3.4-1.9-4-3.9c-0.4-1.4-0.6-2.8-0.5-4.2c0-0.4,0.1-0.5,0.5-0.5
			c1.5,0,3,0,4.4,0c0.4,0,0.4,0.1,0.5,0.4c0.1,1,0.2,1.9,0.4,2.9c0.2,0.9,0.8,1.5,1.7,1.5c0.1,0,0.2,0,0.3,0c0.9,0,1.6-0.2,2-1.4
			c0.1-0.4,0.2-0.9,0.2-1.2c0.1-1.9,0.1-3.8,0.1-5.6c0-0.6-0.1-1.4-0.4-2c-0.2-1.1-1-1.6-2-1.6s-1.8,0.4-2.2,1.2
			c-0.2,0.4-0.4,0.8-0.4,1.1c-0.1,0.2-0.2,0.4-0.5,0.4c-1.2,0-2.5,0-3.9,0c-0.4,0-0.5-0.1-0.5-0.5c0-2.5,0.1-5,0.1-7.5
			c0-1.1,0.1-2.2,0.1-3.4c0-1.6,0.1-3.4,0.1-5c0-0.4,0.1-0.4,0.5-0.4C66.8,47.4,71,47.4,75.3,47.4 M75.3,39.9H62.5
			c-4.6,0-8,3.4-8,7.9c0,0.7,0,1.4-0.1,2.2c0,0.9-0.1,1.8-0.1,2.8c0,0.4,0,0.8-0.1,1.3c0,0.6-0.1,1.3-0.1,2.1c0,1.2,0,2.3-0.1,3.6
			c0,1.3-0.1,2.6-0.1,3.9c0,0.8,0.1,1.6,0.3,2.3c-0.3,0.8-0.5,1.7-0.6,2.6c-0.2,2.8,0.3,5.1,0.8,6.6c0,0.1,0,0.2,0.1,0.3
			c1.4,4.4,4.7,7.6,9,8.8c1.5,0.5,2.8,0.7,4.2,0.7c2,0,5,0,8.1-1.5c4-1.8,6.8-5.5,7.7-10.1c0.6-2.8,0.8-5.6,0.6-8.6
			c0-0.2,0-0.5-0.1-0.7c0-0.2-0.1-0.5-0.1-0.7c-0.2-1.6-0.5-3.8-1.7-6.2c-0.2-0.4-0.4-0.8-0.6-1.2c0.9-1.3,1.3-2.9,1.3-4.6v-3.6
			C83.3,43.5,79.8,39.9,75.3,39.9L75.3,39.9z"/>
	</g>
	<g>
		<path class="st1" d="M53,81.1c-2.6,0-4.4-1.8-4.4-4.4V58.4c-0.2,0-0.4,0.1-0.6,0.1c-0.8,0-1.5-0.2-2.2-0.7c-1-0.7-1.6-1.8-1.6-3.1
			v-3.6c0-1.9,1.2-3.5,2.8-4l0.4-0.2c1.3-0.6,2.5-1.2,3.3-2c1.2-1.1,2.6-1.1,3.2-1.1h3.4c2.6,0,4.4,1.8,4.4,4.4v28.5
			c0,4.2-3.3,4.5-4.4,4.5H53z"/>
		<path class="st2" d="M57.4,47.4c0.5,0,0.6,0.1,0.6,0.6c0,3.1,0,6.1,0,9.2c0,6.4,0,12.8,0,19.2c0,0.8,0,0.8-0.6,0.8
			c-1.4,0-2.9,0-4.4,0c-0.5,0-0.6-0.1-0.6-0.6c0-7.5,0-15,0-22.5c-0.1-0.5-0.1-0.8-0.1-1c-1.5,0.5-2.9,1-4.2,1.5c0-0.6,0-1.2,0-1.8
			c0-0.6,0-1.2,0-1.9c0-0.2,0.1-0.5,0.4-0.5c1.8-0.9,3.5-1.6,5-3c0.1-0.1,0.4-0.1,0.6-0.1C55.2,47.4,56.3,47.4,57.4,47.4 M57.4,39.9
			H54c-2.3,0-4.2,0.7-5.7,2.1c-0.5,0.4-1.4,0.9-2.4,1.4c-0.1,0-0.2,0.1-0.3,0.1c-2.9,1.2-5,4.1-5,7.5v1.9v1.8c0,2.4,1.2,4.7,3.2,6.1
			c0.4,0.3,0.8,0.5,1.2,0.7v15.2c0,4.6,3.5,8.1,8.1,8.1h4.4c4.8,0,8.1-3.4,8.1-8.2V57.3v-9.2C65.5,43.4,62,39.9,57.4,39.9L57.4,39.9
			z"/>
	</g>
	<g>
		<path class="st1" d="M66.3,58.7c0.6-0.2,1.1-0.6,1.8-0.9c1.2-0.5,2.6-0.6,4-0.4c1.8,0.4,3,1.5,3.8,3.1c0.8,1.5,0.9,3.1,1.1,4.8
			c0.1,2.2,0,4.5-0.5,6.8c-0.4,2.1-1.5,3.9-3.5,4.8c-1.5,0.8-3.2,0.8-4.9,0.8c-0.8,0-1.4-0.1-2.1-0.4c-2-0.5-3.4-1.9-4-3.9
			c-0.4-1.4-0.6-2.8-0.5-4.2c0-0.4,0.1-0.5,0.5-0.5c1.5,0,3,0,4.4,0c0.4,0,0.4,0.1,0.5,0.4c0.1,1,0.2,1.9,0.4,2.9
			c0.2,1,0.9,1.6,2,1.5c0.9,0,1.6-0.2,2-1.4c0.1-0.4,0.2-0.9,0.2-1.2c0.1-1.9,0.1-3.8,0.1-5.6c0-0.6-0.1-1.4-0.4-2
			c-0.2-1.1-1-1.6-2-1.6c-1,0-1.8,0.4-2.2,1.2c-0.3,0.4-0.4,0.8-0.4,1.1c-0.1,0.2-0.2,0.4-0.5,0.4c-1.2,0-2.5,0-3.9,0
			c-0.4,0-0.5-0.1-0.5-0.5c0-2.5,0.1-5,0.1-7.5c0-1.1,0.1-2.2,0.1-3.4c0-1.6,0.1-3.4,0.1-5c0-0.4,0.1-0.4,0.5-0.4
			c4.2,0,8.5,0,12.7,0c0.4,0,0.5,0.1,0.5,0.5c0,1.2,0,2.4,0,3.6c0,0.5-0.1,0.6-0.6,0.6c-2.5,0-5,0-7.5,0c-0.9,0-0.9,0-0.9,0.9
			c-0.1,1.8-0.2,3.5-0.2,5.4C66.3,58.4,66.3,58.6,66.3,58.7z"/>
	</g>
</g>
</svg>
