<?xml version="1.0" encoding="utf-8"?>
<!-- Generator: Adobe Illustrator 24.0.3, SVG Export Plug-In . SVG Version: 6.00 Build 0)  -->
<svg version="1.1" id="Layer_1" xmlns="http://www.w3.org/2000/svg" xmlns:xlink="http://www.w3.org/1999/xlink" x="0px" y="0px"
	 viewBox="0 0 125 125" style="enable-background:new 0 0 125 125;" xml:space="preserve">
<style type="text/css">
	.st0{fill:#7C7C7C;}
	.st1{fill:#383838;}
	.st2{fill:#FFFFFF;}
</style>
<g>
	<path class="st0" d="M52.2,62.4c-1.5-0.2-3-0.6-4.4-1.2c-3.2-1.5-5.2-4-6.8-7.1c-1-2.3-1.4-4.5-2-6.9c-0.5-2.1-1.1-4.3-1.9-6.4
		c-0.8-2-1.9-3.8-3.9-4.7c1.1,0,2.1-0.1,3.1-0.1c5.8,0,10.6,2.1,14.9,5.8c1.4,1.1,2.6,2.5,4,3.8c2,1.8,4.1,3.1,6.8,3.8
		c3.2,0.7,6.3,0,8.9-2c1.5-1.1,2.9-2.5,4.4-3.8c1.2-0.9,2.4-1.8,3.8-2.5c2.3-1.1,3.8-0.7,5.4,1.1c0.6,0.6,1.1,1.2,1.8,1.9
		c0.1-0.1,0.1-0.2,0.1-0.2c0.5-2.3,1.8-4,3.2-5.6c1.4-1.5,2.9-3,4.3-4.6c0.1,0.1,0.2,0.1,0.5,0.4c-0.4,0.5-0.6,0.9-1,1.4
		c-1,1.1-2.1,2.2-3.2,3.4c-1.5,1.6-2.8,3.4-3.2,5.5c-0.1,0.4,0,0.6,0.4,0.9c0.6,0.5,1.2,0.9,1.9,1.4c-0.7,0-1.4,0.1-2,0.1
		c-0.4,0-0.5,0.2-0.4,0.6c0.1,1.9,0.5,3.6,1.1,5.4c-0.2,0-0.4,0.1-0.7,0.1c-0.6-1.9-1.1-3.9-1.1-5.9c-3.4,0-6.4,2.5-7.2,5.7
		c-0.5,1.8-0.6,3.6-0.5,5.4c0.1,3.9-0.6,7.5-3.1,10.7c-1.9,2.5-4.5,4.1-7.4,5.2c-2.5,1-5.1,1.8-7.8,2.1c-0.4,0-0.6,0.2-0.6,0.6
		c0,2.1,0,4.3,0,6.4c0,0.5,0.1,0.6,0.6,0.6c3.4,0,6.6,0.1,10,0.2c2.2,0.1,4.4-0.4,6.5-0.5c1.1-0.1,2.3-0.2,3.4-0.4
		c0-0.5,0-0.9,0-1.4c0-0.8,0-1.5,0-2.2c0-0.9,0.4-1.2,1.2-1.2c4.1,0,8.2,0,12.4,0c0.9,0,1.2,0.4,1.2,1.2c0,4,0,8.1,0,12.2
		c0,0.9-0.4,1.2-1.2,1.2c-4.1,0-8.2,0-12.2,0c-0.9,0-1.2-0.4-1.2-1.2c0-1,0-2,0-3.1c0-0.5-0.1-0.6-0.6-0.6c-1.5-0.1-3.1-0.4-4.6-0.5
		c-1.8-0.2-3.5-0.4-5.4-0.2c-4.8,0.1-9.5,0.2-14.3,0.4c-3,0.1-6.1,0.1-9.1,0.2c-4.8,0.1-9.5,0.2-14.2,0.2c-0.5,0-1.1,0-1.8,0
		c0-1.5,0-3.1,0-4.8c7.6,0.1,15.2,0.4,22.9,0.5c0-0.2,0-0.4,0-0.5c0-2.1,0-4.1,0-6.2c0-0.2-0.1-0.5-0.4-0.5
		c-4.4-0.4-8.5-1.6-12.2-4.1c-2.1-1.4-4.4-2.6-6.2-3.8c1,0,2.2,0.2,3.6,0.1c2.4,0,4.6-0.6,6.6-2c1.4-1,2.9-1.9,4.4-2.8
		c0.9-0.5,2-0.7,3-1C51.9,62.5,52.1,62.5,52.2,62.4z M57.8,76.2c-0.9,0-1.6,0-2.5,0c-0.1,0-0.2,0.2-0.2,0.4c0,2.1,0,4.1,0,6.2
		c0,0.4,0.1,0.5,0.5,0.5c0.6,0,1.1,0,1.8,0.1c0.5,0,0.6-0.1,0.6-0.6c0-2,0-4,0-6C57.8,76.5,57.8,76.4,57.8,76.2z"/>
	<path class="st0" d="M87.7,76.4c-2.2,0-4.5,0-6.8,0c-1.2,0-2-0.7-2-1.9c0-1.1,0.9-1.9,2-1.9c4.5,0,9,0,13.4,0c1,0,1.8,0.6,2,1.6
		c0.1,0.9-0.2,1.8-1.1,2.1c-0.2,0.1-0.6,0.1-0.9,0.1C92.1,76.4,89.9,76.4,87.7,76.4z"/>
	<path class="st0" d="M87.6,97.7c-2.2,0-4.4,0-6.6,0c-1.1,0-2.1-0.9-2.1-1.9c0-1.1,0.9-1.9,2.1-1.9c4.5,0,8.9,0,13.4,0
		c1.1,0,1.9,0.6,2,1.6c0.1,0.9-0.5,1.9-1.4,2.1c-0.2,0.1-0.5,0.1-0.7,0.1C92.1,97.7,89.8,97.7,87.6,97.7z"/>
	<path class="st0" d="M28.9,85.1c0,0.6,0,1.4,0,2c-0.1,1-0.7,1.5-1.8,1.5c-1.9,0-2.4-0.5-2.4-2.4c0-0.9,0-1.9,0-2.7
		c0-1.2,0.6-1.9,1.9-1.9c0.3,0,0.4,0,0.6,0c0.9,0,1.5,0.6,1.6,1.5c0,0.1,0,0.2,0,0.4C28.9,84,28.9,84.5,28.9,85.1L28.9,85.1z"/>
	<path class="st0" d="M100.2,27.2c0,1.8-0.2,3.5-1.9,4.6c-0.9,0.6-2,0.7-3.1,0.7c-0.1,0-0.4-0.2-0.4-0.2
		C94.6,29.1,97.2,26.6,100.2,27.2z"/>
	<path class="st0" d="M87.2,39.1c-3-1.6-3.5-4.3-1.5-7C88.7,33.7,89.2,36.6,87.2,39.1z"/>
	<path class="st0" d="M89.7,27.7c2.6,1.4,3.4,3.5,2.2,5.9c-0.6,1.4-0.5,1.2-1.8,0.4C88.1,32.2,88.2,29.7,89.7,27.7z"/>
	<path class="st0" d="M93.6,37c1-1.1,2-2,3.6-2c1,0.1,1.9,0.6,2.8,1.2c0.1,0.1,0.1,0.4,0,0.4C98.1,38.9,95.8,39.1,93.6,37z"/>
	<path class="st0" d="M89.8,41c2.2-2,4.8-1.8,6.5,0.7C94.3,43.6,91.6,43.6,89.8,41z"/>
</g>
<g>
	<g>
		<path class="st1" d="M70,81.5c-1.3,0-2.7,0-4.1-0.3c-2.4-0.5-5.6-2.1-7.4-6.6c-0.8-1.7-1.2-3.7-1.2-5.8V56.5
			c0-2.5,0.4-4.7,1.3-6.6c1.5-3.5,4.3-5.6,8.2-6.2c0.7-0.1,1.4-0.2,2.2-0.2c1,0,2.1,0.1,3.3,0.3c4.2,0.8,6.9,3.6,7.8,7.9
			c0.1,0.6,0.1,1.2,0.2,1.7c0,0.3,0,0.7,0.1,1c0,0.2,0,0.4,0,0.5c0,1.7-0.8,3-2.2,3.7c0.7,0.8,1.2,1.9,1.7,3.2
			c0.7,2.1,1,4.3,0.8,6.8c-0.1,1.9-0.3,4.1-1.3,6.5c-1.6,4-5,6.3-9.4,6.5C70.1,81.5,70,81.5,70,81.5z"/>
		<path class="st2" d="M69.1,47.2c0.9,0,1.8,0.1,2.6,0.3c2.8,0.5,4.2,2.2,4.8,4.9c0.1,0.8,0.1,1.6,0.2,2.5c0,0.4-0.1,0.4-0.4,0.4
			c-1.5,0-3,0-4.5,0c-0.4,0-0.4-0.1-0.4-0.5c-0.1-0.6-0.1-1.2-0.2-1.9c-0.2-0.9-0.8-1.2-1.5-1.4c-0.1,0-0.3,0-0.4,0
			c-0.9,0-1.4,0.4-1.7,1c-0.2,0.5-0.4,1.1-0.4,1.6c-0.1,2-0.1,4.1-0.4,6.2c-0.1,0-0.1,0-0.1,0s0,0,0.1,0c1.1-1.2,2.3-1.6,3.6-1.6
			c0.5,0,1.1,0.1,1.6,0.2c2.4,0.4,3.6,1.9,4.4,4c0.6,1.8,0.8,3.5,0.6,5.2s-0.2,3.5-1,5.2c-1.1,2.8-3.2,4.1-6.1,4.2
			c-1.1,0-2.2,0-3.2-0.2c-2.4-0.5-3.9-2.1-4.8-4.4c-0.6-1.4-0.9-2.9-0.9-4.4c0-4.1,0-8.2,0-12.2c0-1.8,0.2-3.5,1-5.1
			c1-2.4,2.8-3.6,5.4-4C68,47.3,68.5,47.2,69.1,47.2 M69.2,73.6c0.9,0,1.6-0.6,1.8-1.7c0.5-2.2,0.5-4.5,0.1-6.6
			c-0.2-1.3-0.9-2-1.9-2c-0.1,0-0.3,0-0.5,0c-0.8,0.1-1.4,0.4-1.9,1c-0.1,0.2-0.2,0.5-0.2,0.8c0.1,0.8,0.1,1.6,0.1,2.5
			c0,0.6,0,1.4,0,2c0.1,0.8,0.1,1.6,0.4,2.4c0.1,0.8,0.6,1.4,1.4,1.6C68.7,73.6,68.9,73.6,69.2,73.6 M69.1,39.7
			c-1,0-1.9,0.1-2.8,0.2c-5.1,0.8-9,3.7-11,8.4c-1.1,2.4-1.6,5.1-1.6,8.2v12.2c0,2.6,0.5,5.1,1.5,7.3c1.9,4.7,5.4,7.8,10,8.8
			c1.8,0.4,3.6,0.4,4.9,0.4c0.1,0,0.2,0,0.3,0c5.9-0.3,10.5-3.5,12.7-8.8c1.2-2.9,1.4-5.5,1.6-7.6c0.2-3-0.1-5.7-1-8.3
			c-0.2-0.5-0.3-0.9-0.5-1.3c0.8-1.2,1.2-2.7,1.2-4.3c0-0.4,0-0.7-0.1-1.1c0-0.2,0-0.5-0.1-0.7c0-0.5-0.1-1.2-0.2-1.9
			c0-0.1,0-0.1,0-0.2c-1.1-5.8-5.1-9.8-10.8-10.9C71.7,39.9,70.4,39.7,69.1,39.7L69.1,39.7z"/>
	</g>
	<g>
		<path class="st1" d="M52.6,81.1c-0.3,0-0.6,0-0.8-0.1c-1.9-0.2-3.3-1.8-3.3-3.7V58.6c-0.2,0-0.3,0-0.5,0c-0.8,0-1.5-0.2-2.2-0.7
			c-0.8-0.6-1.3-1.4-1.5-2.3c-0.1-0.3-0.2-0.7-0.2-1.2v-3.1c0-1.8,0.9-3.2,2.4-4c0.1,0,0.1-0.1,0.2-0.1c1.4-0.6,2.8-1.3,3.9-2.3
			c0.8-0.8,1.8-1.1,3.1-1.1h3.5c2.5,0,4.2,1.8,4.2,4.2v28.5c0,2.8-1.7,4.5-4.5,4.5h-3.7C53,81,52.8,81.1,52.6,81.1z"/>
		<path class="st2" d="M57.2,47.5c0.4,0,0.5,0.1,0.5,0.5c0,1.6,0,3.2,0,4.9c0,7.9,0,15.8,0,23.6c0,0.8,0,0.8-0.8,0.8
			c-1.4,0-2.9,0-4.2,0c0,0-0.1,0.1-0.1,0.1c-0.1,0-0.2-0.1-0.4-0.1c0-8,0-15.9,0-23.9c-1.5,0.5-2.9,1-4.2,1.5c0-0.2-0.1-0.4-0.1-0.5
			c0-1.1,0-2.1,0-3.1c0-0.4,0.1-0.5,0.4-0.6c1.8-0.8,3.5-1.6,5-3c0.1-0.1,0.4-0.1,0.5-0.1C54.9,47.5,56.1,47.5,57.2,47.5 M57.2,40
			h-3.5c-2.7,0-4.5,1.1-5.6,2.1c-0.7,0.6-1.8,1.2-2.9,1.6c-0.1,0.1-0.3,0.1-0.4,0.2c-2.8,1.4-4.5,4.2-4.5,7.3v3.1
			c0,0.9,0.2,1.7,0.3,2.2c0.4,1.8,1.5,3.4,3,4.4c0.3,0.2,0.7,0.4,1.1,0.6v15.6c0,3.8,2.8,6.9,6.5,7.4c0.3,0.1,0.8,0.1,1.4,0.1
			c0.3,0,0.6,0,0.9-0.1H57c4.9,0,8.3-3.4,8.3-8.2V52.9V48C65.2,43.5,61.7,40,57.2,40L57.2,40z"/>
	</g>
	<g>
		<path class="st1" d="M66.9,60.4c1.5-1.6,3.4-1.8,5.2-1.4c2.4,0.4,3.6,1.9,4.4,4c0.6,1.8,0.8,3.5,0.6,5.2s-0.2,3.5-1,5.2
			c-1.1,2.8-3.2,4.1-6.1,4.3c-1.1,0-2.2,0-3.2-0.2c-2.4-0.5-3.9-2.1-4.7-4.4c-0.6-1.4-0.9-2.9-0.9-4.4c0-4.1,0-8.3,0-12.3
			c0-1.7,0.2-3.5,1-5.1c1-2.4,2.8-3.6,5.4-4c1.4-0.2,2.9-0.1,4.2,0.1c2.8,0.5,4.2,2.3,4.8,4.9c0.1,0.8,0.1,1.6,0.2,2.5
			c0,0.4-0.1,0.4-0.4,0.4c-1.5,0-3,0-4.5,0c-0.4,0-0.4-0.1-0.4-0.5c-0.1-0.6-0.1-1.2-0.2-1.9c-0.2-0.9-0.8-1.2-1.5-1.4
			c-1.1-0.1-1.8,0.2-2.1,1c-0.2,0.5-0.4,1.1-0.4,1.6C67.1,56.1,67.1,58.3,66.9,60.4C66.7,60.4,66.7,60.4,66.9,60.4z M66.7,67.5
			c0,0.6,0,1.4,0,2c0.1,0.8,0.1,1.6,0.4,2.4c0.1,0.8,0.6,1.4,1.4,1.6c1.2,0.4,2.2-0.2,2.5-1.6c0.5-2.2,0.5-4.5,0.1-6.6
			c-0.2-1.5-1.1-2.2-2.4-2c-0.8,0.1-1.4,0.4-1.9,1c-0.1,0.2-0.2,0.5-0.2,0.8C66.7,65.8,66.7,66.6,66.7,67.5z"/>
	</g>
</g>
</svg>
