<?xml version="1.0" encoding="utf-8"?>
<!-- Generator: Adobe Illustrator 24.0.3, SVG Export Plug-In . SVG Version: 6.00 Build 0)  -->
<svg version="1.1" id="Layer_1" xmlns="http://www.w3.org/2000/svg" xmlns:xlink="http://www.w3.org/1999/xlink" x="0px" y="0px"
	 viewBox="0 0 125 125" style="enable-background:new 0 0 125 125;" xml:space="preserve">
<style type="text/css">
	.st0{fill:#7C7C7C;}
	.st1{fill:#383838;}
	.st2{fill:#FFFFFF;}
</style>
<path class="st0" d="M74,100.6c-3.9,0-7.6-1-10.9-3.1c-0.4-0.2-0.6-0.2-1,0c-3.1,2-6.5,3-10.1,3.2c-10.2,0.5-19.1-6.6-21.1-16.6
	c-0.6-3-0.5-6.1,0.4-9.1c0.1-0.4,0.1-0.5-0.3-0.8c-4.1-3.5-6.8-7.9-7.4-13.2c-1.4-11,5.9-20.4,15.7-22.6c1.1-0.2,2.2-0.4,3.2-0.5
	c0.4,0,0.5-0.2,0.7-0.5c2.2-5.6,6.1-9.6,11.8-11.8c10.6-4.1,22.5,1.1,26.5,11.8c0.1,0.4,0.2,0.5,0.6,0.5c4.2,0.3,8.1,1.8,11.5,4.4
	c4.5,3.6,7.1,8.4,7.6,14.1c0.6,7.1-1.9,13.1-7.4,17.8c-0.2,0.2-0.4,0.4-0.2,0.7c2.4,9.5-2,19-10.6,23.4
	C80.4,99.9,77.3,100.6,74,100.6z M77.5,38.1c-2.3-5.4-8.2-10.5-16.4-9.8c-7,0.6-12,5.6-13.5,9.8c6.7,1.5,11.7,5.2,14.9,11.5
	C65.8,43.4,70.7,39.6,77.5,38.1z M42.2,42.1c-5.1,0.4-11.6,4.2-13.9,11.5C26.2,60.5,29,67.3,33,70.5c3.5-6,8.8-9.6,15.6-10.6
	C43.7,54.9,41.5,49.1,42.2,42.1z M35.2,76.9c-1.2,4.6,0.1,12.1,6.5,16.8c6,4.2,13.4,3.5,17.6,0.7c-4.6-5.1-6.5-11.1-5.4-18
	C47.7,79.5,41.4,79.8,35.2,76.9z M92.2,70.4c4.4-3.6,7-10.8,4.4-17.6c-1.4-3.6-3.8-6.5-7.1-8.5c-2-1.2-4.2-2-6.6-2.2
	c0.8,6.9-1.4,12.8-6.4,17.6C83.5,60.8,88.7,64.4,92.2,70.4z M71.3,76.4c1.1,6.9-0.6,12.9-5.2,18c4.8,3,12.5,3.4,18.4-1.5
	c3-2.5,5-5.8,5.8-9.6c0.4-2,0.4-4.1-0.1-6.2C83.7,79.8,77.4,79.5,71.3,76.4z M66.5,65.6c4.6,9.4,15.8,11.1,22.1,7.3
	C84.5,64.3,74.2,61.4,66.5,65.6z M62.5,68.5c-6.6,6.2-6.4,17.2,0.1,23.2C68.9,85.9,69.3,75.1,62.5,68.5z M36.5,72.9
	c8,4.4,18.4,0.7,22-7.1C51,61.6,40.7,64.5,36.5,72.9z M60.2,60.9c1.6-8.6-5-17.6-13.6-18.6C44.8,49.9,50.4,59.5,60.2,60.9z M65,60.9
	c9.8-1.4,15.2-11,13.6-18.6C69.7,43.4,63.4,52.5,65,60.9z"/>
<g>
	<g>
		<path class="st1" d="M64.7,81.2c-0.4,0-0.9-0.1-1.3-0.2c-0.8-0.2-1.6-0.7-2.1-1.4c-0.7-0.9-1-2.1-0.7-3.2
			c1.3-5.1,2.5-10.1,3.7-15.1c0.5-1.9,0.9-3.8,1.4-5.7h-3.3c-2.1,0-3.8-1.7-3.8-3.8v-4.2c0-2.1,1.7-3.8,3.8-3.8H76
			c2.1,0,3.8,1.7,3.8,3.8v0.5c0.3,3-0.4,5.6-1,8.2l-0.1,0.2c-1.7,7-3.5,14.2-5.1,21.3c0,0.1-0.1,0.2-0.1,0.4
			c-0.6,1.9-2.2,3.1-4.2,3.1H64.7z"/>
		<path class="st2" d="M76,47.6c0,0.2,0,0.4,0,0.6c0.2,2.5-0.4,4.9-1,7.4c-1.8,7.1-3.5,14.2-5.1,21.4c-0.1,0.4-0.2,0.5-0.6,0.5
			c-1.5,0-3,0-4.5,0c-0.1-0.1-0.2-0.1-0.5-0.1c2.1-8.5,4.1-16.9,6.2-25.5c-2.8,0-5.4,0-8.1,0c0-1.5,0-2.9,0-4.2
			C66.8,47.6,71.3,47.6,76,47.6 M76,40.1H62.3c-4.1,0-7.5,3.4-7.5,7.5v4.2c0,3.7,2.6,6.7,6.1,7.4c-0.1,0.4-0.2,0.8-0.3,1.2
			c-1.2,4.9-2.4,10.1-3.7,15.1c-0.6,2.2-0.1,4.6,1.4,6.4c1.1,1.4,2.6,2.4,4.3,2.7c0.7,0.2,1.4,0.3,2.1,0.3h4.5
			c3.6,0,6.6-2.2,7.7-5.6c0.1-0.2,0.1-0.5,0.2-0.7c1.6-7.1,3.4-14.3,5.1-21.3l0.1-0.2c0.7-2.7,1.4-5.7,1.2-9.3v-0.3
			C83.5,43.5,80.1,40.1,76,40.1L76,40.1z"/>
	</g>
	<g>
		<path class="st1" d="M53.3,81.1c-2.1,0-3.8-1.7-3.8-3.8V58.7c-0.2,0-0.4,0.1-0.6,0.1c-0.8,0-1.5-0.2-2.2-0.7c-1-0.7-1.6-1.8-1.6-3
			v-3.9c0-1.6,0.9-3.1,2.4-3.9c0.1,0,0.1-0.1,0.2-0.1c1.4-0.6,2.9-1.3,4-2.3c0.4-0.4,1.3-1.2,2.8-1.2H59c2.1,0,3.8,1.7,3.8,3.8v29.8
			c0,2-1.5,3.6-3.5,3.7C57.2,81.1,55.3,81.1,53.3,81.1z"/>
		<path class="st2" d="M59,47.5c0,10,0,19.9,0,29.8c-1.9,0.1-3.8,0.1-5.6,0.1c0-8,0-15.9,0-23.9c-1.5,0.5-2.9,1-4.4,1.5
			c0-0.4,0-0.8,0-1c0-0.9,0-1.9,0-2.9c0-0.2,0.1-0.4,0.4-0.5c1.8-0.8,3.6-1.6,5.1-3c0.1-0.1,0.1-0.1,0.2-0.1
			C56.1,47.5,57.6,47.5,59,47.5 M59,40h-4.2c-1.4,0-3.5,0.4-5.4,2.1c-0.7,0.6-2.2,1.3-3,1.6c-0.1,0.1-0.3,0.1-0.4,0.2
			c-2.8,1.4-4.5,4.1-4.5,7.2V54v1c0,2.4,1.2,4.7,3.1,6.1c0.4,0.3,0.8,0.5,1.3,0.7v15.6c0,4.1,3.4,7.5,7.5,7.5c2,0,4,0,6.1-0.1
			c3.9-0.3,7-3.5,7-7.5V47.5C66.5,43.4,63.1,40,59,40L59,40z"/>
	</g>
	<g>
		<path class="st1" d="M64.2,77.4c2.1-8.5,4.1-16.9,6.2-25.5c-2.8,0-5.4,0-8.1,0c0-1.5,0-2.9,0-4.2c4.5,0,9,0,13.6,0
			c0,0.2,0,0.4,0,0.6c0.2,2.5-0.4,4.9-1,7.4c-1.8,7.1-3.5,14.2-5.1,21.4c-0.1,0.4-0.2,0.5-0.6,0.5c-1.5,0-3,0-4.5,0
			C64.6,77.4,64.5,77.4,64.2,77.4z"/>
	</g>
</g>
</svg>
