<?xml version="1.0" encoding="utf-8"?>
<!-- Generator: Adobe Illustrator 24.0.3, SVG Export Plug-In . SVG Version: 6.00 Build 0)  -->
<svg version="1.1" id="Layer_1" xmlns="http://www.w3.org/2000/svg" xmlns:xlink="http://www.w3.org/1999/xlink" x="0px" y="0px"
	 viewBox="0 0 125 125" style="enable-background:new 0 0 125 125;" xml:space="preserve">
<style type="text/css">
	.st0{fill:#7C7C7C;}
	.st1{fill:#383838;}
	.st2{fill:#FFFFFF;}
</style>
<g>
	<path class="st0" d="M62.7,62.8c13.5,0,26.9,0,40.4,0c0.1,0,0.2,0,0.5,0c1.2,0,1.6,0.4,1.4,1.6c-1.1,5.9-3.4,11.2-7.1,16
		c-5.2,6.9-12,11.6-20.1,14.4c-0.6,0.2-0.9,0.4-0.8,1c0.1,0.5,0,1,0,1.5c0,0.9-0.4,1.1-1.1,1.2c-1.5,0-3.1,0-4.8,0
		c-6.9,0-13.9,0-20.7,0c-1.1,0-1.5-0.2-1.5-1.4c0-0.5,0-0.9,0-1.4c0-0.4-0.1-0.5-0.5-0.6c-3.9-1.2-7.5-2.9-10.9-5.2
		c-8.8-5.9-14.6-13.8-17-24.1c-0.1-0.6-0.3-1.1-0.4-1.8c-0.1-0.7,0.3-1.2,1-1.2c0.2,0,0.5,0,0.8,0C35.5,62.8,49.2,62.8,62.7,62.8z"
		/>
	<path class="st0" d="M79.9,59.5c0.2-1,0.5-2,0.5-3c0.1-2.6-0.9-4.8-2.5-6.8c-0.6-0.9-1.4-1.6-2-2.5c-2.6-3.8-3.1-7.8-2.1-12.1
		c0.6-2.6,1.6-5,3.1-7.2c0.8-1.2,2.2-1.6,3.6-1.1c1.4,0.5,1.8,1.9,1,3.2c-1.9,3-3.1,6.2-2.9,9.9c0.1,2.5,1.1,4.5,2.8,6.4
		c1.9,2,3.2,4.4,3.9,7c0.5,1.9,0.4,3.9,0,5.8c-0.1,0.2-0.1,0.5-0.5,0.5C83.2,59.5,81.5,59.5,79.9,59.5L79.9,59.5z"/>
	<path class="st0" d="M63.3,59.5c0.2-0.8,0.4-1.4,0.5-2.1c0.4-2.5-0.4-4.9-1.8-6.9c-0.6-0.9-1.4-1.6-2-2.4
		c-2.5-3.1-3.5-6.8-3.1-10.7c0.4-3.5,1.6-6.6,3.5-9.5c0.8-1.2,2.4-1.6,3.8-1c1.2,0.6,1.6,1.9,0.9,3.1c-1.5,2.2-2.5,4.7-2.8,7.5
		c-0.4,3.2,0.4,6.3,2.6,8.8c2,2.3,3.6,4.8,4.1,7.7c0.2,1.8,0.2,3.4-0.2,5.1c0,0.1-0.2,0.5-0.4,0.5C66.7,59.5,65,59.5,63.3,59.5z"/>
	<path class="st0" d="M46.9,59.5c0.3-1.1,0.5-2.1,0.5-3.2c0.1-2.6-1-4.9-2.8-6.8c-1.1-1.4-2.2-2.6-3-4.3c-1.8-3.6-1.8-7.4-0.7-11.1
		c0.6-2.2,1.6-4.4,2.9-6.4c0.8-1.2,2.2-1.6,3.6-1c1.4,0.6,1.8,1.9,0.9,3.1c-1.6,2.6-2.8,5.5-2.9,8.6c-0.1,2.9,0.8,5.4,2.8,7.6
		c1.6,1.8,3,3.8,3.8,6.1c0.8,2.3,0.8,4.4,0.3,6.6c-0.1,0.4-0.3,0.6-0.8,0.6c-1.4,0-2.9,0-4.4,0C47.2,59.5,47,59.5,46.9,59.5z"/>
</g>
<g>
	<path class="st1" d="M55.1,81.2c-1.8,0-2.9-0.9-3.4-1.6c-0.5-0.6-1-1.7-0.8-3.1c0-0.2,0-0.4,0-0.6c-0.1-0.9-0.1-2.1,0.3-3.5
		c0.4-1.4,1.2-2.4,1.8-3.2c0.1-0.1,0.2-0.3,0.3-0.4c1.2-1.8,2.3-3.6,3.5-5.4c0.3-0.5,0.7-1.1,1-1.6h-2.7c-1.5,0-2.7-0.6-3.5-1.7
		c-0.6-0.9-0.9-2-0.7-3.1c0-0.4,0-0.7,0.1-1.1c0.1-1,0.1-2.1,0.3-3.3c0-0.1,0-0.1,0-0.2c1.3-5.4,5.3-8.6,10.8-8.6
		c1.4,0,2.8,0.2,4.2,0.5c4.2,0.9,7.1,4.2,7.9,8.8c0,0.1,0,0.1,0,0.2c0.5,3.7-0.3,7-2.3,10.2L68,69.2h1c2.6,0,4.4,1.8,4.4,4.4v3.2
		c0,2.5-1.8,4.4-4.2,4.4H55.1z"/>
	<path class="st2" d="M62.1,47.5c1.1,0,2.2,0.1,3.4,0.4c2.8,0.6,4.5,2.9,5,5.8c0.4,2.9-0.2,5.4-1.8,7.8c-1.6,2.5-3.2,5-4.9,7.5
		c-0.9,1.2-1.6,2.5-2.5,3.8c-0.4,0-0.4,0.1-0.5,0.4c0.2,0,0.5,0,0.8,0c2.5,0,5,0,7.5,0c0.5,0,0.6,0.1,0.6,0.6c0,1.1,0,2.1,0,3.2
		c0,0.4-0.1,0.6-0.5,0.6c-4.8,0-9.5,0-14.1,0c-0.5,0-0.6-0.1-0.5-0.6c0-0.1,0-0.1,0-0.2c0-1.1-0.2-2.1,0.1-3.1c0.2-1,1-1.8,1.6-2.6
		c2.4-3.6,4.8-7.4,7.1-11c1-1.5,1.8-3.1,1.6-5c0-0.2,0-0.6-0.1-0.9c-0.2-1.1-0.9-1.8-1.9-1.9c-0.1,0-0.2,0-0.3,0
		c-1,0-1.7,0.5-2.2,1.5c-0.5,1.1-0.5,2.4-0.5,3.6c0,0.8,0,0.8-0.8,0.8c-1.4,0-2.9,0-4.2,0c-0.4,0-0.6-0.1-0.5-0.5
		c0.1-1.4,0.1-2.9,0.4-4.2C55.8,49.5,58.3,47.5,62.1,47.5 M62.1,40c-7.2,0-12.8,4.4-14.4,11.5c0,0.1-0.1,0.2-0.1,0.4
		c-0.2,1.4-0.3,2.6-0.4,3.7c0,0.3,0,0.6-0.1,0.8c-0.3,2,0.2,4.1,1.4,5.8c0.8,1.1,1.8,1.9,2.9,2.4c-0.4,0.6-0.8,1.3-1.3,1.9
		c-0.1,0.1-0.1,0.2-0.2,0.3c-0.7,0.9-1.8,2.3-2.4,4.4c-0.7,2.1-0.6,3.8-0.5,4.9c0,0.1,0,0.2,0,0.2c-0.3,2.7,0.8,4.6,1.6,5.6
		c0.9,1.1,2.9,3,6.4,3h14.1c4.5,0,8-3.6,8-8.1v-3.2c0-2.8-1.2-5.1-3.2-6.6l1-1.6c0,0,0-0.1,0.1-0.1c2.5-3.9,3.4-8.2,2.8-12.7
		c0-0.1,0-0.2,0-0.3c-1-6-5.2-10.5-10.7-11.8C65.4,40.2,63.7,40,62.1,40L62.1,40z"/>
</g>
</svg>
