<?xml version="1.0" encoding="utf-8"?>
<!-- Generator: Adobe Illustrator 24.0.3, SVG Export Plug-In . SVG Version: 6.00 Build 0)  -->
<svg version="1.1" id="Layer_1" xmlns="http://www.w3.org/2000/svg" xmlns:xlink="http://www.w3.org/1999/xlink" x="0px" y="0px"
	 viewBox="0 0 125 125" style="enable-background:new 0 0 125 125;" xml:space="preserve">
<style type="text/css">
	.st0{fill:#7C7C7C;}
	.st1{fill:#383838;}
	.st2{fill:#FFFFFF;}
</style>
<g>
	<path class="st0" d="M89.9,32.5c-0.1,0.2-0.2,0.5-0.2,0.7C84.9,49.1,80,65.1,75.2,81c-1.8,5.6-3.4,11.2-5.1,17
		c-0.4,1.1-0.9,1.5-1.9,1.5c-0.8,0-1.5-0.5-1.6-1.2c-0.2-1.5-0.6-3.1-0.9-4.6c-0.5-3.1-1.1-6.2-1.6-9.4c-0.6-3.4-1.1-6.8-1.8-10.1
		c-0.5-2.8-1-5.6-1.5-8.4c0,0,0-0.1-0.1-0.2c-0.1,0.2-0.3,0.4-0.4,0.5c-2.6,4.9-5.2,9.9-8,14.8c-0.2,0.5-0.6,1-1.2,1.2
		c-0.6,0.2-1.8-0.3-1.9-1.4c-0.2-1.6-0.5-3.4-0.7-5c-0.4-2.4-0.6-4.6-1-7c-0.2-2-0.6-4.1-0.9-6.1c-0.4-2.3-0.6-4.5-1-6.8
		c0-0.1-0.1-0.2-0.1-0.4c-0.1,0.2-0.2,0.4-0.2,0.6c-2.1,4.6-4.1,9.3-6.2,14c-0.4,0.9-1.1,1.2-2,1.2c-8.4,0-16.8,0-25,0
		c-1.2,0-2-0.6-2-1.8s0.8-1.9,1.7-1.9c0.1,0,0.3,0,0.4,0c7.8,0,15.5,0,23.4,0c0.5,0,0.8-0.1,1-0.6c2.8-6.2,5.5-12.4,8.2-18.6
		c0.2-0.6,0.7-1.2,1.5-1.2c1-0.1,1.9,0.5,2,1.5c0.4,2.7,0.8,5.5,1.1,8.2c0.4,2.5,0.7,5.1,1.1,7.6c0.4,2.5,0.8,5.1,1.1,7.6
		c0.1,0.8,0.2,1.5,0.4,2.5c0.2-0.2,0.2-0.5,0.4-0.6c2.6-4.9,5.3-9.8,7.9-14.8c0.4-0.6,0.8-1,1.5-1.1c1-0.1,1.8,0.5,1.9,1.4
		c0.4,2,0.8,4,1,5.9c0.6,3.4,1.1,6.6,1.8,10c0.6,3.5,1.2,7.1,1.9,10.6c0.1,1.1,0.4,2.1,0.5,3.1c0,0.1,0.1,0.2,0.1,0.4
		c0.1-0.2,0.2-0.5,0.2-0.7c3.1-10.5,6.4-21.1,9.5-31.6c3-10,6-20.1,9.1-30.1c0.4-1.2,1.4-1.9,2.4-1.4c0.4,0.3,0.9,0.6,1,1
		c2,4,3.9,8,5.9,12.1c1.2,2.6,2.5,5.2,3.8,7.9c0.1,0.4,0.4,0.6,0.4,1c0.1,0.9-0.4,1.8-1.1,2c-0.9,0.2-1.8-0.1-2.1-1
		c-0.6-1.2-1.2-2.6-1.9-3.9c-1.9-4-3.9-8-5.8-12C90.1,32.9,90,32.8,89.9,32.5z"/>
	<path class="st0" d="M102,81.4c-0.1-0.1-0.2-0.2-0.4-0.4c-3.5-3.5-7-7-10.5-10.5c-1.6-1.6-2.5-3.6-2.5-6c0.1-3,1.1-5.4,3.9-7
		c2.2-1.2,4.4-1.2,6.5,0.4c1,0.8,2,1.6,3,2.5c0.1-0.1,0.2-0.2,0.4-0.4c1-0.7,1.9-1.6,2.9-2.4c2.6-1.9,5.8-0.8,7.4,0.9
		c1.9,1.8,2.5,4,2.4,6.5c-0.1,2-0.9,3.9-2.3,5.4c-3.5,3.6-7.1,7.1-10.7,10.8C102.2,81.3,102.1,81.4,102,81.4z"/>
</g>
<g>
	<path class="st1" d="M62.6,81.5c-1.3,0-2.6-0.2-3.9-0.5c-0.1,0-0.1,0-0.2,0c-3.8-1.1-6.3-3.9-7.1-7.9c-0.2-0.9-0.2-1.7-0.3-2.5
		c-0.1-0.7-0.1-1.3-0.2-1.8c0-0.2-0.1-0.4-0.1-0.7c0-2.4,1.7-4.1,4.1-4.1H57c-0.1-0.4-0.1-0.7-0.1-1.1v-2.2h-2.1c-2.7,0-4.1-2-4.1-4
		c0-1.9,0-4.1,0.9-6.3c1.5-3.7,4.5-6,8.6-6.6c0.6-0.1,1.4-0.2,2.1-0.2c1.2,0,2.4,0.2,3.7,0.5c4.1,1.1,6.8,3.8,7.7,7.9
		c0.7,2.7,0.6,5.5-0.4,7.9c-0.2,0.6-0.5,1.2-0.8,1.8c0.7,1,1.2,2.2,1.4,3.6c0.7,3.5,0.4,6.8-0.8,9.9c-1.5,3.6-4.4,5.8-8.3,6.3
		C64.1,81.4,63.3,81.5,62.6,81.5z"/>
	<path class="st2" d="M62.2,47.2c0.9,0,1.8,0.1,2.8,0.4c2.8,0.8,4.4,2.4,5,5.1c0.5,1.9,0.5,3.9-0.2,5.8c-0.5,1.4-1.3,2.5-2.7,3.2
		c0,0-0.1,0-0.1,0c0,0,0-0.1,0-0.1c0,0,0,0,0,0c0,0,0,0-0.1,0c0,0,0.1,0,0.1,0c0,0,0,0.1-0.1,0.2c0.1,0,0.1-0.1,0.2-0.1
		c1.8,0.9,2.8,2.4,3.2,4.2c0.5,2.6,0.4,5.2-0.6,7.8c-1,2.4-2.8,3.6-5.4,4c-0.6,0.1-1.2,0.1-1.7,0.1c-1,0-2.1-0.1-3-0.4
		c-2.5-0.8-4-2.5-4.5-5c-0.2-1.4-0.2-2.9-0.5-4.2c0-0.4,0.1-0.4,0.4-0.4c1.5,0,3.1,0,4.8,0c0.4,0,0.4,0.1,0.5,0.5c0.1,1,0.1,2,0.4,3
		c0.3,1.3,1.2,1.8,2.2,1.8c0.2,0,0.5,0,0.7-0.1c0.6-0.1,1.1-0.6,1.2-1.2c0.5-1.9,0.5-3.9,0-5.8c-0.4-1.4-1.4-2-2.9-2
		c-1.1,0-1.1,0-1.1-1.1c0-0.9,0-1.6,0-2.5c0-0.4,0.1-0.5,0.5-0.5s0.9,0,1.2-0.1c1.2-0.1,2-0.9,2.2-2.1c0.4-1.4,0.4-2.9,0-4.2
		c-0.3-1.2-1.1-1.9-2.1-1.9c-0.2,0-0.5,0-0.8,0.1c-1.1,0.2-1.4,1.1-1.5,2s-0.1,1.8-0.2,2.8c0,0.4-0.1,0.5-0.5,0.5
		c-1.5,0-3.1,0-4.8,0c-0.2,0-0.4,0-0.4-0.2c0-1.8,0-3.4,0.6-5c1-2.5,3-3.9,5.6-4.2C61.2,47.3,61.7,47.2,62.2,47.2 M62.2,39.7
		c-0.9,0-1.8,0.1-2.7,0.2c-5.3,0.8-9.5,4-11.4,8.9c0,0,0,0.1,0,0.1c-1.1,2.9-1.1,5.6-1.1,7.7c0,2.3,1,4.3,2.5,5.7
		C48,63.8,47,65.8,47,68.1c0,0.4,0,0.9,0.1,1.3c0.1,0.3,0.1,0.9,0.2,1.4c0.1,0.8,0.2,1.8,0.3,2.8c0,0,0,0.1,0,0.1
		c1.1,5.3,4.6,9.2,9.7,10.7c0.1,0,0.2,0.1,0.3,0.1c1.6,0.4,3.2,0.6,4.8,0.6c0.9,0,1.9-0.1,2.8-0.2c5.2-0.8,9.2-3.8,11.2-8.5
		c0,0,0-0.1,0.1-0.1c1.5-3.7,1.8-7.7,1-11.9c0,0,0,0,0-0.1c-0.2-1.1-0.5-2-0.9-3c0-0.1,0.1-0.2,0.1-0.3c1.2-3.2,1.4-6.7,0.5-10.1
		c-1.3-5.3-4.9-9.1-10.3-10.6c-0.1,0-0.1,0-0.2,0C65.2,39.9,63.7,39.7,62.2,39.7L62.2,39.7z"/>
</g>
</svg>
