<?xml version="1.0" encoding="utf-8"?>
<!-- Generator: Adobe Illustrator 24.0.3, SVG Export Plug-In . SVG Version: 6.00 Build 0)  -->
<svg version="1.1" id="Layer_1" xmlns="http://www.w3.org/2000/svg" xmlns:xlink="http://www.w3.org/1999/xlink" x="0px" y="0px"
	 viewBox="0 0 125 125" style="enable-background:new 0 0 125 125;" xml:space="preserve">
<style type="text/css">
	.st0{fill:#7C7C7C;}
	.st1{fill:#383838;}
	.st2{fill:#FFFFFF;}
</style>
<g>
	<path class="st0" d="M84.3,83.9c-9.4,2.9-18.9,5.6-28.4,8.5c0-0.2,0-0.4,0-0.6c0-14.5,0-29.1,0-43.6c0-0.4,0.1-0.6,0.4-0.8
		c9.1-5.2,18.4-10.6,27.5-15.9c0.1-0.1,0.2-0.1,0.5-0.3C84.3,48.8,84.3,66.3,84.3,83.9z"/>
	<path class="st0" d="M52.8,92.4c-2.5-0.7-5-1.5-7.4-2.2c-6.8-2-13.5-4.1-20.3-6.1c-0.4-0.1-0.5-0.2-0.5-0.6c0-17.3,0-34.5,0-51.6
		c0-0.1,0-0.3,0-0.5c0.1,0.1,0.3,0.1,0.4,0.1c9.1,5.3,18.2,10.5,27.4,15.8c0.3,0.1,0.4,0.4,0.4,0.8c0,14.6,0,29.3,0,44
		C52.8,92,52.8,92.2,52.8,92.4z"/>
	<path class="st0" d="M87.4,31c1,0.7,2,1.5,2.9,2.2c0.1,0.1,0.1,0.2,0.1,0.4c0,0.1,0,0.2,0,0.5c0,17.5,0,35.1,0,52.6
		c0,0.6-0.1,0.8-0.8,1c-8.1,2.5-16.1,5.1-24.2,7.6c-3,1-6,1.9-9,2.9c-0.3,0.1-0.6,0.1-0.9,0.1c-2.6,0.2-5.1-0.6-7.6-1.2
		c-9.6-2.6-19.3-5.4-28.9-8c-0.5-0.1-0.6-0.2-0.6-0.8c0-18.1,0-36.1,0-54.3c0-0.4,0.1-0.7,0.5-1c0.8-0.5,1.4-1.1,2.1-1.6
		c0.1-0.1,0.2-0.1,0.4-0.2c0,0.2,0,0.5,0,0.7c0,18.1,0,36.1,0,54.2c0,0.6,0.1,0.8,0.8,0.9c10.1,2.7,20.1,5.6,30.2,8.4
		c1.2,0.4,2.8,0.4,4-0.1c9.5-3,19-6.1,28.6-9.2c0.6-0.2,1.2-0.4,1.9-0.6c0.2-0.1,0.4-0.2,0.4-0.5c0-0.1,0-0.2,0-0.5
		c0-17.5,0-35.1,0-52.6C87.4,31.7,87.4,31.4,87.4,31z"/>
	<path class="st0" d="M103.2,94.5c-0.2-1-0.5-1.9-0.7-2.7c-0.8-2.8-1.6-5.5-2.4-8.2c-0.1-0.2-0.1-0.6-0.1-0.9c0-15.4,0-30.6,0-46
		c0-0.1,0-0.2,0-0.5c2.2,0,4.4,0,6.6,0c0,0.1,0,0.4,0,0.5c0,15.4,0,30.6,0,46c0,0.6-0.2,1.2-0.4,1.9c-0.9,3.2-1.9,6.4-2.8,9.6
		C103.4,94.2,103.3,94.3,103.2,94.5z"/>
	<path class="st0" d="M106.6,33.4c-2.2,0-4.4,0-6.6,0c0-1.4-0.1-2.8,0-4.1c0.2-1.8,1.9-2.9,3.5-2.8c1.8,0.1,3,1.5,3,3.2
		C106.6,31,106.6,32.2,106.6,33.4z"/>
</g>
<g>
	<path class="st1" d="M63,81.1c-2.1,0-3.8-1.7-3.8-3.8v-3.2H54c-2.1,0-3.8-1.7-3.8-3.8v-0.8C50,66.9,50.6,64.1,52,61
		c1.6-3.6,3.2-7.4,4.7-11l1.3-3.2c0.7-1.8,2.3-2.9,4.2-2.9h5.9c2.1,0,3.8,1.7,3.8,3.8v14.9c1.6,0.4,2.9,1.9,2.9,3.6v4.2
		c0,1.8-1.2,3.3-2.9,3.6v3.4c0,2.1-1.7,3.8-3.8,3.8H63z"/>
	<path class="st2" d="M68.2,47.6c0,6.1,0,12.2,0,18.5c1,0,2,0,2.9,0c0,1.4,0,2.8,0,4.2c-1,0-1.9,0-2.9,0c0,2.4,0,4.8,0,7
		c-1.8,0-3.4,0-5.1,0c0-2.2,0-4.6,0-7c-3,0-6,0-9,0c0-0.4,0-0.6,0-1c-0.2-2.4,0.4-4.6,1.4-6.9c2.1-4.8,4.1-9.6,6.1-14.4
		c0.1-0.4,0.4-0.5,0.8-0.5c1.8,0,3.5,0,5.2,0C67.8,47.6,67.9,47.6,68.2,47.6 M63,53.8C63,53.8,62.9,53.8,63,53.8
		C62.9,53.8,63,53.8,63,53.8c-1.5,4.1-3,8.2-4.5,12.4c1.5,0,3,0,4.5,0C63,62,63,57.9,63,53.8 M68.2,40.1h-0.6h-5.2
		c-3.5,0-6.5,2-7.7,5.2c-0.4,1-0.9,2.1-1.3,3.1c-1.5,3.6-3.1,7.4-4.7,10.9c-1.1,2.4-2.4,5.9-2,10.3v0.7c0,4.1,3.4,7.5,7.5,7.5h1.5
		c0.3,3.9,3.5,7,7.5,7h5.1c4.1,0,7.5-3.4,7.5-7.5v-1.1c1.8-1.4,2.9-3.5,2.9-5.9v-4.2c0-2.4-1.1-4.5-2.9-5.9V47.6
		C75.7,43.5,72.3,40.1,68.2,40.1L68.2,40.1z"/>
</g>
</svg>
