<?xml version="1.0" encoding="utf-8"?>
<!-- Generator: Adobe Illustrator 24.0.3, SVG Export Plug-In . SVG Version: 6.00 Build 0)  -->
<svg version="1.1" id="Layer_1" xmlns="http://www.w3.org/2000/svg" xmlns:xlink="http://www.w3.org/1999/xlink" x="0px" y="0px"
	 viewBox="0 0 125 125" style="enable-background:new 0 0 125 125;" xml:space="preserve">
<style type="text/css">
	.st0{fill:#7C7C7C;}
	.st1{fill:#383838;}
	.st2{fill:#FFFFFF;}
</style>
<g>
	<path class="st0" d="M72.6,36.2c2.9-2.9,5.8-5.7,8.6-8.6c-0.1,0-0.4,0-0.5,0c-2.2,0-4.5,0-6.8,0c-0.5,0-0.6-0.1-0.6-0.6
		c0-1.9,0-3.9,0-5.7c0-0.4,0.1-0.6,0.6-0.6c6.2,0,12.6,0,18.9,0c0.6,0,0.6,0.2,0.6,0.7c0,4,0,8,0,12c0,2.2,0,4.5,0,6.6
		c0,0.6,0,0.6-0.6,0.6c-1.9,0-3.8,0-5.6,0c-0.5,0-0.6-0.1-0.6-0.6c0-2,0-4.1,0-6.1c0-0.2,0-0.4,0-0.8c-0.2,0.3-0.4,0.4-0.5,0.4
		c-2.6,2.6-5.1,5.1-7.8,7.8c-0.2,0.3-0.2,0.5-0.1,0.9c3.2,4.9,4.8,10.2,4.4,16.1c-0.7,11-8.6,20.4-19.4,23c-0.5,0.1-1.1,0.2-1.6,0.4
		c-0.2,0-0.4,0.1-0.4,0.5c0,2.2,0,4.5,0,6.9c0,0.4,0.1,0.5,0.5,0.5c2.3,0,4.6,0,6.9,0c0.5,0,0.6,0.1,0.6,0.6c0,2,0,4.1,0,6.1
		c0,0.5-0.1,0.6-0.6,0.6c-2.3,0-4.5,0-6.8,0c-0.5,0-0.6,0.1-0.6,0.6c0,2.1,0,4.2,0,6.4c0,0.5-0.1,0.6-0.6,0.6c-2.1,0-4.1,0-6.2,0
		c-0.4,0-0.6-0.1-0.6-0.6c0-2.1,0-4.2,0-6.2c0-0.8,0-0.8-0.8-0.8c-2.2,0-4.4,0-6.5,0c-0.5,0-0.6-0.1-0.6-0.6c0-2,0-4.1,0-6.1
		c0-0.5,0.1-0.6,0.6-0.6c2.2,0,4.6,0,6.9,0c0.4,0,0.6-0.1,0.6-0.6c0-2.1,0-4.2,0-6.5c0-0.4-0.1-0.6-0.5-0.6
		c-10.1-1.9-17.1-7.6-20.5-17.2c-4.1-11.9,1.4-24.9,12.4-30.6c4.1-2.1,8.5-3.1,13-2.9C63.6,31.2,68.2,32.9,72.6,36.2
		C72.3,36.1,72.6,36.2,72.6,36.2z M75.8,56.4c0-10.4-8.5-18.9-18.6-18.9c-10.1-0.1-19,8-19.1,18.6c-0.1,10.6,8.3,19.1,18.8,19.1
		S75.8,66.9,75.8,56.4z"/>
	<path class="st0" d="M57.1,64.6c-3.8,0-7.4,0-11.1,0c-0.5,0-0.6-0.1-0.6-0.6c0-1.6,0-3.2,0-4.8c0-0.4,0.1-0.5,0.5-0.5
		c7.4,0,14.9,0,22.3,0c0.4,0,0.5,0.1,0.5,0.6c0,1.6,0,3.2,0,4.8c0,0.5-0.1,0.6-0.6,0.6C64.4,64.6,60.7,64.6,57.1,64.6z"/>
	<path class="st0" d="M56.9,48.8c3.6,0,7.4,0,11,0c0.5,0,0.6,0.1,0.6,0.6c0,1.5,0,3.1,0,4.8c0,0.4-0.1,0.6-0.5,0.6
		c-7.4,0-14.9,0-22.2,0c-0.4,0-0.6-0.1-0.6-0.6c0-1.6,0-3.2,0-4.8c0-0.5,0.1-0.6,0.6-0.6C49.6,48.8,53.3,48.8,56.9,48.8z"/>
</g>
<g>
	<path class="st1" d="M62.2,81.3c-1.6,0-2.9-0.2-4.3-0.6c-3.2-1-5.4-3.2-6.4-6.3c-0.4-1.4-0.5-2.8-0.6-4.3c0-0.3,0-0.7-0.1-1.1
		c-0.1-1,0.3-2,1-2.8c-0.5-0.7-0.7-1.5-0.7-2.5c0,0,0-0.1,0-0.1c0.1-3.4,0.2-6.9,0.2-10.5c0-0.9,0-1.7,0.1-2.6
		c0-0.8,0.1-1.5,0.1-2.3v-0.9c0-2.1,1.7-3.8,3.8-3.8h13.8c2.1,0,3.8,1.7,3.8,3.8v4.2c0,1.9-1.1,3.5-2.8,4c0.9,0.7,1.6,1.7,2.2,2.8
		c0.9,1.7,1.5,3.7,1.7,5.9c0.3,3.1,0.1,6.2-0.6,9c-1.1,4.5-4.4,7.4-9.1,7.9c-0.1,0-0.1,0-0.2,0C63.4,81.3,62.8,81.3,62.2,81.3z"/>
	<path class="st2" d="M69.1,47.4c0,0.6,0,1.1,0,1.8c0,0.9,0,1.6,0,2.5c0,0.4-0.1,0.5-0.5,0.5c-2.6,0-5.1,0-7.8,0c-0.2,0-0.5,0-0.8,0
		c-0.1,2.2-0.2,4.4-0.4,6.4c0.9-0.4,1.9-0.8,2.8-1c0.5-0.1,1-0.2,1.6-0.2s1.1,0.1,1.6,0.2c1.6,0.4,2.6,1.4,3.4,2.8s1.1,2.9,1.2,4.4
		c0.2,2.6,0.1,5.2-0.5,7.8c-0.8,3-2.8,4.8-5.9,5.1c-0.5,0-1.1,0.1-1.6,0.1c-1,0-2.1-0.1-3.2-0.4c-2-0.6-3.2-1.9-3.9-3.9
		c-0.4-1.2-0.4-2.8-0.5-4.5c0.2,0,0.4,0,0.5,0c1.5,0,3,0,4.5,0c0.4,0,0.5,0.1,0.5,0.5c0.1,1,0.1,2,0.4,2.9c0.2,1,0.9,1.4,1.8,1.4
		c0.1,0,0.2,0,0.4,0c0.8,0,1.4-0.4,1.6-1.1c0.2-0.9,0.4-1.8,0.5-2.6c0.1-2,0.2-4.1-0.2-6.1c-0.3-1.3-1.2-2-2.2-2
		c-0.4,0-0.8,0.1-1.2,0.3c-0.8,0.4-1.1,1-1.2,1.8c-0.1,0.4-0.3,0.7-0.6,0.7c-0.1,0-0.2,0-0.2,0c-1.2,0-2.4,0-3.6,0
		c-0.4,0-0.5-0.1-0.5-0.5c0.1-3.5,0.2-7,0.2-10.6c0-1.6,0.1-3.2,0.1-4.9c0-0.2,0-0.6,0-0.9C59.9,47.4,64.4,47.4,69.1,47.4
		 M69.1,39.9H55.3c-4.1,0-7.5,3.4-7.5,7.5v0.9c0,0.7,0,1.4-0.1,2.1c0,0.9-0.1,1.8-0.1,2.7c0,3.5-0.1,6.8-0.2,10.4c0,0.1,0,0.2,0,0.3
		c0,0.8,0.1,1.5,0.3,2.2c-0.4,1-0.6,2.2-0.5,3.3c0,0.4,0,0.7,0.1,1c0.1,1.5,0.2,3.3,0.7,5.1c0,0,0,0.1,0,0.1
		c1.4,4.3,4.5,7.4,8.8,8.8c1.7,0.5,3.5,0.8,5.4,0.8c0.7,0,1.4,0,2.2-0.1c0.1,0,0.2,0,0.3,0c6.2-0.7,10.8-4.8,12.3-10.8
		c0.8-3.2,1-6.6,0.7-10.2c-0.2-2.7-0.9-5.1-2.1-7.3c-0.1-0.2-0.2-0.4-0.3-0.5c0.9-1.3,1.3-2.8,1.3-4.5v-2.5v-1.8
		C76.6,43.3,73.2,39.9,69.1,39.9L69.1,39.9z"/>
</g>
</svg>
