<?xml version="1.0" encoding="utf-8"?>
<!-- Generator: Adobe Illustrator 24.0.3, SVG Export Plug-In . SVG Version: 6.00 Build 0)  -->
<svg version="1.1" id="Layer_1" xmlns="http://www.w3.org/2000/svg" xmlns:xlink="http://www.w3.org/1999/xlink" x="0px" y="0px"
	 viewBox="0 0 125 125" style="enable-background:new 0 0 125 125;" xml:space="preserve">
<style type="text/css">
	.st0{fill:#7C7C7C;}
	.st1{fill:#383838;}
	.st2{fill:#FFFFFF;}
</style>
<g>
	<path class="st0" d="M74.1,91.2c-3.8,3.8-7.5,7.5-11.2,11.2c-3.8-3.8-7.5-7.5-11.2-11.2c0,0,0.1,0,0.2,0c1.2,0,2.5,0,3.8,0
		c0.5,0,0.6-0.1,0.6-0.6c-0.2-2.6-0.5-5.1-0.7-7.8c-0.1-1.2-0.1-1.2-1.4-1.2c-3.4,0-6.8,0-10.1,0c-0.9,0-1-0.1-1.1-1
		c-0.6-3.4-1.1-6.9-1.8-10.2c-0.7-4.5-1.5-9.1-2.2-13.6c-0.9-5.1-1.8-10.2-2.5-15.5c-0.9-5.5-1.9-11.1-2.8-16.6
		c-0.1-0.5-0.1-1-0.2-1.4c-0.1-0.6,0.1-0.7,0.6-0.7c0.1,0,0.4,0,0.5,0c18.6,0,37.2,0,56,0c0.2,0,0.4,0,0.6,0c0.5,0,0.6,0.3,0.6,0.7
		c-0.4,2.9-0.9,5.7-1.4,8.6c-0.6,4-1.2,8-1.9,12c-0.6,3.9-1.2,7.9-1.9,11.8c-0.6,4-1.2,7.9-1.9,11.9c-0.6,3.9-1.2,7.7-1.9,11.6
		c-0.1,0.6-0.1,1.1-0.2,1.8c-0.1,0.6-0.2,0.7-0.9,0.7c-3.8,0-7.4,0-11,0c-0.5,0-0.7,0.1-0.7,0.6c-0.1,1.9-0.2,3.8-0.5,5.6
		c-0.1,0.9-0.1,1.9-0.2,2.8c0,0.4,0.1,0.5,0.5,0.5c1.2,0,2.6,0,3.9,0C73.8,91.1,74,91.2,74.1,91.2z M87.7,34.7
		c0-0.1,0.1-0.2,0.1-0.2c0.5-2.9,1-5.9,1.5-8.8c0.1-0.9,0.1-0.9-0.7-0.9c-14.6,0-29.3,0-44,0c-2.8,0-5.4,0-8.1,0
		c-0.6,0-0.6,0.1-0.5,0.6c0.6,3.1,1.2,6.2,1.9,9.4c0.4,1.8,0.4,1.8,2.2,1.6c2.5-0.2,5-1,7.4-1.9c1.5-0.5,2.9-1,4.5-1
		c1.9,0,3.5,0.4,5.3,1c2.2,0.9,4.5,1.8,6.8,2.5c3.6,1.1,7.4,1.4,11,0.5c2.5-0.5,4.9-1.4,7.4-2.4c1.8-0.6,3.4-1,5.2-0.4
		C87.6,34.7,87.7,34.7,87.7,34.7z M62.8,44.2c-0.1,0.1-0.2,0.2-0.2,0.4c-2.5,3.9-5,7.6-7.5,11.5c-1.5,2.1-2.1,4.5-1.9,7
		c0.2,3.2,1.9,5.6,4.6,7.3c2,1.1,4.3,1.2,6.5,1c4.9-0.5,8.1-4.4,8.1-9c0-2.1-0.6-4.1-1.8-6c-2.5-4-5.1-7.9-7.6-11.9
		C63,44.5,63,44.4,62.8,44.2z"/>
</g>
<g>
	<path class="st1" d="M63.2,81.4c-1.6,0-3.7,0-5.8-1c-3.1-1.4-5.2-4-6-7.4c-0.4-1.5-0.6-3.2-0.6-5c-0.1-2.6-0.1-5.3,0-7.9
		c0-1.3,0-2.6,0-3.8c0-2.4,0.5-4.6,1.4-6.9c1.2-2.9,3.6-4.9,6.6-5.5c1.2-0.3,2.5-0.5,3.8-0.5c1.1,0,2.2,0.1,3.2,0.3
		c4.2,0.8,6.9,3.6,7.7,7.9c0.1,0.6,0.1,1,0.2,1.5c0,0.3,0,0.5,0.1,0.8c0,0.2,0.1,0.4,0.1,0.6c0,1.6-0.8,3-2,3.7
		c0.5,0.7,1,1.5,1.3,2.4c0.6,1.4,0.9,3.1,1.1,5.1c0,0,0,0.1,0,0.1c0.2,3.1-0.1,5.6-0.9,8c-1.4,4.5-5.1,7.2-9.9,7.4
		C63.3,81.4,63.2,81.4,63.2,81.4z"/>
	<path class="st2" d="M62.6,47.3c0.8,0,1.7,0.1,2.5,0.3c2.8,0.5,4.2,2.2,4.8,4.9c0.1,0.8,0.1,1.5,0.2,2.2c0,0.4-0.1,0.5-0.5,0.5
		c-1.4,0-2.9,0-4.2,0c-0.4,0-0.5-0.1-0.5-0.5c0-0.6-0.1-1.1-0.2-1.8c-0.1-0.9-0.8-1.4-1.5-1.5c-0.2,0-0.3,0-0.5,0
		c-0.8,0-1.4,0.3-1.7,1c-0.2,0.9-0.5,1.9-0.6,2.9c-0.1,1.6,0,3.1,0,4.8c0,0,0.1,0.1,0.1,0.2c0.8-1,1.8-1.4,2.8-1.5
		c0.4,0,0.8-0.1,1.3-0.1c0.8,0,1.5,0.1,2.2,0.3c1.5,0.5,2.5,1.6,3,3c0.5,1.2,0.8,2.8,0.9,4.1c0.1,2.2,0,4.4-0.8,6.6
		c-1,3.1-3.2,4.8-6.5,4.9c-1.4,0-2.9,0-4.2-0.6c-2.1-1-3.4-2.8-3.9-4.9c-0.4-1.4-0.5-2.8-0.5-4.1c-0.1-3.9,0-7.8,0-11.6
		c0-1.9,0.4-3.6,1.1-5.4s2.1-3,4-3.4C60.6,47.4,61.6,47.3,62.6,47.3 M62.8,73.4c0.8-0.1,1.2-0.5,1.5-1.2c0.1-0.4,0.2-0.8,0.2-1.1
		c0.4-2,0.2-4,0.1-6c-0.1-1.2-0.9-2-1.9-2.1c-0.1,0-0.3,0-0.4,0c-0.8,0-1.5,0.4-2,1c-0.1,0.2-0.2,0.5-0.2,0.8c0,0.9,0,1.8,0,2.8
		c0,0.9,0,1.8,0,2.5c0,0.9,0.2,1.9,0.8,2.6C61.4,73.2,62.1,73.4,62.8,73.4 M62.6,39.8c-1.6,0-3.2,0.2-4.7,0.6
		c-4.1,0.9-7.4,3.7-9.1,7.7c-1.2,2.7-1.7,5.4-1.7,8.3c0,1.3,0,2.5,0,3.8c0,2.6-0.1,5.3,0,8c0,2.1,0.2,4,0.7,5.8
		c1.1,4.4,3.9,7.9,8,9.8c0,0,0.1,0,0.1,0c2.9,1.3,5.6,1.3,7.4,1.3c0.1,0,0.2,0,0.3,0c6.4-0.2,11.4-4,13.3-10
		c1.3-3.8,1.2-7.2,1.1-9.4c0-0.1,0-0.2,0-0.3c-0.2-2.4-0.7-4.4-1.3-6.1c-0.1-0.2-0.1-0.3-0.2-0.5c0.7-1.2,1.2-2.7,1.2-4.2
		c0-0.4,0-0.8-0.1-1.2c0-0.1,0-0.3,0-0.5c0-0.5-0.1-1.1-0.2-1.7c0-0.1,0-0.1,0-0.2c-1.1-5.7-5.1-9.8-10.7-10.8
		C65.2,39.9,63.9,39.8,62.6,39.8L62.6,39.8z"/>
</g>
</svg>
