<?xml version="1.0" encoding="utf-8"?>
<!-- Generator: Adobe Illustrator 24.0.3, SVG Export Plug-In . SVG Version: 6.00 Build 0)  -->
<svg version="1.1" id="Layer_1" xmlns="http://www.w3.org/2000/svg" xmlns:xlink="http://www.w3.org/1999/xlink" x="0px" y="0px"
	 viewBox="0 0 125 125" style="enable-background:new 0 0 125 125;" xml:space="preserve">
<style type="text/css">
	.st0{fill:#7C7C7C;}
	.st1{fill:#383838;}
	.st2{fill:#FFFFFF;}
</style>
<g>
	<path class="st0" d="M62.4,39.6c12.8,0,23,10.2,23,23c0,12.5-10,23.1-23,23.1c-12.9,0-23-10.4-23-22.8C39.3,50,49.5,39.6,62.4,39.6
		z M66,51c0,0.2-0.1,0.5-0.1,0.8c0,1,0,2,0,3c0,0.5,0.1,0.9,0.6,1.1c2.9,1.8,4.2,5,3.5,8.2c-0.9,4.1-4.5,6.6-8.8,6.1
		c-3.5-0.4-6.9-3.5-6.8-8c0.1-2.9,1.4-5.1,3.9-6.5c0.3-0.2,0.4-0.4,0.4-0.7c0-1.1,0-2.3,0-3.4c0-0.1,0-0.4-0.1-0.6
		c-2.2,0.7-4,1.9-5.5,3.6c-2,2.4-3,5.1-2.9,8.2c0.3,6.6,5.6,11.6,12.1,11.6c6.5-0.1,11.9-5.2,12-11.8c0.1-3.1-1-5.9-3-8.2
		C69.9,52.9,68.1,51.8,66,51z M64.1,52.6c0-1.2,0-2.5,0-3.8c0-1.1-0.8-1.9-1.8-1.9c-1,0-1.8,0.8-1.8,1.9c0,2.5,0,5,0,7.5
		c0,1,0.7,1.9,1.8,1.9c0.9,0,1.8-0.9,1.8-1.9C64.1,55.1,64.1,53.9,64.1,52.6z"/>
	<path class="st0" d="M83.4,29.4c-0.1,0.3-0.1,0.6-0.2,0.9c-1.6,2.9-3.2,5.7-4.9,8.6c-0.5,0.9-1.6,1.1-2.5,0.6
		C74.9,39,74.5,37.9,75,37c1.6-2.9,3.2-5.7,5-8.6c0.4-0.7,1.4-1,2.2-0.7C82.8,27.8,83.3,28.5,83.4,29.4z"/>
	<path class="st0" d="M39.6,48c0,1.8-1.5,2.6-2.8,2c-2.1-1.1-4.2-2.4-6.2-3.6c-0.7-0.4-1.5-0.9-2.2-1.2c-0.9-0.5-1.2-1.6-0.7-2.5
		c0.5-0.9,1.6-1.2,2.6-0.6c2.9,1.6,5.6,3.2,8.5,4.9C39.4,47.1,39.6,47.6,39.6,48z"/>
	<path class="st0" d="M48,39.8c-0.5,0-1.1-0.2-1.5-1c-1.6-2.8-3.1-5.5-4.8-8.2c-0.2-0.4-0.4-0.9-0.4-1.2c0-0.9,0.5-1.6,1.4-1.8
		c0.9-0.2,1.6,0.1,2.1,0.9c1.6,2.9,3.2,5.7,4.9,8.6C50.6,38.3,49.8,39.8,48,39.8z"/>
	<path class="st0" d="M50.3,87.3c-0.1,0.2-0.1,0.6-0.4,0.9c-1.6,2.7-3.2,5.6-4.8,8.4c-0.6,1-1.6,1.2-2.6,0.8
		c-0.9-0.5-1.2-1.6-0.6-2.6c1.6-2.9,3.2-5.6,4.9-8.5c0.5-0.8,1.4-1.1,2.2-0.9C49.6,85.5,50.1,86.3,50.3,87.3z"/>
	<path class="st0" d="M97.5,81.5c0,1.4-1.5,2.4-2.7,1.6c-2.9-1.6-5.8-3.2-8.6-4.9c-0.9-0.5-1.1-1.6-0.6-2.5c0.5-0.9,1.6-1.2,2.5-0.8
		c2.9,1.6,5.9,3.4,8.8,5C97.3,80.3,97.5,80.9,97.5,81.5z"/>
	<path class="st0" d="M87.1,50.3c-0.9-0.1-1.6-0.6-1.9-1.4c-0.2-0.9,0.1-1.8,0.9-2.1c2.9-1.6,5.6-3.2,8.5-4.9c0.9-0.5,2-0.2,2.5,0.6
		c0.5,0.9,0.2,2-0.8,2.6c-2.7,1.6-5.6,3.2-8.4,4.9C87.8,50,87.4,50.1,87.1,50.3z"/>
	<path class="st0" d="M39.6,76.6c0,0.8-0.2,1.4-1,1.8c-2.9,1.6-5.6,3.2-8.5,4.9c-0.9,0.5-2.1,0.2-2.6-0.6c-0.5-0.9-0.3-2,0.7-2.5
		c2.9-1.6,5.6-3.2,8.5-4.9C38.1,74.3,39.6,75.1,39.6,76.6z"/>
	<path class="st0" d="M76.5,85.3c0.8,0,1.2,0.2,1.6,0.9c1.6,2.9,3.2,5.6,4.9,8.5c0.6,1.2,0,2.6-1.4,2.8c-0.8,0.1-1.4-0.1-1.9-0.9
		c-1.6-2.9-3.4-5.7-5-8.6C74.3,86.8,75.1,85.3,76.5,85.3z"/>
	<path class="st0" d="M95.8,64.4c-1.6,0-3.1,0-4.8,0c-1.2,0-2-0.8-2-1.9c0-1.1,0.9-1.9,2-1.9c3.2,0,6.4,0,9.6,0
		c0.9,0,1.5,0.5,1.9,1.2c0.2,0.7,0,1.6-0.6,2c-0.4,0.2-0.9,0.4-1.2,0.4C99,64.4,97.4,64.4,95.8,64.4z"/>
	<path class="st0" d="M60.5,29.1c0-1.6,0-3.2,0-4.8c0-1.1,0.8-2,1.9-2c1.1,0,1.9,0.9,1.9,2c0,3.2,0,6.5,0,9.6c0,1.1-0.9,2-1.9,2
		c-1.1,0-1.9-0.9-1.9-2C60.5,32.4,60.5,30.8,60.5,29.1z"/>
	<path class="st0" d="M64.3,95.9c0,1.6,0,3.2,0,4.9c0,0.9-0.5,1.5-1.3,1.8c-0.7,0.2-1.6,0.1-2-0.6c-0.2-0.4-0.4-0.8-0.4-1.1
		c0-3.2,0-6.6,0-9.9c0-1.1,0.8-1.9,1.9-1.9c1,0,1.9,0.8,1.9,1.9C64.3,92.5,64.3,94.1,64.3,95.9z"/>
	<path class="st0" d="M29.1,64.4c-1.6,0-3.2,0-4.8,0c-1.1,0-2-0.8-2-1.9c0-1,0.9-1.9,2-1.9c3.2,0,6.5,0,9.6,0c0.9,0,1.6,0.6,1.9,1.4
		c0.3,0.8-0.1,1.6-0.9,2c-0.4,0.1-0.7,0.2-1.1,0.2C32.3,64.4,30.6,64.4,29.1,64.4z"/>
</g>
<g>
	<path class="st1" d="M57.5,81.2c-1.2,0-2.2-0.5-2.9-1.4c-0.7-0.9-1-2.1-0.7-3.2l1.7-6.9c1.2-4.8,2.3-9.4,3.4-14.1h-2.7
		c-2.6,0-4.4-1.8-4.4-4.4v-3.1c0-2.5,1.8-4.2,4.2-4.2h12.6c2,0,4.1,1.3,4.2,4.2c0.3,3.1-0.5,5.9-1.1,8.4c-0.9,3.5-1.7,7-2.5,10.5
		c-0.8,3.5-1.7,7-2.5,10.5c-0.5,2.5-2,3.7-4.7,3.7H57.5z"/>
	<path class="st2" d="M68.8,47.6c0.5,0,0.5,0.2,0.5,0.6c0.2,2.5-0.4,4.9-1,7.2c-1.8,7.1-3.4,14.1-5.1,21.2c-0.1,0.8-0.1,0.8-1,0.8
		c-1.4,0-2.8,0-4,0c-0.2,0-0.4,0-0.6,0c2.1-8.8,4.1-17.1,6.2-25.6c-0.4,0-0.5,0-0.8,0c-2.2,0-4.5,0-6.8,0c-0.5,0-0.6-0.1-0.6-0.6
		c0-1,0-2.1,0-3.1c0-0.4,0.1-0.5,0.5-0.5C60.4,47.6,64.7,47.6,68.8,47.6 M68.8,40.1H56.2c-4.5,0-8,3.5-8,8v3.1c0,3.9,2.5,7,6.1,7.9
		c-0.8,3.2-1.6,6.4-2.3,9.7c-0.6,2.3-1.1,4.6-1.7,6.9c-0.5,2.2,0,4.6,1.4,6.4c1.4,1.8,3.6,2.9,5.9,2.9h0.6h4c4.4,0,7.5-2.5,8.3-6.7
		c0.9-3.5,1.7-7.1,2.5-10.5c0.8-3.4,1.7-7,2.5-10.5c0.7-2.6,1.5-5.9,1.2-9.6C76.5,42.7,72.5,40.1,68.8,40.1L68.8,40.1z"/>
</g>
</svg>
