<?xml version="1.0" encoding="utf-8"?>
<!-- Generator: Adobe Illustrator 24.0.3, SVG Export Plug-In . SVG Version: 6.00 Build 0)  -->
<svg version="1.1" id="Layer_1" xmlns="http://www.w3.org/2000/svg" xmlns:xlink="http://www.w3.org/1999/xlink" x="0px" y="0px"
	 viewBox="0 0 125 125" style="enable-background:new 0 0 125 125;" xml:space="preserve">
<style type="text/css">
	.st0{fill:#7C7C7C;}
	.st1{fill:#383838;}
	.st2{fill:#FFFFFF;}
</style>
<g>
	<path class="st0" d="M94.4,71.8c0,9.8,0,19.6,0,29.4c0,1.1-0.2,1.4-1.4,1.4c-5.2,0-10.4,0-15.6,0c-1.1,0-1.4-0.2-1.4-1.4
		c0-14,0-28,0-41.9c0-1.1,0.4-2,1.2-2.9c5.2-4.9,10.5-9.9,15.6-14.9l0,0c0.2-0.2,0.6-0.6,1-0.4c0.4,0.2,0.4,0.6,0.4,1
		c0,5.6,0,11.2,0,16.9C94.4,63.3,94.4,67.5,94.4,71.8z"/>
	<path class="st0" d="M71.5,82.9c0,6.1,0,12.2,0,18.4c0,1-0.2,1.2-1.2,1.2c-5.2,0-10.5,0-15.7,0c-1.1,0-1.3-0.2-1.3-1.4
		c0-12,0-24,0-36l0,0c0-0.4-0.1-1,0.4-1.1c0.4-0.1,0.9,0.2,1.1,0.5c2.2,2.3,4.5,4.6,6.8,6.9c0.5,0.6,0.6,0.6,1.1,0
		c2.5-2.5,4.9-4.9,7.4-7.4c0.4-0.4,0.6-0.8,1.2-0.5c0.5,0.2,0.4,0.7,0.4,1.2C71.5,70.8,71.5,76.9,71.5,82.9z"/>
	<path class="st0" d="M48.2,81.6c0,6.5,0,13,0,19.5c0,1.1-0.2,1.4-1.4,1.4c-5.3,0-10.5,0-15.6,0c-1.1,0-1.2-0.2-1.2-1.2
		c0-7.5,0-15,0-22.5c0-1,0.4-1.8,1.1-2.5c5.2-5,10.5-10,15.8-15c0.2-0.2,0.6-0.8,1.1-0.5c0.5,0.2,0.4,0.8,0.4,1.1
		C48.2,68.5,48.2,75.1,48.2,81.6z"/>
	<path class="st0" d="M61.9,56.8c9.2-9.3,18.5-18.5,27.9-27.9c-0.9-0.9-1.8-1.8-2.6-2.6c-0.1-0.1-0.4-0.5-0.2-0.6
		c0-0.1,0.4-0.4,0.6-0.4c4-0.9,8-1.8,12-2.8c0.7-0.1,1,0,0.7,0.7c-0.9,4.1-1.8,8.1-2.6,12.2c-0.1,0.6-0.5,0.6-0.9,0.2
		c-0.8-0.7-1.6-1.6-2.4-2.4c-0.1-0.1-0.2-0.2-0.5-0.5c-0.1,0.3-0.2,0.5-0.4,0.6C83.4,43.6,73.1,53.9,63,64c-0.8,0.8-0.8,0.8-1.4,0
		c-4-4-8-8-11.9-11.9c-0.1-0.1-0.2-0.4-0.4-0.5c-0.1,0-0.1,0-0.3-0.1c-0.1,0.2-0.2,0.4-0.4,0.6c-6.5,6.5-13,13-19.5,19.5
		c-0.6,0.6-0.6,0.6-1.2,0c-1-1-2-2-3-3c-0.4-0.4-0.4-0.6,0-0.9c7.9-7.9,15.8-15.8,23.6-23.6c0.4-0.4,0.6-0.4,0.9,0
		c4,4,8.1,8.1,12.1,12.1C61.7,56.5,61.9,56.6,61.9,56.8z"/>
</g>
<g>
	<path class="st1" d="M62.4,81.5c-1.1,0-2-0.1-2.9-0.2c-0.1,0-0.2,0-0.3,0c-3.4-0.8-6.1-3-7.4-6.3c0-0.1-0.1-0.1-0.1-0.2
		c-1.3-3.8-1.3-7.4-0.1-10.9c0-0.1,0.1-0.1,0.1-0.2c0.2-0.4,0.5-1.2,1.1-2c-0.3-0.5-0.6-1.1-0.8-1.7c-1.3-3.5-1.2-6.9,0.1-10.2
		c0-0.1,0-0.1,0.1-0.2c1.5-3.3,4.4-5.4,8.1-5.9c0.6-0.1,1.3-0.1,2-0.1c1.2,0,2.4,0.1,3.5,0.4c0.1,0,0.2,0.1,0.3,0.1
		c3.8,1.2,6.2,3.9,7,7.7c0.5,2.1,0.5,4.4,0.1,6.6c-0.1,1.1-0.4,2.2-1,3.2c0.4,0.6,0.7,1.2,0.9,1.8c0.5,1.2,0.8,2.5,1,3.5
		c0,0,0,0.1,0,0.1c0.4,2.4,0.2,5-0.6,7.5c0,0,0,0.1,0,0.1c-1.4,4-4.4,6.3-8.8,7c-0.1,0-0.2,0-0.2,0C63.7,81.5,63,81.5,62.4,81.5z"/>
	<path class="st2" d="M62.2,47.2c0.9,0,1.8,0.1,2.7,0.3c2.5,0.8,4,2.4,4.5,4.9c0.4,1.7,0.4,3.5,0,5.2c-0.1,1.6-0.9,2.9-2.4,3.9
		c1.2,0.8,2.2,1.8,2.6,3c0.4,0.9,0.6,1.9,0.8,2.9c0.3,1.9,0.1,3.9-0.5,5.8c-1,2.8-2.9,4.1-5.8,4.5c-0.6,0-1.2,0.1-1.7,0.1
		c-0.8,0-1.6,0-2.4-0.2c-2.2-0.5-3.9-1.9-4.8-4.1c-1-2.9-1.1-5.6-0.1-8.5c0.5-1.2,1.2-2.4,2.5-3c0.1,0,0.1-0.1,0.2-0.3
		c-1.1-0.9-1.9-1.9-2.4-3.2c-0.9-2.5-0.9-5,0.1-7.5c1-2.2,2.9-3.4,5.2-3.7C61.2,47.2,61.7,47.2,62.2,47.2 M62.6,59.5
		c0.7,0,1.4-0.5,1.7-1.3c0.3-1,0.3-2.2,0.6-3.2c-0.1-0.9-0.3-1.6-0.5-2.4c-0.1-0.6-0.6-1-1.2-1.2c-0.2,0-0.3,0-0.5,0
		c-0.8,0-1.6,0.4-1.9,1.4c-0.6,1.9-0.5,3.8,0.2,5.5c0.1,0.4,0.5,0.8,0.8,0.9C62,59.4,62.3,59.5,62.6,59.5 M62.5,73.5
		c1,0,1.8-0.5,2-1.6c0.6-2.1,0.6-4.1,0-6.2c-0.3-1.1-1-1.6-2-1.6s-1.7,0.5-2,1.5c-0.2,1.1-0.4,2.1-0.5,3.2c0.1,1,0.2,2.1,0.5,3.1
		C60.7,73,61.5,73.5,62.5,73.5 M62.2,39.7c-0.9,0-1.7,0.1-2.5,0.2c-5,0.7-9,3.6-11,8c0,0.1-0.1,0.2-0.1,0.3
		c-1.7,4.1-1.7,8.6-0.2,12.8c0,0.1,0,0.1,0.1,0.2c0,0.1,0.1,0.1,0.1,0.2c-0.1,0.2-0.2,0.5-0.3,0.7c-0.1,0.1-0.1,0.3-0.2,0.4
		c-1.5,4.4-1.5,8.8,0.1,13.4c0,0.1,0.1,0.3,0.1,0.4c1.8,4.4,5.5,7.5,10.1,8.6c0.2,0,0.3,0.1,0.5,0.1c1.1,0.2,2.3,0.3,3.5,0.3
		c0.7,0,1.5,0,2.3-0.1c0.2,0,0.3,0,0.5-0.1c7.4-1,10.5-5.7,11.8-9.4c0-0.1,0.1-0.2,0.1-0.3c1-3.1,1.2-6.2,0.8-9.2
		c0-0.1,0-0.2-0.1-0.3c-0.2-1.2-0.5-2.6-1.2-4.2c-0.1-0.2-0.2-0.4-0.3-0.7c0.2-0.8,0.4-1.5,0.5-2.3c0.5-2.6,0.5-5.4-0.1-8
		c-1.1-5.1-4.4-8.8-9.5-10.4c-0.2-0.1-0.4-0.1-0.6-0.2C65.2,39.9,63.7,39.7,62.2,39.7L62.2,39.7z"/>
</g>
</svg>
