<?xml version="1.0" encoding="utf-8"?>
<!-- Generator: Adobe Illustrator 24.0.3, SVG Export Plug-In . SVG Version: 6.00 Build 0)  -->
<svg version="1.1" id="Layer_1" xmlns="http://www.w3.org/2000/svg" xmlns:xlink="http://www.w3.org/1999/xlink" x="0px" y="0px"
	 viewBox="0 0 125 125" style="enable-background:new 0 0 125 125;" xml:space="preserve">
<style type="text/css">
	.st0{fill:#7C7C7C;}
	.st1{fill:#383838;}
	.st2{fill:#FFFFFF;}
</style>
<g>
	<path class="st0" d="M22.5,79.2c0-3.6,0-7.2,0-10.9c0-0.8,0.2-1.2,0.9-1.5c5.9-3.4,11.9-6.9,17.8-10.2c0.5-0.2,0.7-0.6,0.7-1.2
		c0-6.9,0-13.6,0-20.4c0-0.7,0.3-1.2,1-1.8c6.2-3.5,12.4-7.1,18.6-10.8c0.6-0.4,1.2-0.4,1.9,0c6.2,3.6,12.5,7.2,18.7,10.7
		c0.6,0.4,0.9,0.9,0.9,1.6c0,6.9,0,13.7,0,20.6c0,0.5,0.1,0.7,0.6,1c5.9,3.4,11.8,6.9,17.7,10.2c0.8,0.4,1.1,1,1.1,1.9
		c0,7.1,0,14.4,0,21.5c0,0.8-0.2,1.2-0.9,1.5c-6.1,3.5-12.4,7.1-18.5,10.8c-0.8,0.5-1.5,0.5-2.3,0C75,99,69.1,95.5,63.2,92.1
		c-0.4-0.2-0.6-0.2-1.1,0c-6,3.5-11.9,6.9-17.9,10.4c-0.6,0.4-1.2,0.4-1.9,0c-6.2-3.6-12.4-7.1-18.6-10.8c-0.8-0.4-1-0.9-1-1.8
		C22.5,86.4,22.5,82.9,22.5,79.2z M99.9,70.2c-0.2,0.1-0.5,0.2-0.6,0.2c-5.2,3-10.5,6.1-15.9,9.1c-0.4,0.2-0.5,0.5-0.5,0.9
		c0,6,0,12.1,0,18.1c0,0.1,0,0.4,0,0.6c0.2-0.1,0.4-0.2,0.6-0.2c5.2-3,10.5-6.1,15.9-9.1c0.4-0.2,0.5-0.5,0.5-1c0-6,0-12,0-18.1
		C99.9,70.9,99.9,70.6,99.9,70.2z M24.9,70.2c0,0.2,0,0.5,0,0.6c0,6.1,0,12.1,0,18.2c0,0.4,0.1,0.6,0.5,0.7c5.2,3,10.6,6.1,15.9,9.1
		c0.1,0.1,0.4,0.1,0.5,0.2c0-0.2,0-0.4,0-0.6c0-6.1,0-12.1,0-18.2c0-0.4-0.1-0.6-0.5-0.9c-5.3-3-10.5-6.1-15.9-9.1
		C25.4,70.5,25.1,70.4,24.9,70.2z M98.6,68.1c-0.2-0.2-0.5-0.4-0.8-0.5c-5.2-3-10.5-6-15.7-9.1c-0.2-0.1-0.5-0.1-0.8,0
		c-5.2,3-10.6,6.1-15.9,9.1c-0.1,0.1-0.2,0.2-0.5,0.4c0.2,0.1,0.4,0.2,0.6,0.4c5.2,3,10.5,6,15.6,9c0.4,0.2,0.8,0.2,1.1,0
		c4.8-2.8,9.4-5.5,14.1-8.1C97.1,69,97.8,68.5,98.6,68.1z M63.6,47.9c0,6.1,0,12,0,18c5.2-3,10.4-6,15.6-9
		C74,53.9,68.9,50.9,63.6,47.9z M80.5,36.8c-5.2,3-10.4,6-15.6,9c5.2,3,10.4,6,15.6,9C80.5,48.8,80.5,42.8,80.5,36.8z M44.3,36.8
		c0,6,0,12,0,18c5.2-3,10.4-6,15.6-9C54.6,42.8,49.5,39.7,44.3,36.8z M44.3,99.5c5.2-3,10.4-6,15.6-9c-5.2-3-10.4-6-15.6-9
		C44.3,87.5,44.3,93.4,44.3,99.5z M45.5,79.2c5.2,3,10.4,6,15.6,9c0-6,0-12,0-18C55.9,73.2,50.8,76.2,45.5,79.2z M45.5,56.9
		c5.2,3,10.4,6,15.6,9c0-6,0-12,0-18C55.9,50.9,50.8,53.9,45.5,56.9z"/>
</g>
<g>
	<path class="st1" d="M62.5,81.5c-1.2,0-2.4-0.1-3.6-0.4c-3.7-0.9-6.2-3.3-7-6.8c-0.3-1.2-0.4-2.5-0.6-3.7c0-0.1,0-0.3,0-0.4
		c0-1.7,0.8-3,2.1-3.7c-0.7-0.9-1.3-2.1-1.7-3.3c-1.4-4.3-1.3-8.6,0.2-12.8c1-2.8,3.4-6.2,9.1-6.9c0.5-0.1,1-0.1,1.5-0.1
		c1.1,0,2.2,0.1,3.5,0.4c0.1,0,0.1,0,0.2,0c2.2,0.5,5.1,2,7,6.1c0.8,1.9,1.2,4,1.2,6.4v11.9c0,2.6-0.4,4.9-1.3,7
		c-1.4,3.3-4.1,5.5-7.6,6.1C64.3,81.5,63.4,81.5,62.5,81.5z"/>
	<path class="st2" d="M62.4,47.2c0.9,0,1.9,0.1,2.9,0.3c2.1,0.5,3.5,2,4.4,4c0.6,1.5,0.9,3.1,0.9,4.9c0,4,0,7.9,0,11.9
		c0,1.9-0.2,3.8-1,5.5c-0.9,2.1-2.5,3.5-4.8,3.9c-0.8,0.1-1.5,0.2-2.3,0.2c-0.9,0-1.9-0.1-2.8-0.3c-2.1-0.5-3.6-1.9-4.1-4
		c-0.2-1-0.4-2.1-0.5-3.2c0-0.4,0.1-0.5,0.4-0.5c1.5,0,3,0,4.4,0c0.4,0,0.5,0.1,0.5,0.5c0,0.6,0.1,1.2,0.2,1.9
		c0.2,0.9,0.8,1.2,1.8,1.4c0.1,0,0.2,0,0.3,0c0.7,0,1.3-0.4,1.6-1.1c0.2-0.9,0.5-1.9,0.5-2.8c0.1-1.6,0-3.2,0-4.9
		c0.1-0.1,0-0.1,0-0.2c-1,1.2-2.5,1.6-4,1.6c-1.4,0-2.7-0.4-3.4-1c-1-0.8-1.6-1.8-2-3c-1.1-3.5-1.1-7,0.1-10.4c1-2.8,3-4.1,6-4.5
		C61.7,47.2,62.1,47.2,62.4,47.2 M62.5,61.8c0.2,0,0.4,0,0.6-0.1c1-0.1,1.8-1,1.8-2c0-0.9,0-1.6,0-2.4s0-1.6,0-2.4
		c-0.1-0.8-0.1-1.5-0.4-2.2c-0.2-1.1-0.9-1.4-2-1.4c-0.9,0-1.5,0.5-1.6,1.5c-0.2,0.9-0.4,1.6-0.4,2.5c0,1.5,0,3.1,0.1,4.6
		C60.6,61.2,61.4,61.8,62.5,61.8 M62.4,39.7c-0.6,0-1.2,0-1.8,0.1c-0.1,0-0.1,0-0.2,0c-5.9,0.7-10.2,4.1-12.1,9.4
		c-1.8,4.8-1.9,10.1-0.2,15.2c0.2,0.6,0.4,1.1,0.6,1.6c-0.8,1.2-1.2,2.7-1.2,4.3c0,0.3,0,0.6,0,0.8c0.1,1.3,0.3,2.7,0.7,4.2
		c1.2,4.8,4.8,8.4,9.7,9.5c0,0,0.1,0,0.1,0c1.5,0.3,2.9,0.5,4.4,0.5c1.1,0,2.2-0.1,3.4-0.2c0.1,0,0.1,0,0.2,0
		c4.7-0.8,8.5-3.8,10.4-8.4c1.1-2.5,1.6-5.3,1.6-8.4V56.4c0-2.9-0.5-5.4-1.5-7.8c0,0,0-0.1-0.1-0.1c-1.9-4.4-5.3-7.3-9.5-8.3
		c-0.1,0-0.3-0.1-0.4-0.1C65.1,39.8,63.7,39.7,62.4,39.7L62.4,39.7z"/>
</g>
</svg>
