<?xml version="1.0" encoding="utf-8"?>
<!-- Generator: Adobe Illustrator 24.0.3, SVG Export Plug-In . SVG Version: 6.00 Build 0)  -->
<svg version="1.1" id="Layer_1" xmlns="http://www.w3.org/2000/svg" xmlns:xlink="http://www.w3.org/1999/xlink" x="0px" y="0px"
	 viewBox="0 0 125 125" style="enable-background:new 0 0 125 125;" xml:space="preserve">
<style type="text/css">
	.st0{fill:#7C7C7C;}
</style>
<g>
	<path class="st0" d="M77.3,97.3c-5.6,0-11.2,0-16.9,0c0-24,0-47.6,0-71.6c-4.5,1.5-8.6,3-13.1,4.5c0-4.1,0-8.2,0-12.4
		c3.4-1.9,6.8-3.4,10.1-5.2c1.9-1.1,3.8-2.6,5.6-3.8c0.8-0.4,1.9-1.1,2.6-1.1c3.4,0,6.8,0,10.1,0c1.5,0,1.9,0.4,1.9,1.9
		c0,21,0,42.4,0,63.4c0,7.5,0,14.6,0,22.1C77.3,95.8,77.3,96.2,77.3,97.3z"/>
</g>
</svg>
