<?xml version="1.0" encoding="utf-8"?>
<!-- Generator: Adobe Illustrator 24.0.3, SVG Export Plug-In . SVG Version: 6.00 Build 0)  -->
<svg version="1.1" id="Layer_1" xmlns="http://www.w3.org/2000/svg" xmlns:xlink="http://www.w3.org/1999/xlink" x="0px" y="0px"
	 viewBox="0 0 125 125" style="enable-background:new 0 0 125 125;" xml:space="preserve">
<style type="text/css">
	.st0{fill:#7C7C7C;}
</style>
<g>
	<path class="st0" d="M32.3,96.7c0-24,0-47.6,0-71.6c-4.5,1.5-8.6,3-12.8,4.5c0-0.4-0.4-0.8-0.4-0.8c0-3.8,0-7.1,0-10.9
		c0-0.4,0.8-1.1,1.1-1.5c4.5-2.6,9-4.9,13.5-7.9c1.5-1.1,3-1.9,4.9-1.5c3.4,0,6.8,0,10.5,0c0,30,0,59.6,0,89.2
		C43.6,96.7,37.9,96.7,32.3,96.7z"/>
	<path class="st0" d="M105.8,52.5c0,7.9,0,15.4,0,23.3c0,3.8-1.1,7.9-3,11.2c-3.8,7.5-10.1,10.9-18.4,11.6c-3.8,0.4-7.5,0-11.2-1.1
		c-7.9-2.6-12.4-8.3-14.2-16.1c-0.8-2.6-0.8-5.6-1.1-8.6c0-13.5,0-27.4,0-40.9c0-3.8,0.8-7.1,1.9-10.9c2.6-9,9.8-14.2,19.1-14.6
		c4.1-0.4,7.9,0,12,1.1c8.2,2.6,12.8,8.6,14.2,16.9c0.4,2.2,0.8,4.9,0.8,7.5C105.8,38.6,105.8,45.8,105.8,52.5L105.8,52.5z
		 M75.4,52.1L75.4,52.1c0,6.7-0.4,13.5,0,19.9c0,2.6,0.4,5.2,1.1,7.9c0.8,2.6,2.6,3.8,5.2,3.8c2.6,0,4.5-1.5,5.2-3.8
		c0.8-2.2,1.1-4.9,1.1-7.1c0-13.5,0-26.6,0-40.1c0-2.6-0.4-5.2-1.1-7.5c-0.8-2.6-2.6-3.8-5.6-3.8c-3,0-4.5,1.1-5.2,3.8
		c-0.4,1.9-0.8,3.8-1.1,5.6C75.4,37.9,75.4,45,75.4,52.1z"/>
</g>
</svg>
