<?xml version="1.0" encoding="utf-8"?>
<!-- Generator: Adobe Illustrator 24.0.3, SVG Export Plug-In . SVG Version: 6.00 Build 0)  -->
<svg version="1.1" id="Layer_1" xmlns="http://www.w3.org/2000/svg" xmlns:xlink="http://www.w3.org/1999/xlink" x="0px" y="0px"
	 viewBox="0 0 125 125" style="enable-background:new 0 0 125 125;" xml:space="preserve">
<style type="text/css">
	.st0{fill:#7C7C7C;}
</style>
<g>
	<path class="st0" d="M79.4,25.3c-4.5,1.5-8.6,3-12.7,4.5c0-1.9,0-3.4,0-4.9c0-1.9,0-4.1,0-6c0-1.1,0.4-1.5,1.1-1.9
		c5.2-2.3,10.5-4.9,14.6-8.6c0.4-0.4,1.1-0.4,1.9-0.4c3.4,0,6.8,0,9.8,0c1.5,0,1.9,0.4,1.9,1.9c0,25.9,0,51.4,0,77.2
		c0,2.6,0,5.6,0,8.6c0,1.1-0.4,1.5-1.5,1.5c-4.5,0-9,0-13.5,0c-1.5,0-1.9-0.4-1.9-1.9c0-22.5,0-44.6,0-67.1
		C79.4,27.2,79.4,26.4,79.4,25.3z"/>
	<path class="st0" d="M41.9,25.3c-4.5,1.5-8.6,3-12.8,4.5c0-2.6,0.4-4.9,0-7.1c-0.4-3.8,0.8-5.6,4.5-7.1c4.1-1.9,7.9-4.5,11.6-7.1
		c0.4-0.4,1.1-0.7,1.9-0.7c3.4,0,6.8,0,10.1,0c1.1,0,1.5,0.4,1.5,1.5c0,28.5,0,57.4,0,85.9c0,1.5-0.4,1.9-1.9,1.5
		c-4.1,0-8.6,0-13.1,0c-1.5,0-1.9-0.4-1.9-1.9c0-22.5,0-45,0-67.5C41.9,26.8,41.9,26.4,41.9,25.3z"/>
</g>
</svg>
