<?xml version="1.0" encoding="utf-8"?>
<!-- Generator: Adobe Illustrator 24.0.3, SVG Export Plug-In . SVG Version: 6.00 Build 0)  -->
<svg version="1.1" id="Layer_1" xmlns="http://www.w3.org/2000/svg" xmlns:xlink="http://www.w3.org/1999/xlink" x="0px" y="0px"
	 viewBox="0 0 125 125" style="enable-background:new 0 0 125 125;" xml:space="preserve">
<style type="text/css">
	.st0{fill:#7C7C7C;}
</style>
<g>
	<path class="st0" d="M77.4,84.4c1.1,0,1.5,0,2.2,0c7.5,0,15,0,22.5,0c1.5,0,1.9,0.4,1.9,1.9c0,3.4,0,6.4,0,9.4
		c0,1.1-0.4,1.5-1.5,1.5c-14.2,0-28.5,0-42.4,0c-1.1,0-1.5-0.4-1.5-1.5c0-3,0-6,0-9.4c0-0.8,0.4-1.9,0.8-2.2
		c8.2-12.8,16.5-25.5,24.8-38.2c2.6-4.1,4.9-7.9,5.2-12.8c0.4-2.6,0-5.2-0.4-7.5c-0.8-3-2.6-4.5-5.2-4.5c-3.4-0.4-6,1.1-7.1,3.8
		c-1.5,3-1.9,6.8-1.9,10.1c0,3.8,0,3.8-3.8,3.8s-7.5,0-11.2,0c-0.8,0-1.5,0-1.5-1.1c0-6.7,0.4-13.1,3.4-19.1
		C65.4,11.3,71,8.3,78.5,7.6c5.2-0.4,10.1-0.4,14.6,1.5c6.8,2.6,10.5,7.9,12,15c1.9,9.8-0.8,18.4-6,26.6
		C92,61.2,84.9,72.1,77.8,82.6C78.1,82.9,78.1,83.7,77.4,84.4z"/>
	<path class="st0" d="M32,25.9c-4.5,1.5-8.6,3-12.8,4.5c0-1.5,0-2.6,0-4.1c0-2.3,0-4.1,0-6.4c0-1.5,0.4-1.9,1.9-2.6
		c4.5-2.3,8.6-4.5,12.8-7.5c1.5-1.1,3-1.9,4.9-1.5c2.6,0,5.6,0,8.2,0c1.5,0,1.9,0.4,1.9,1.9c0,18.4,0,37.1,0,55.5
		c0,10.1,0,19.9,0,30c0,1.5-0.4,2.2-1.9,1.9c-4.1,0-8.6,0-12.8,0c-1.5,0-1.9-0.4-1.9-1.9c0-22.5,0-45,0-67.5
		C32,27.8,32,27.1,32,25.9z"/>
</g>
</svg>
