<?xml version="1.0" encoding="utf-8"?>
<!-- Generator: Adobe Illustrator 24.0.3, SVG Export Plug-In . SVG Version: 6.00 Build 0)  -->
<svg version="1.1" id="Layer_1" xmlns="http://www.w3.org/2000/svg" xmlns:xlink="http://www.w3.org/1999/xlink" x="0px" y="0px"
	 viewBox="0 0 125 125" style="enable-background:new 0 0 125 125;" xml:space="preserve">
<style type="text/css">
	.st0{fill:#7C7C7C;}
</style>
<g>
	<path class="st0" d="M76.3,57.1c0-4.1,0-8.3,0-12.4c1.1,0,2.2,0,3.4,0c4.9,0,7.5-2.2,8.6-7.1c0.8-4.1,1.1-8.3,0-12.4
		c-1.1-4.5-4.9-6.4-9-4.9c-3,1.1-3.8,3.8-4.1,6.4s-0.4,5.3-0.4,7.5c0,0.8,0,1.5-1.1,1.5c-5.2,0-10.1,0-15.7,0c0-1.9,0-3.4,0-4.9
		c0.4-3.4,0.4-6.4,1.5-9.4c2.2-7.5,7.5-12.4,15-14.2c5.6-1.1,11.2-1.1,16.5,0.4c8.6,2.6,13.1,8.6,14.6,17.2c0.8,4.5,0.8,9-0.8,13.5
		c-1.5,5.2-4.1,9.4-9.4,11.2c-0.4,0-0.4,0.4-0.4,0.4c0.4,0,0.4,0.4,0.8,0.4c5.2,2.3,8.2,6.8,9.4,12.4c1.5,7.5,1.1,15.4-1.5,22.5
		c-3,8.2-9.4,12.8-18,13.1c-3.4,0.4-7.1,0-10.5-0.4c-7.1-1.1-12-5.6-14.6-12.4c-1.9-5.2-2.3-10.9-2.3-16.9c1.1,0,2.6,0,3.8,0
		c3.8,0,7.5,0,11.6,0c1.5,0,1.5,0.4,1.9,1.9c0.4,3,0.4,6.4,1.1,9.4c1.1,4.1,5.6,6,9.4,4.1c2.6-1.1,3-3.4,3.4-6
		c0.8-4.5,0.8-8.6-0.4-13.1c-1.1-5.2-3.8-7.5-9-7.9C78.2,57.1,77.4,57.1,76.3,57.1z"/>
	<path class="st0" d="M31.7,96.9c0-24,0-47.6,0-71.6c-4.1,1.5-8.2,3-12.8,4.5c0-0.8,0-1.5,0-2.3c0-3,0-6,0-8.6
		c0-1.1,0.4-1.5,1.1-1.9c5.2-2.3,10.5-4.9,15-8.6C35.4,8,35.8,8,36.2,8c4.1,0,8.2,0,12.8,0c0,29.6,0,59.2,0,89.2
		C42.9,96.9,37.7,96.9,31.7,96.9z"/>
</g>
</svg>
