<?xml version="1.0" encoding="utf-8"?>
<!-- Generator: Adobe Illustrator 24.0.3, SVG Export Plug-In . SVG Version: 6.00 Build 0)  -->
<svg version="1.1" id="Layer_1" xmlns="http://www.w3.org/2000/svg" xmlns:xlink="http://www.w3.org/1999/xlink" x="0px" y="0px"
	 viewBox="0 0 125 125" style="enable-background:new 0 0 125 125;" xml:space="preserve">
<style type="text/css">
	.st0{fill:#7C7C7C;}
</style>
<g>
	<path class="st0" d="M97.8,35.4c0,8.6,0,17.3,0,25.9c0,1.5,0.4,2.2,1.9,2.2c1.9,0,3.8,0,5.6,0c1.1,0,1.5,0.4,1.5,1.1
		c0,3.4,0,6.7,0,10.1c0,1.1-0.4,1.1-1.1,1.1c-1.9,0-3.8,0-5.6,0s-2.2,0-2.2,2.2c0,5.6,0,11.6,0,17.2c0,1.5-0.4,1.9-1.9,1.9
		c-3.8,0-7.5,0-11.6,0c-1.5,0-1.9-0.4-1.9-1.9c0-5.6,0-11.6,0-17.2c0-1.9,0-1.9-2.2-1.9c-7.5,0-15.4,0-22.9,0
		c-1.5,0-2.2-0.4-1.9-1.9l0,0c0.4-4.1-0.4-8.2,0.8-12.4c0.8-4.1,3-7.5,4.5-11.2c5.6-13.1,11.2-26.6,16.9-40.1
		c0.8-1.9,1.5-2.3,3.4-2.3c4.9,0,9.8,0,14.6,0c1.5,0,1.9,0.4,1.9,1.9C97.8,18.2,97.8,26.8,97.8,35.4z M82.4,25.7H82
		c-4.5,12.4-9,24.8-13.5,37.5c4.1,0,8.2,0,12,0c1.5,0,1.9-0.4,1.9-1.9c0-11.2,0-22.9,0-34.1C82.8,26.8,82.4,26.1,82.4,25.7z"/>
	<path class="st0" d="M31,25.3c-4.5,1.5-8.6,3-12.8,4.5c0-0.8,0-1.1,0-1.9c0-3,0-6,0-8.6c0-1.1,0.4-1.9,1.5-2.6
		c4.1-2.3,8.2-4.1,12-6.8c2.2-1.9,4.5-2.3,7.1-2.3c2.2,0,4.9,0,7.1,0c1.1,0,1.5,0.4,1.5,1.5c0,2.6,0,5.6,0,8.2c0,25.9,0,51.4,0,77.2
		c0,2.2,0,2.2-2.3,2.2c-4.1,0-8.2,0-12,0c-2.3,0-2.3,0-2.3-2.2c0-22.5,0-44.6,0-67.1C31,27.2,31,26.4,31,25.3z"/>
</g>
</svg>
