<?xml version="1.0" encoding="utf-8"?>
<!-- Generator: Adobe Illustrator 24.0.3, SVG Export Plug-In . SVG Version: 6.00 Build 0)  -->
<svg version="1.1" id="Layer_1" xmlns="http://www.w3.org/2000/svg" xmlns:xlink="http://www.w3.org/1999/xlink" x="0px" y="0px"
	 viewBox="0 0 125 125" style="enable-background:new 0 0 125 125;" xml:space="preserve">
<style type="text/css">
	.st0{fill:#7C7C7C;}
</style>
<g>
	<path class="st0" d="M73.9,41.1c1.9-0.8,3.4-1.9,5.2-2.6c3.8-1.5,7.9-1.9,12-1.1c5.2,1.1,9,4.5,11.2,9.4c2.2,4.5,2.6,9.4,3.4,14.2
		c0.4,6.7,0,13.5-1.5,20.2c-1.1,6.4-4.5,11.6-10.5,14.2c-4.5,2.3-9.8,2.3-14.6,2.3c-2.2,0-4.1-0.4-6.4-1.1c-6-1.5-10.1-5.6-12-11.6
		c-1.1-4.1-1.9-8.2-1.5-12.8c0-1.1,0.4-1.5,1.5-1.5c4.5,0,9,0,13.1,0c1.1,0,1.1,0.4,1.5,1.1c0.4,3,0.8,5.6,1.1,8.6
		c0.8,3,2.6,4.9,6,4.5c2.6,0,4.9-0.8,6-4.1c0.4-1.1,0.8-2.6,0.8-3.8c0.4-5.6,0.4-11.2,0.4-16.9c0-1.9-0.4-4.1-1.1-6
		c-0.8-3.4-3-4.9-6-4.9c-3,0-5.2,1.1-6.7,3.8c-0.8,1.1-1.1,2.2-1.1,3.4c-0.4,0.8-0.8,1.1-1.5,1.1c-3.8,0-7.5,0-11.6,0
		c-1.1,0-1.5-0.4-1.5-1.5c0-7.5,0.4-15,0.4-22.5c0-3.4,0.4-6.7,0.4-10.1c0-4.9,0.4-10.1,0.4-15c0-1.1,0.4-1.1,1.5-1.1
		c12.7,0,25.5,0,38.2,0c1.1,0,1.5,0.4,1.5,1.5c0,3.8,0,7.1,0,10.9c0,1.5-0.4,1.9-1.9,1.9c-7.5,0-15,0-22.5,0c-2.6,0-2.6,0-2.6,2.6
		c-0.4,5.3-0.8,10.5-0.8,16.1C73.9,40.3,73.9,40.7,73.9,41.1z"/>
	<path class="st0" d="M31.9,24.6c-4.5,1.5-8.6,3-12.8,4.5c0-1.9,0-3.8,0-5.2c0-1.9,0-3.8,0-5.6c0-0.8,0.4-1.5,1.1-1.5
		c5.2-2.6,10.5-4.9,15-9c0.4-0.4,1.1-0.4,1.9-0.4c3.4,0,6.8,0,10.1,0c1.5,0,1.9,0.4,1.9,1.9c0,9.4,0,18.4,0,27.7
		c0,19.1,0,38.2,0,57.7c0,2.2,0,2.2-1.9,2.2c-4.1,0-8.6,0-13.1,0c-1.5,0-1.9-0.4-1.9-1.9c0-22.5,0-45,0-67.5
		C31.9,26.1,31.9,25.3,31.9,24.6z"/>
</g>
</svg>
