<?xml version="1.0" encoding="utf-8"?>
<!-- Generator: Adobe Illustrator 24.0.3, SVG Export Plug-In . SVG Version: 6.00 Build 0)  -->
<svg version="1.1" id="Layer_1" xmlns="http://www.w3.org/2000/svg" xmlns:xlink="http://www.w3.org/1999/xlink" x="0px" y="0px"
	 viewBox="0 0 125 125" style="enable-background:new 0 0 125 125;" xml:space="preserve">
<style type="text/css">
	.st0{fill:#7C7C7C;}
</style>
<g>
	<path class="st0" d="M75.6,46.1c4.5-4.9,10.1-5.2,15.8-4.1c7.1,1.1,10.9,5.6,13.1,12c1.9,5.2,2.2,10.5,1.9,15.8
		c-0.4,5.2-0.8,10.5-3,15.8c-3.4,8.3-9.8,12.4-18.4,12.8c-3.4,0-6.7,0-9.8-0.8c-7.1-1.5-11.6-6.4-14.2-13.1
		c-1.9-4.1-2.6-8.6-2.6-13.1c0-12.4,0-24.8,0-36.8c0-5.2,0.8-10.5,3-15.4c3-7.1,8.3-10.9,16.1-12c4.1-0.7,8.6-0.4,12.8,0.4
		c8.2,1.5,12.8,6.8,14.2,14.6c0.4,2.3,0.4,4.9,0.8,7.5c0,1.1-0.4,1.1-1.1,1.1c-4.5,0-9,0-13.5,0c-1.1,0-1.1-0.4-1.1-1.5
		c-0.4-1.9-0.4-3.8-0.8-5.6c-0.8-2.6-2.2-3.8-4.5-4.1c-3.4-0.4-5.2,0.8-6.4,3c-0.8,1.5-1.1,3.4-1.1,4.9
		C76.3,33.4,76.3,39.8,75.6,46.1C75.2,46.1,75.2,46.1,75.6,46.1z M75.2,67.5c0,1.9,0,4.1,0,6c0.4,2.2,0.4,4.9,1.1,7.1
		c0.4,2.2,1.9,4.1,4.1,4.9c3.8,1.1,6.7-0.8,7.5-4.9c1.5-6.8,1.5-13.5,0.4-19.9c-0.8-4.5-3.4-6.7-7.1-6c-2.2,0.4-4.1,1.1-5.6,3
		c-0.4,0.8-0.8,1.5-0.8,2.3C75.2,62.3,75.2,64.9,75.2,67.5z"/>
	<path class="st0" d="M31.7,96.8c0-24,0-47.6,0-71.6c-4.5,1.5-8.6,3-12.8,4.5c0-0.8-0.4-1.1-0.4-1.5c0-3.4,0-6.4,0-9.4
		c0-1.1,0.4-1.5,1.1-1.9c5.2-2.3,10.5-4.9,15-9c0.4-0.4,1.1-0.4,1.5-0.4c3.4,0,7.1,0,10.5,0c1.1,0,1.5,0.4,1.5,1.5
		c0,4.9,0,9.8,0,14.6c0,23.6,0,47.3,0,70.9c0,2.2,0,2.2-2.2,2.2c-4.1,0-8.6,0-12.8,0C32.8,97.1,32.4,96.8,31.7,96.8z"/>
</g>
</svg>
