<?xml version="1.0" encoding="utf-8"?>
<!-- Generator: Adobe Illustrator 24.0.3, SVG Export Plug-In . SVG Version: 6.00 Build 0)  -->
<svg version="1.1" id="Layer_1" xmlns="http://www.w3.org/2000/svg" xmlns:xlink="http://www.w3.org/1999/xlink" x="0px" y="0px"
	 viewBox="0 0 125 125" style="enable-background:new 0 0 125 125;" xml:space="preserve">
<style type="text/css">
	.st0{fill:#7C7C7C;}
</style>
<g>
	<path class="st0" d="M67.7,97.1C74,71.6,80,46.5,86.4,20.6c-8.2,0-16.1,0-24.4,0c0-4.5,0-8.6,0-12.7c13.5,0,27,0,40.9,0
		c0,0.7,0,1.1,0,1.9c0.8,7.5-1.1,14.6-3,22.1C94.7,53.2,89.4,74.6,84.5,96c-0.4,1.1-0.8,1.5-1.9,1.5c-4.5,0-9,0-13.5,0
		C68.8,97.1,68.4,97.1,67.7,97.1z"/>
	<path class="st0" d="M35,97.1c0-24,0-47.6,0-71.6c-4.5,1.5-8.6,3-13.1,4.5c0-1.1,0-2.3,0-3c0-2.6,0-5.6,0-8.6
		c0-0.7,0.4-1.1,1.1-1.5c5.2-2.3,10.9-4.9,15.4-9c0.4-0.4,0.4-0.4,0.8-0.4c4.1,0,8.6,0,12.8,0c0,30,0,59.6,0,89.2
		C46.3,97.1,40.7,97.1,35,97.1z"/>
</g>
</svg>
