<?xml version="1.0" encoding="utf-8"?>
<!-- Generator: Adobe Illustrator 24.0.3, SVG Export Plug-In . SVG Version: 6.00 Build 0)  -->
<svg version="1.1" id="Layer_1" xmlns="http://www.w3.org/2000/svg" xmlns:xlink="http://www.w3.org/1999/xlink" x="0px" y="0px"
	 viewBox="0 0 125 125" style="enable-background:new 0 0 125 125;" xml:space="preserve">
<style type="text/css">
	.st0{fill:#7C7C7C;}
</style>
<path class="st0" d="M57.4,84c0.7,0,1.5,0,2.2,0c7.5,0,15,0,22.5,0c1.5,0,1.9,0.4,1.9,1.9c0,3.4,0,6.4,0,9.8c0,1.1-0.4,1.9-1.5,1.9
	c-14.2,0-28.5,0-42.4,0c-1.5,0-1.9-0.4-1.5-1.9c0-0.4,0-0.4,0-0.8c0-3.4-0.8-6.4,0.4-9.4c0.8-3,3-5.2,4.9-7.9
	c7.1-10.9,14.2-22.1,21.4-33c3-4.5,5.2-9.4,4.9-15c0-0.8,0-1.9-0.4-2.6c-0.8-3.4-2.6-5.2-5.6-5.6c-3.4-0.4-6,1.1-7.5,4.5
	s-1.5,7.1-1.5,10.9c0,2.3,0,2.3-2.2,2.3c-4.1,0-8.6,0-12.8,0c-1.1,0-1.9-0.4-1.5-1.5c0.4-4.1,0.4-8.6,1.1-12.7
	C42.4,13.5,49.9,7.5,61.2,7.5c3.4,0,6.7,0.4,10.1,1.1c8.2,1.9,13.5,8.6,15,17.2c1.1,8.6-0.8,16.1-5.2,23.3
	c-4.9,7.5-9.8,15-14.6,22.5c-2.6,3.8-4.9,7.5-7.5,11.2C57.8,82.9,57.8,83.2,57.4,84z"/>
</svg>
