<?xml version="1.0" encoding="utf-8"?>
<!-- Generator: Adobe Illustrator 24.0.3, SVG Export Plug-In . SVG Version: 6.00 Build 0)  -->
<svg version="1.1" id="Layer_1" xmlns="http://www.w3.org/2000/svg" xmlns:xlink="http://www.w3.org/1999/xlink" x="0px" y="0px"
	 viewBox="0 0 125 125" style="enable-background:new 0 0 125 125;" xml:space="preserve">
<style type="text/css">
	.st0{fill:#7C7C7C;}
</style>
<path class="st0" d="M79.5,7.9c0,18.4,0,36.8,0,55.5c3,0,6,0,8.6,0c0,4.1,0,8.2,0,12.8c-3,0-5.6,0-8.6,0c0,7.1,0,14.2,0,21
	c-5.2,0-10.1,0-15.4,0c0-6.8,0-13.9,0-21c-9,0-18,0-27,0c0-1.1,0-1.9,0-3c-0.8-7.1,1.1-13.9,4.1-20.6c6.4-14.2,12.4-28.9,18.4-43.1
	c0.4-1.1,1.1-1.5,2.2-1.5c5.2,0,10.5,0,15.8,0C78.3,7.9,78.7,7.9,79.5,7.9z M64.1,26.3C63.7,26.3,63.7,26.3,64.1,26.3
	c-4.5,12.4-9,24.7-13.5,37.1c4.5,0,9,0,13.5,0C64.1,51,64.1,38.6,64.1,26.3z"/>
</svg>
