<?xml version="1.0" encoding="utf-8"?>
<!-- Generator: Adobe Illustrator 24.0.3, SVG Export Plug-In . SVG Version: 6.00 Build 0)  -->
<svg version="1.1" id="Layer_1" xmlns="http://www.w3.org/2000/svg" xmlns:xlink="http://www.w3.org/1999/xlink" x="0px" y="0px"
	 viewBox="0 0 125 125" style="enable-background:new 0 0 125 125;" xml:space="preserve">
<style type="text/css">
	.st0{fill:#7C7C7C;}
</style>
<path class="st0" d="M39.1,71.3c0.8,0,1.1,0,1.5,0c4.5,0,9,0,13.5,0c1.1,0,1.5,0.4,1.5,1.5c0.4,3,0.4,6,1.1,8.6
	c0.7,3,2.6,4.1,5.2,4.1c3,0.4,5.2-0.8,6-3.4c0.8-2.6,1.1-5.2,1.5-7.9c0.4-6,0.8-12.4-0.8-18.4c-1.1-5.2-5.6-7.5-10.1-5.2
	c-2.3,1.1-3.4,3-3.8,5.2c-0.4,1.5-1.1,2.3-2.6,1.9c-3.8,0-7.1,0-10.9,0c-1.1,0-1.5-0.4-1.5-1.5c0.4-10.5,0.7-21,0.7-31.9
	c0-4.9,0.4-9.8,0.4-14.6c0-0.8,0-1.9,0-2.6c13.9,0,27.4,0,41.3,0c0,1.9,0,3.4,0,5.2c0,2.6,0,4.9,0,7.5c0,1.1-0.4,1.5-1.5,1.5
	c-7.9,0-15.4,0-23.2,0c-0.8,0-1.5,0-2.2,0c-0.4,6.8-0.8,13.1-1.1,19.1c2.6-1.1,5.6-2.3,8.2-3c3-0.8,6.4-0.8,9.4,0
	c4.9,1.1,7.9,4.1,10.1,8.2c2.2,4.1,3.4,8.6,3.8,13.1c0.8,7.9,0.4,15.8-1.5,23.3c-2.2,9-8.3,14.2-17.6,15.4
	c-4.9,0.4-9.4,0.4-14.2-1.1c-6-1.9-9.8-5.6-11.6-11.6C39.4,81.1,39.4,76.6,39.1,71.3z"/>
</svg>
