<?xml version="1.0" encoding="utf-8"?>
<!-- Generator: Adobe Illustrator 24.0.3, SVG Export Plug-In . SVG Version: 6.00 Build 0)  -->
<svg version="1.1" id="Layer_1" xmlns="http://www.w3.org/2000/svg" xmlns:xlink="http://www.w3.org/1999/xlink" x="0px" y="0px"
	 viewBox="0 0 125 125" style="enable-background:new 0 0 125 125;" xml:space="preserve">
<style type="text/css">
	.st0{fill:#7C7C7C;}
</style>
<path class="st0" d="M56,46c2.2-3,5.2-4.1,8.3-4.5c3.4-0.4,7.1-0.4,10.5,0.8c4.5,1.5,7.5,4.9,9,9c1.5,3.8,2.3,8.2,2.6,12.4
	c0.4,6.8,0,13.1-2.2,19.9c-3,9.4-9.8,14.2-19.5,14.6c-4.1,0-8.6,0-12.7-1.9c-6.4-3-10.1-8.2-11.6-14.6c-1.1-4.1-1.5-8.2-1.5-12.4
	c-0.4-11.6,0-23.2,0-34.9c0-5.6,1.1-10.9,3.4-16.1c2.3-5.2,6.4-9,12-10.1C59.3,6.6,65,6.6,70.2,7.7c8.2,1.5,12.8,6.8,14.2,14.6
	c0.4,2.3,0.4,4.5,0.8,6.7c0,1.1-0.4,1.5-1.5,1.5c-4.1,0-8.6,0-12.8,0c-1.1,0-1.5-0.4-1.5-1.5c0-1.9-0.4-3.4-0.8-5.2
	c-0.4-2.6-2.2-4.1-4.5-4.5c-3.4-0.4-5.6,0.4-6.8,3C56.7,25,56,28,55.6,31c-0.4,4.9,0,9.4,0,14.2C55.6,45.2,56,45.6,56,46z
	 M55.6,67.3L55.6,67.3c0,2.6,0,5.2,0,7.5c0,2.6,0.8,5.6,2.2,7.9c1.5,1.9,3.4,2.6,5.6,2.6c2.3-0.4,3.8-1.5,4.5-3.8
	c0.4-1.1,0.8-2.2,0.8-3.4c1.1-6,0.8-12,0.4-18c-0.4-3.8-2.6-6-5.6-6.4c-3-0.4-5.2,0.8-7.1,3c-0.4,0.8-0.7,1.5-0.7,2.2
	C55.6,61.7,55.6,64.3,55.6,67.3z"/>
</svg>
