<?xml version="1.0" encoding="utf-8"?>
<!-- Generator: Adobe Illustrator 24.0.3, SVG Export Plug-In . SVG Version: 6.00 Build 0)  -->
<svg version="1.1" id="Layer_1" xmlns="http://www.w3.org/2000/svg" xmlns:xlink="http://www.w3.org/1999/xlink" x="0px" y="0px"
	 viewBox="0 0 125 125" style="enable-background:new 0 0 125 125;" xml:space="preserve">
<style type="text/css">
	.st0{fill:#7C7C7C;}
</style>
<path class="st0" d="M66.4,20.4c-1.1,0-1.5,0-2.2,0c-6.8,0-13.5,0-20.2,0c-1.5,0-1.9-0.4-1.9-1.9c0-3,0-6.4,0-9.4
	c0-1.1,0.4-1.5,1.5-1.5c12.8,0,25.5,0,37.9,0c1.5,0,1.5,0.7,1.5,1.9c0.8,7.5-1.1,14.6-3,21.8c-5.2,21.4-10.1,42.4-15.4,63.7
	c-0.4,2.2-0.4,2.2-3,2.2c-4.1,0-8.2,0-12,0c-0.8,0-1.1,0-1.9,0C54,71.1,60,45.9,66.4,20.4z"/>
</svg>
