<?xml version="1.0" encoding="utf-8"?>
<!-- Generator: Adobe Illustrator 24.0.3, SVG Export Plug-In . SVG Version: 6.00 Build 0)  -->
<svg version="1.1" id="Layer_1" xmlns="http://www.w3.org/2000/svg" xmlns:xlink="http://www.w3.org/1999/xlink" x="0px" y="0px"
	 viewBox="0 0 125 125" style="enable-background:new 0 0 125 125;" xml:space="preserve">
<style type="text/css">
	.st0{fill:#7C7C7C;}
</style>
<path class="st0" d="M76.1,49.6c3.6,2.4,6.6,5.4,7.8,9c1.2,2.7,1.8,5.7,2.4,8.7c0.9,5.7,0.3,11.7-1.5,17.4
	c-3,8.4-8.7,12.3-17.4,13.5c-4.2,0.3-8.4,0.3-12.3-0.3c-6.6-1.5-11.7-5.7-14.4-12.3c-3-8.7-3.3-16.8-0.3-25.5c1.5-3.6,3.6-7.2,7.5-9
	c0.3,0,0.3-0.3,0.6-0.9c-3.3-2.7-5.7-5.7-7.2-9.6c-2.7-7.5-2.7-15,0.3-22.5c3-6.6,8.7-10.2,15.6-11.1c4.2-0.6,8.7-0.3,12.6,0.6
	c7.5,2.4,12,7.2,13.5,14.7c1.2,5.1,1.2,10.5,0,15.6C83,42.7,80.6,46.6,76.1,49.6z M55.1,71.5c0.3,3,0.6,6.3,1.5,9.3
	c0.6,3.3,3,4.8,6,4.8c3,0,5.4-1.5,6-4.8c1.8-6.3,1.8-12.3,0-18.6c-0.9-3.3-3-4.8-6-4.8c-3,0-5.1,1.5-6,4.5
	C56,65.2,55.4,68.2,55.1,71.5z M69.5,30.1c-0.3-2.7-0.9-4.8-1.5-7.2c-0.3-1.8-1.8-3-3.6-3.6c-3-0.6-6,0.6-7.2,4.2
	c-1.8,5.7-1.5,11.4,0.6,16.5c0.3,1.2,1.5,2.4,2.4,2.7c2.7,1.8,6.3,0.3,7.5-3C68.6,36.7,68.6,33.1,69.5,30.1z"/>
</svg>
