<?xml version="1.0" encoding="utf-8"?>
<!-- Generator: Adobe Illustrator 24.0.3, SVG Export Plug-In . SVG Version: 6.00 Build 0)  -->
<svg version="1.1" id="Layer_1" xmlns="http://www.w3.org/2000/svg" xmlns:xlink="http://www.w3.org/1999/xlink" x="0px" y="0px"
	 viewBox="0 0 125 125" style="enable-background:new 0 0 125 125;" xml:space="preserve">
<style type="text/css">
	.st0{fill:#7C7C7C;}
</style>
<path class="st0" d="M69,58.5c-5.6,6.7-17.6,5.6-22.1,1.9c-3-2.2-4.9-5.2-6-9c-3.4-10.5-3.4-21,0.4-31.1c3-8.2,9-12.4,18-13.5
	c3.7-0.4,7.5,0,11.6,0.7c6.4,1.5,10.5,6,13.1,12c1.9,4.5,2.6,9.4,2.6,14.6c0,12,0,23.6,0,35.6c0,5.6-0.8,11.2-3,16.5
	c-2.6,6.4-7.5,10.5-14.2,11.6c-5.2,0.8-10.1,0.8-15.4-0.4c-6.4-1.5-10.9-5.6-12.4-12c-0.8-3-1.1-6.4-1.5-9.8c0-1.1,0.4-1.5,1.1-1.5
	c4.5,0,9,0,13.1,0c1.1,0,1.5,0.4,1.5,1.5c0,1.9,0.4,3.8,0.8,5.6c0.8,2.6,2.2,3.8,5.2,4.1c2.6,0.4,4.9-0.8,5.6-3.4
	c0.8-2.6,1.5-5.6,1.5-8.2c0.4-4.9,0-9.8,0-14.6C69.4,58.9,69,58.9,69,58.5z M69.4,37.1c0-2.2,0-4.9,0-7.1c-0.4-2.3-0.4-4.5-1.1-6.8
	c-0.8-3.4-2.6-4.1-6-4.1c-2.6,0-4.5,1.5-4.9,4.5c-0.8,2.6-1.1,4.9-1.1,7.5c0,4.5,0,9.4,0.4,13.9c0.4,4.1,3.4,6,7.5,5.2
	c3-0.4,5.2-3,5.2-6C69.4,41.6,69.4,39.4,69.4,37.1z"/>
</svg>
