<?xml version="1.0" encoding="utf-8"?>
<!-- Generator: Adobe Illustrator 27.5.0, SVG Export Plug-In . SVG Version: 6.00 Build 0)  -->
<svg version="1.1" id="Layer_1" xmlns="http://www.w3.org/2000/svg" xmlns:xlink="http://www.w3.org/1999/xlink" x="0px" y="0px"
	 viewBox="0 0 30 30" style="enable-background:new 0 0 30 30;" xml:space="preserve">
<style type="text/css">
	.st0{fill:none;stroke:#969696;stroke-miterlimit:10;}
	.st1{fill:#969696;}
	.st2{fill:none;stroke:#969696;stroke-linejoin:bevel;stroke-miterlimit:10;}
</style>
<polyline class="st0" points="0.5,17 0.5,4.2 4,4.2 "/>
<polyline class="st0" points="22.5,25.8 22.5,29.8 11.5,29.8 "/>
<polyline class="st0" points="4,13 4,0.2 15,0.2 "/>
<polyline class="st0" points="26,13 26,25.8 15,25.8 "/>
<path class="st1" d="M9.3,16.5H1V4.7h3v-1H0.5L0,4.2V17l0.5,0.5h8.1C8.8,17.1,9,16.8,9.3,16.5z"/>
<path class="st2" d="M17.7,3.9c-0.8,0-1.5,0.3-2.1,0.9h-0.5V0.2h-11V13h3.7v-0.6c-0.5-0.5-0.9-1.2-0.9-2c0-1.5,1.2-2.7,2.7-2.7
	s2.7,1.2,2.7,2.7c0,0.8-0.3,1.5-0.8,2V13h3.6V8.5h0.7C16.3,9,17,9.3,17.7,9.3c1.6,0,2.8-1.2,2.8-2.7S19.2,3.9,17.7,3.9z"/>
<g>
	<path class="st2" d="M15,21.3v4.5h11V13h-3.6v0.7c0.5,0.5,0.8,1.2,0.8,1.9c0,1.6-1.2,2.8-2.7,2.8s-2.7-1.3-2.7-2.8
		c0-0.8,0.3-1.5,0.9-2.1V13h-3.6v4.6h-0.6c-0.5-0.6-1.3-1-2.1-1c-1.5,0-2.7,1.2-2.7,2.7c0,1.6,1.2,2.8,2.7,2.8c0.8,0,1.5-0.3,2-0.8
		C14.4,21.3,15,21.3,15,21.3z"/>
</g>
<path class="st1" d="M22,25.8v3.5H12v-5.7c-0.3,0-0.7-0.1-1-0.2v6.5l0.5,0.5h11l0.5-0.5v-4H22z"/>
</svg>
