<?xml version="1.0" encoding="utf-8"?>
<!-- Generator: Adobe Illustrator 27.9.0, SVG Export Plug-In . SVG Version: 6.00 Build 0)  -->
<svg version="1.1" id="Layer_1" xmlns="http://www.w3.org/2000/svg" xmlns:xlink="http://www.w3.org/1999/xlink" x="0px" y="0px"
	 viewBox="0 0 120 120" style="enable-background:new 0 0 120 120;" xml:space="preserve">
<style type="text/css">
	.st0{fill:#646464;}
	.st1{fill:none;stroke:#646464;stroke-miterlimit:10;}
	.st2{fill:none;stroke:#646464;stroke-width:2;stroke-miterlimit:10;}
</style>
<g>
	<g>
		<path class="st0" d="M39.9,53.3c5.2-1.9,9.7-6,12.9-10.5c1.1-1.6,2.4-3.5,2.7-5.5c0.2-1.4-0.3-2.9-2-2.9c-2,0-3.7,2.2-4.8,3.6
			c-1.5,2.1-2.8,4.5-3.4,7c-0.5,2.2-0.8,5.2,1.1,6.9c0.8,0.7,1.8,1.2,2.8,1.5c1.7,0.4,3.5-0.1,5.1-0.8c2.3-1.1,4.2-2.8,5.9-4.6
			s3.3-3.8,4.4-6c0.6-1.2,1.4-3.1,0.1-4.1c-2.3-1.6-4.7,1.2-5.8,2.9c-1.8,2.7-3.2,6.2-2.3,9.5c0.4,1.3,1.1,2.4,2.4,2.9
			c1.5,0.6,3.2,0.2,4.6-0.4c2.2-1,4.2-2.7,5.9-4.4c1.6-1.6,3.4-3.4,4.2-5.6c0.3-0.8,0.3-1.7-0.3-2.3c-0.7-0.8-1.8-0.6-2.6-0.1
			c-1.2,0.7-2.2,1.9-2.9,3.1c-0.7,1.2-1.3,2.6-1.5,4c-0.2,1.2-0.1,2.5,0.4,3.6c0.6,1.2,1.7,1.8,3,2.1c2.9,0.5,5.6-1.4,7.4-3.6
			c0.9-1.1,1.7-2.3,2.3-3.6c0.3-0.6-0.6-1.1-0.9-0.5c-1.1,2.3-2.8,4.6-5,5.9c-1.9,1.1-5.2,1.4-6.1-1.1c-0.8-2.2,0.3-4.9,1.5-6.7
			c0.6-1,1.5-2.1,2.6-2.5c0.7-0.3,1.2,0.1,1.2,0.9c0,0.7-0.5,1.4-0.9,2c-0.6,0.9-1.3,1.7-2,2.5c-1.5,1.6-3.1,3.1-5,4.4
			c-1.8,1.2-5.1,2.9-6.8,0.7c-1.8-2.3-0.8-5.9,0.4-8.2c0.6-1.3,1.4-2.5,2.4-3.5c0.6-0.6,1.5-1.4,2.5-1.3c1.5,0.2,0.8,1.8,0.4,2.8
			c-0.9,1.9-2.2,3.6-3.6,5.1c-1.5,1.7-3.1,3.2-5,4.4c-1,0.7-2.2,1.2-3.4,1.5c-1.4,0.3-2.7,0.2-3.9-0.5c-1.9-1-2.2-2.9-2-4.9
			c0.2-2.3,1.1-4.4,2.3-6.4c1-1.7,2.3-3.7,4.1-4.8c0.9-0.6,2.2-0.5,2.2,0.8c0,1.5-0.9,3-1.6,4.2c-2.4,4-6.1,7.6-10.1,10
			c-1,0.6-2.1,1.1-3.2,1.5C39,52.5,39.3,53.5,39.9,53.3L39.9,53.3z"/>
	</g>
</g>
<g>
	<g>
		<path class="st0" d="M78.3,60.6c-10-2.6-20.6-2.9-30.8-0.8c-2.9,0.6-5.7,1.3-8.5,2.3c-0.6,0.2-0.3,1.2,0.3,1
			c9.6-3.3,20-4.4,30.1-3.1c2.9,0.4,5.8,0.9,8.6,1.6C78.7,61.7,78.9,60.7,78.3,60.6L78.3,60.6z"/>
	</g>
</g>
<polyline class="st1" points="67.1,78.6 67.1,84.1 52.1,84.1 52.1,69.1 57.6,69.1 "/>
<polyline class="st2" points="61.1,68.1 68.1,68.1 68.1,75.1 "/>
<line class="st2" x1="68.1" y1="68.1" x2="58.1" y2="78.1"/>
</svg>
