<?xml version="1.0" encoding="utf-8"?>
<!-- Generator: Adobe Illustrator 27.9.0, SVG Export Plug-In . SVG Version: 6.00 Build 0)  -->
<svg version="1.1" id="Layer_1" xmlns="http://www.w3.org/2000/svg" xmlns:xlink="http://www.w3.org/1999/xlink" x="0px" y="0px"
	 viewBox="0 0 30 30" style="enable-background:new 0 0 30 30;" xml:space="preserve">
<style type="text/css">
	.st0{fill:none;stroke:#121212;stroke-width:0.5;}
	.st1{fill:#121212;}
	.st2{fill:#969696;}
	.st3{fill:none;stroke:#969696;stroke-width:1.25;stroke-miterlimit:10;}
	.st4{fill:none;stroke:#969696;stroke-miterlimit:10;}
	.st5{fill:#FFFFFF;}
</style>
<path class="st0" d="M59.3,11.8c0.5,0.7,0.9,1.6,1,2.6c0.2,2.6-1.6,5-4.2,5.2c-2.5,0.2-4.3-1.3-4.6-3.9c-0.1-0.6,0-1.2,0.1-1.8
	 M62.3,17.2c0,0,0.6-0.4,0.4-1.6 M49.7,19.3c3,0.8,4.5,0.6,6.1,0.4c1.6-0.2,3.8-1.2,4.8-1.8c0.9-0.5,1.4-0.8,1.9-0.7
	c0.2,0,0.8,0.4,1.7,0.5c0.7,0.1,1.4,0.1,1.4-0.2 M65.6,17.2c-0.9-0.1-1.6-0.1-2.2-0.7c-0.9-0.8-0.9-1.9-1.4-3s-1.5-1.9-4.2-1.6
	c-2.8,0.3-4.9,1.4-6.7,2.5c-0.7,0.4-1.6,1-2.7,1.6c-1,0.5-2.1,0.9-3,1.2c-0.1,0-0.2,0.1-0.3,0.1c-2,0.6-3.4,0.7-3.4,0.7
	s1.9-0.6,4.7-1.9c1.5-0.7,3-1.6,4.4-2.5c1.6-1,3.4-1.9,5.8-2.3c4.7-0.8,6.3,1.3,6.8,2.1c0.5,0.9,0.6,2.2,1.1,2.9
	C65.1,17,65.6,17.2,65.6,17.2z"/>
<path class="st0" d="M64.3,17.8c-0.7,0-1.5-0.1-2.1,0.2c-0.6,0.3-4,2.2-6.5,2.4c-1.5,0.2-3.2,0.1-4.6,0c-0.9-0.1-1.9-0.4-2.6-0.6
	c-1.9-0.6-4-1.8-4.6-2.2 M51.9,11.2c0,0,2.1-1.3,6-1.7c4.1-0.4,5.9,1.4,6.5,2.5c0.7,1.1,0.9,3.1,0.9,3.1"/>
<g transform="translate(1.5, 1)">
	<path class="st1" d="M55.6,12.4c-1.2,0.1-2.1,1.2-2,2.3c0.1,1.2,1.2,2,2.4,1.9s2.1-1.2,2-2.3C57.9,13.1,56.8,12.2,55.6,12.4z
		 M56.5,14.6c-0.3,0-0.3-0.7-0.3-0.8s0.5-0.2,0.7-0.2c0.4,0,0.5,0.5,0.4,0.7C57.3,14.4,56.8,14.5,56.5,14.6z"/>
</g>
<ellipse class="st2" cx="15" cy="13.3" rx="1.9" ry="2.9"/>
<g>
	<path class="st3" d="M1-22.5c3.4-3.4,7.1-5,14-5s11.3,2.3,14,5"/>
	<path class="st3" d="M23.7-22.9c0,3.9-3.9,7-8.7,7s-8.7-3.1-8.7-7"/>
	<circle class="st2" cx="15" cy="-24.1" r="3.5"/>
</g>
<path class="st4" d="M1,46.9c3.4-3.4,7.1-7,14-7s11.3,4.3,14,7"/>
<path class="st4" d="M23.7,44.5c0,3.9-3.9,7-8.7,7s-8.7-3.1-8.7-7"/>
<circle class="st2" cx="15" cy="43.3" r="3.5"/>
<path class="st3" d="M-31.2,10.9c-3.6,0-5.9,0-11.5,0s-9.8,0-11.5,0"/>
<path class="st2" d="M-39.2,11.8"/>
<path class="st2" d="M-56.2,11.4"/>
<path class="st2" d="M-39.2,11.4v2.5c0,1.9-1.6,3.5-3.5,3.5c-1.9,0-3.5-1.6-3.5-3.5v-2.5"/>
<path class="st3" d="M-35.2,10.9c0.5,1,0.7,2.2,0.7,3.3c0,4.5-3.7,8.2-8.2,8.2s-8.2-3.7-8.2-8.2c0-1.2,0.3-2.3,0.7-3.3L-35.2,10.9z"
	/>
<path class="st3" d="M-59.6,10.9c-4.3,0-7.1,0-14,0s-11.9,0-14,0"/>
<circle class="st2" cx="-73.6" cy="14.3" r="3.5"/>
<circle class="st3" cx="-73.6" cy="14.3" r="8.2"/>
<path class="st3" d="M-3.1,10.9c-3.6,0-5.9,0-11.5,0s-9.8,0-11.5,0"/>
<path class="st2" d="M-11.1,11.8"/>
<path class="st2" d="M-18.1,11.4"/>
<path class="st2" d="M-11.1,11.4v2.5c0,1.9-1.6,3.5-3.5,3.5s-3.5-1.6-3.5-3.5v-2.5"/>
<path class="st3" d="M-6.5,12.7c0.1,0.5,0.1,1,0.1,1.6c0,4.5-3.7,8.2-8.2,8.2s-8.2-3.7-8.2-8.2c0-0.5,0.1-1.1,0.1-1.6"/>
<circle class="st5" cx="-14.6" cy="13.9" r="1.4"/>
<path class="st4" d="M10.7,16.8c-1.2-0.6-2.1-1.5-3-2.7c1.8-2.4,3.7-3.5,7.3-3.5s5.9,1.6,7.3,3.5c-0.7,1-1.7,1.9-3,2.6"/>
<circle class="st2" cx="84.6" cy="12.6" r="3.5"/>
<path class="st4" d="M94.9,14.3c-2,2.7-5.2,5-10.3,5c-5,0-7.8-1.6-10.3-5c2.5-3.4,5.2-5,10.3-5C89.6,9.3,92.9,11.6,94.9,14.3z"/>
</svg>
