<?xml version="1.0" encoding="utf-8"?>
<!-- Generator: Adobe Illustrator 27.9.0, SVG Export Plug-In . SVG Version: 6.00 Build 0)  -->
<svg version="1.1" id="Layer_1" xmlns="http://www.w3.org/2000/svg" xmlns:xlink="http://www.w3.org/1999/xlink" x="0px" y="0px"
	 viewBox="0 0 30 30" style="enable-background:new 0 0 30 30;" xml:space="preserve">
<style type="text/css">
	.st0{fill:none;stroke:#121212;stroke-width:0.5;}
	.st1{fill:#121212;}
</style>
<path class="st0" d="M20.6,11.8c0.5,0.7,0.9,1.6,1,2.6c0.2,2.6-1.6,5-4.2,5.2c-2.5,0.2-4.3-1.3-4.6-3.9c-0.1-0.6,0-1.2,0.1-1.8
	 M23.6,17.2c0,0,0.6-0.4,0.4-1.6 M11,19.3c3,0.8,4.5,0.6,6.1,0.4c1.6-0.2,3.8-1.2,4.8-1.8c0.9-0.5,1.4-0.8,1.9-0.7
	c0.2,0,0.8,0.4,1.7,0.5c0.7,0.1,1.4,0.1,1.4-0.2 M26.9,17.2c-0.9-0.1-1.6-0.1-2.2-0.7c-0.9-0.8-0.9-1.9-1.4-3
	c-0.5-1.1-1.5-1.9-4.2-1.6c-2.8,0.3-4.9,1.4-6.7,2.5c-0.7,0.4-1.6,1-2.7,1.6c-1,0.5-2.1,0.9-3,1.2c-0.1,0-0.2,0.1-0.3,0.1
	C4.4,17.9,3,18,3,18s1.9-0.6,4.7-1.9c1.5-0.7,3-1.6,4.4-2.5c1.6-1,3.4-1.9,5.8-2.3c4.7-0.8,6.3,1.3,6.8,2.1c0.5,0.9,0.6,2.2,1.1,2.9
	C26.4,17,26.9,17.2,26.9,17.2z"/>
<path class="st0" d="M25.6,17.8c-0.7,0-1.5-0.1-2.1,0.2c-0.6,0.3-4,2.2-6.5,2.4c-1.5,0.2-3.2,0.1-4.6,0c-0.9-0.1-1.9-0.4-2.6-0.6
	c-1.9-0.6-4-1.8-4.6-2.2 M13.2,11.2c0,0,2.1-1.3,6-1.7c4.1-0.4,5.9,1.4,6.5,2.5c0.7,1.1,0.9,3.1,0.9,3.1"/>
<g transform="translate(1.5, 1)">
  <path class="st1" d="M16.9,12.4c-1.2,0.1-2.1,1.2-2,2.3c0.1,1.2,1.2,2,2.4,1.9c1.2-0.1,2.1-1.2,2-2.3C19.2,13.1,18.1,12.2,16.9,12.4
    z M17.8,14.6c-0.3,0-0.3-0.7-0.3-0.8c0-0.1,0.5-0.2,0.7-0.2c0.4,0,0.5,0.5,0.4,0.7C18.6,14.4,18.1,14.5,17.8,14.6z"/>
</g>
</svg>
