<?xml version="1.0" encoding="utf-8"?>
<!-- Generator: Adobe Illustrator 27.5.0, SVG Export Plug-In . SVG Version: 6.00 Build 0)  -->
<svg version="1.1" id="Layer_1" xmlns="http://www.w3.org/2000/svg" xmlns:xlink="http://www.w3.org/1999/xlink" x="0px" y="0px"
	 viewBox="0 0 30 30" style="enable-background:new 0 0 30 30;" xml:space="preserve">
<style type="text/css">
	.st0{fill:none;stroke:#969696;stroke-miterlimit:10;}
	.st1{fill:#969696;}
	.st2{fill:none;stroke:#969696;stroke-linejoin:bevel;stroke-miterlimit:10;}
</style>
<polyline class="st0" points="22.5,21.5 22.5,29.3 11.5,29.3 "/>
<polyline class="st0" points="0.5,16.5 0.5,3.7 11.5,3.7 "/>
<g>
	<path class="st1" d="M22,19.4v9.4H12v-4l-0.5-0.5h-0.6l-0.4,0.1c-0.4,0.4-1,0.7-1.6,0.7c-1.3,0-2.2-1-2.2-2.3c0-1.2,1-2.2,2.2-2.2
		c0.6,0,1.3,0.3,1.7,0.8l0.4,0.2h0.5l0.5-0.5V17h2.5c-0.5,0.6-0.7,1.3-0.7,2.1c0,1.8,1.5,3.3,3.2,3.3c1.7,0,3-1.2,3.2-2.9
		c-0.3-0.1-0.7-0.2-1-0.3c-0.1,1.2-1,2.2-2.2,2.2c-1.2,0-2.2-1.1-2.2-2.3c0-0.7,0.2-1.2,0.8-1.7l0.1-0.4v-0.5L15.2,16h-3.7L11,16.5
		v3.9c-0.6-0.5-1.4-0.8-2.1-0.8c-1.8,0-3.2,1.4-3.2,3.2c0,1.9,1.4,3.3,3.2,3.3c0.8,0,1.5-0.3,2.1-0.7v3.9l0.5,0.5h11l0.5-0.5V19
		C22.7,19.2,22.4,19.3,22,19.4z"/>
</g>
<g>
	<path class="st1" d="M12,11.5h-0.5L11,12v4H8.5c0.5-0.6,0.7-1.3,0.7-2.1c0-1.8-1.4-3.2-3.2-3.2s-3.2,1.4-3.2,3.2
		c0,0.7,0.3,1.5,0.8,2.1H1V4.2h10v4.1l0.5,0.5H12l0,0V7.6c0,0,0,0,0,0V3.7l-0.5-0.5h-11L0,3.7v12.8L0.5,17h3.7l0.5-0.5v-0.6
		l-0.1-0.4c-0.3-0.3-0.8-0.9-0.8-1.6c0-1.2,1-2.2,2.2-2.2s2.2,1,2.2,2.2c0,0.6-0.2,1.2-0.7,1.6l-0.1,0.4v0.6L7.9,17h3.6l0.5-0.5v-4
		h0V11.5z"/>
</g>
<g>
	<polyline class="st0" points="14.5,0.7 27.3,0.7 27.3,11.7 	"/>
	<path class="st2" d="M23.6,14.3c0-0.8-0.3-1.5-0.9-2.1v-0.5l4.6,0l0-11l-12.8,0l0,3.7h0.6c0.5-0.5,1.2-0.9,2-0.9
		c1.5,0,2.7,1.2,2.7,2.7c0,1.5-1.2,2.7-2.7,2.7c-0.8,0-1.5-0.3-2-0.8h-0.6l0,3.6l4.5,0v0.7c-0.5,0.5-0.8,1.2-0.8,1.9
		c0,1.6,1.2,2.8,2.7,2.8S23.6,15.8,23.6,14.3z"/>
</g>
</svg>
