<?xml version="1.0" encoding="utf-8"?>
<!-- Generator: Adobe Illustrator 27.9.0, SVG Export Plug-In . SVG Version: 6.00 Build 0)  -->
<svg version="1.1" xmlns="http://www.w3.org/2000/svg" xmlns:xlink="http://www.w3.org/1999/xlink" x="0px" y="0px"
	 viewBox="0 0 30 30" style="enable-background:new 0 0 30 30;" xml:space="preserve">
<style type="text/css">
	.st0{display:none;}
	.st1{display:inline;fill:none;stroke:#646464;stroke-width:3;stroke-miterlimit:10;}
	.st2{display:inline;fill:none;stroke:#646464;stroke-width:2;stroke-miterlimit:10;}
	.st3{fill:#646464;stroke:#646464;stroke-miterlimit:10;}
</style>
<g id="Layer_1" class="st0">
	<polyline class="st1" points="16.6,2.5 27.5,2.5 27.5,13.4 	"/>
	<polyline class="st2" points="22.8,18.3 22.8,24.8 5.2,24.8 5.2,7.2 11.7,7.2 	"/>
	<line class="st1" x1="27.5" y1="2.5" x2="11.9" y2="18.1"/>
</g>
<g id="Layer_2">
	<g>
		<g>
			<path class="st3" d="M2.3,17.4c3.5-1.3,6.5-4,8.7-7.1c0.7-1.1,1.6-2.4,1.8-3.7c0.1-0.9-0.2-1.9-1.3-1.9c-1.3,0-2.5,1.5-3.2,2.4
				c-1,1.4-1.9,3-2.3,4.7c-0.3,1.5-0.5,3.5,0.7,4.6c0.5,0.5,1.2,0.8,1.9,1c1.1,0.3,2.4-0.1,3.4-0.5c1.5-0.7,2.8-1.9,4-3.1
				s2.2-2.6,3-4C19.3,9,19.8,7.7,19,7.1C17.4,6,15.8,7.9,15.1,9c-1.2,1.8-2.1,4.2-1.5,6.4c0.3,0.9,0.7,1.6,1.6,1.9
				c1,0.4,2.1,0.1,3.1-0.3c1.5-0.7,2.8-1.8,4-3c1.1-1.1,2.3-2.3,2.8-3.8c0.2-0.5,0.2-1.1-0.2-1.5c-0.5-0.5-1.2-0.4-1.7-0.1
				c-0.8,0.5-1.5,1.3-1.9,2.1c-0.5,0.8-0.9,1.7-1,2.7c-0.1,0.8-0.1,1.7,0.3,2.4c0.4,0.8,1.1,1.2,2,1.4c1.9,0.3,3.8-0.9,5-2.4
				c0.6-0.7,1.1-1.5,1.5-2.4c0.2-0.4-0.4-0.7-0.6-0.3c-0.7,1.5-1.9,3.1-3.4,4c-1.3,0.7-3.5,0.9-4.1-0.7c-0.5-1.5,0.2-3.3,1-4.5
				c0.4-0.7,1-1.4,1.7-1.7c0.5-0.2,0.8,0.1,0.8,0.6c0,0.5-0.3,0.9-0.6,1.3c-0.4,0.6-0.9,1.1-1.3,1.7c-1,1.1-2.1,2.1-3.4,3
				c-1.2,0.8-3.4,1.9-4.6,0.5c-1.2-1.5-0.5-4,0.3-5.5c0.4-0.9,0.9-1.7,1.6-2.4c0.4-0.4,1-0.9,1.7-0.9c1,0.1,0.5,1.2,0.3,1.9
				c-0.6,1.3-1.5,2.4-2.4,3.4c-1,1.1-2.1,2.1-3.4,3c-0.7,0.5-1.5,0.8-2.3,1c-0.9,0.2-1.8,0.1-2.6-0.3c-1.3-0.7-1.5-1.9-1.3-3.3
				c0.1-1.5,0.7-3,1.5-4.3c0.7-1.1,1.5-2.5,2.8-3.2c0.6-0.4,1.5-0.3,1.5,0.5c0,1-0.6,2-1.1,2.8c-1.6,2.7-4.1,5.1-6.8,6.7
				c-0.7,0.4-1.4,0.7-2.1,1C1.7,16.9,1.9,17.5,2.3,17.4L2.3,17.4z"/>
		</g>
	</g>
	<g>
		<g>
			<path class="st3" d="M28.1,22.3c-6.7-1.7-13.8-1.9-20.7-0.5c-1.9,0.4-3.8,0.9-5.7,1.5c-0.4,0.1-0.2,0.8,0.2,0.7
				c6.4-2.2,13.4-3,20.2-2.1c1.9,0.3,3.9,0.6,5.8,1.1C28.4,23.1,28.5,22.4,28.1,22.3L28.1,22.3z"/>
		</g>
	</g>
</g>
</svg>
