<?xml version="1.0" encoding="utf-8"?>
<!-- Generator: Adobe Illustrator 25.2.3, SVG Export Plug-In . SVG Version: 6.00 Build 0)  -->
<svg version="1.1" id="Layer_1" xmlns="http://www.w3.org/2000/svg" xmlns:xlink="http://www.w3.org/1999/xlink" x="0px" y="0px"
	 viewBox="0 0 30 30" style="enable-background:new 0 0 30 30;" xml:space="preserve">
<style type="text/css">
	.st0{fill:none;stroke:#969696;stroke-linejoin:bevel;stroke-miterlimit:10;}
	.st1{fill:none;stroke:#969696;stroke-miterlimit:10;}
	.st2{fill:#FFFFFF;}
</style>
<path class="st0" d="M11.5,15H6.9h0c1.1-0.4,1.8-1.4,1.8-2.6c0-1.5-1.2-2.7-2.7-2.7s-2.7,1.2-2.7,2.7c0,1.2,0.8,2.2,1.8,2.6l0,0H0.5
	c0,0,0-12.8,0-12.8h11v5.5l0,0c0.4-1.1,1.4-1.8,2.6-1.8c1.5,0,2.8,1.2,2.8,2.7s-1.2,2.7-2.8,2.7c-1.2,0-2.2-0.8-2.6-1.8v0V15"/>
<path class="st0" d="M11.5,15h4.6h0c-1.1,0.4-1.8,1.4-1.8,2.6c0,1.5,1.2,2.8,2.7,2.8s2.7-1.2,2.7-2.8c0-1.2-0.8-2.2-1.8-2.6l0,0h4.6
	l0,12.8h-11v0v-5.5l0,0c-0.4,1.1-1.4,1.8-2.6,1.8c-1.5,0-2.7-1.2-2.7-2.8c0-1.5,1.2-2.7,2.7-2.7c1.2,0,2.2,0.8,2.6,1.8v0V15"/>
<polyline class="st1" points="0.5,15 0.5,2.2 11.5,2.2 "/>
<polyline class="st1" points="22.5,15 22.5,27.8 11.5,27.8 "/>
<rect x="15.2" y="13.2" class="st2" width="3.7" height="3.7"/>
<rect x="10.1" y="19.6" class="st2" width="3.7" height="3.7"/>
<rect x="10.1" y="6.8" class="st2" width="3.7" height="3.7"/>
<rect x="4.2" y="13.2" class="st2" width="3.7" height="2.7"/>
</svg>
