<?xml version="1.0" encoding="utf-8"?>
<!-- Generator: Adobe Illustrator 27.9.0, SVG Export Plug-In . SVG Version: 6.00 Build 0)  -->
<svg version="1.1" id="Layer_1" xmlns="http://www.w3.org/2000/svg" xmlns:xlink="http://www.w3.org/1999/xlink" x="0px" y="0px"
	 viewBox="0 0 150 150" style="enable-background:new 0 0 150 150;" xml:space="preserve">
<style type="text/css">
	.st0{fill:#969696;}
</style>
<polygon class="st0" points="82.5,58.9 82.5,38.9 67.5,38.9 67.5,58.9 55.1,58.9 75,78.8 94.9,58.9 "/>
<g>
	<path class="st0" d="M97.5,13.9H25v80v40h100v-40V48.4v-7.1L97.5,13.9z M48.9,124.5v-21.4h6.9c2.8,0,4.8,0.6,6,1.8
		c1.3,1.2,1.9,2.8,1.9,4.9c0,1.3-0.3,2.4-0.8,3.5c-0.5,1.1-1.4,2-2.6,2.6c-1.2,0.7-2.9,1-4.9,1h-2v7.6H48.9z M67.7,124.5v-21.4h6.7
		c2.2,0,4.2,0.4,5.8,1.2c1.6,0.8,2.9,2,3.8,3.5c1.1,1.6,1.5,3.5,1.5,5.8c0,3.6-1,6.3-3.1,8.2c-2.1,1.8-4.9,2.7-8.6,2.7H67.7z
		 M101.8,112.3v3.7h-7.3v8.5H90v-21.4h12.3v3.7h-7.8v5.5H101.8z M30,93.9v-75h65.4l2.1,2.1v20.4H118l2,2v50.5
		C102.9,93.9,47.1,93.9,30,93.9z"/>
	<path class="st0" d="M58,112.4c0.8-0.5,1.1-1.3,1.1-2.5c0-2.1-1.2-3.1-3.6-3.1h-2.1v6.4H55C56.3,113.2,57.3,112.9,58,112.4z"/>
	<path class="st0" d="M74.7,106.8h-2.4v14h2c4.3-0.1,6.5-2.4,6.5-7.1c0-2.4-0.5-4.1-1.6-5.2C78.1,107.4,76.7,106.8,74.7,106.8z"/>
</g>
</svg>
