<?xml version="1.0" encoding="utf-8"?>
<!-- Generator: Adobe Illustrator 27.9.0, SVG Export Plug-In . SVG Version: 6.00 Build 0)  -->
<svg version="1.1" id="Layer_1" xmlns="http://www.w3.org/2000/svg" xmlns:xlink="http://www.w3.org/1999/xlink" x="0px" y="0px"
	 viewBox="0 0 30 30" style="enable-background:new 0 0 30 30;" xml:space="preserve">
<style type="text/css">
	.st0{fill:#969696;}
</style>
<polygon class="st0" points="11.5,12 11.5,8 8.5,8 8.5,12 6,12 10,16 14,12 "/>
<g>
	<path class="st0" d="M14.5,3H0v16v8h20v-8V9.9V8.5L14.5,3z M7.6,22.9c-0.1,0.2-0.3,0.4-0.5,0.5c-0.2,0.1-0.6,0.2-1,0.2H5.7v1.5H4.8
		v-4.3h1.4c0.6,0,1,0.1,1.2,0.4c0.3,0.2,0.4,0.6,0.4,1C7.8,22.5,7.7,22.7,7.6,22.9z M11.5,24.5c-0.4,0.4-1,0.5-1.7,0.5H8.6v-4.3h1.3
		c0.4,0,0.8,0.1,1.2,0.2c0.3,0.2,0.6,0.4,0.8,0.7c0.1,0.5,0.2,0.9,0.2,1.3C12.1,23.6,11.9,24.2,11.5,24.5z M15.5,21.5h-1.6v1.1h1.5
		v0.7h-1.5v1.8H13v-4.3h2.5V21.5z M19,19H1V4h13.1l0.4,0.4v4.1h4.1L19,8.9V19z"/>
	<path class="st0" d="M6.1,21.6H5.7v1.3H6c0.3,0,0.5-0.1,0.6-0.2c0.1-0.1,0.2-0.3,0.2-0.5C6.8,21.8,6.6,21.6,6.1,21.6z"/>
	<path class="st0" d="M10,21.7H9.5v2.8h0.4c0.8-0.1,1.3-0.6,1.3-1.5c0-0.5-0.1-0.8-0.3-1C10.7,21.8,10.4,21.7,10,21.7z"/>
</g>
</svg>
