<?xml version="1.0" encoding="utf-8"?>
<!-- Generator: Adobe Illustrator 27.5.0, SVG Export Plug-In . SVG Version: 6.00 Build 0)  -->
<svg version="1.1" id="Layer_1" xmlns="http://www.w3.org/2000/svg" xmlns:xlink="http://www.w3.org/1999/xlink" x="0px" y="0px"
	 viewBox="0 0 30 30" style="enable-background:new 0 0 30 30;" xml:space="preserve">
<style type="text/css">
	.st0{fill:#969696;}
	.st1{fill:none;stroke:#969696;stroke-miterlimit:10;}
</style>
<circle class="st0" cx="1.8" cy="15" r="1.5"/>
<circle class="st0" cx="18.5" cy="17.8" r="1.5"/>
<circle class="st0" cx="18.5" cy="25.2" r="1.5"/>
<circle class="st0" cx="11.3" cy="21.5" r="1.5"/>
<path class="st1" d="M1.8,15c7.3,0,2,6.5,9.3,6.5c3.7,0,3.7-3.7,7.3-3.7"/>
<path class="st1" d="M18.5,25.2c-3.7,0-3.7-3.8-7.3-3.8"/>
<circle class="st0" cx="18.3" cy="12.2" r="1.5"/>
<circle class="st0" cx="18.3" cy="4.8" r="1.5"/>
<circle class="st0" cx="11.2" cy="8.5" r="1.5"/>
<path class="st1" d="M1.7,15c7.3,0,2-6.5,9.3-6.5c3.7,0,3.7,3.7,7.3,3.7"/>
<path class="st1" d="M18.3,4.8c-3.7,0-3.7,3.8-7.3,3.8"/>
</svg>
